<svg version="1.1" xmlns="http://www.w3.org/2000/svg" viewBox="0 0 1237.9285714285652 774.2857142857138" width="2475.8571428571304" height="1548.5714285714275">
  <!-- svg-source:excalidraw -->
  
  <defs>
    <style>
      @font-face {
        font-family: "Virgil";
        src: url("https://excalidraw.com/Virgil.woff2");
      }
      @font-face {
        font-family: "Cascadia";
        src: url("https://excalidraw.com/Cascadia.woff2");
      }
    </style>
  </defs>
  <g stroke-linecap="round" transform="translate(189.21428571427896 613.2857142857156) rotate(0 85.00000000000182 27.857142857142662)"><path d="M0 0 L170 0 L170 55.71 L0 55.71" stroke="none" stroke-width="0" fill="#4c6ef5"></path><path d="M0 0 C39.66 0, 79.32 0, 170 0 M0 0 C66.34 0, 132.67 0, 170 0 M170 0 C170 18.97, 170 37.94, 170 55.71 M170 0 C170 13.14, 170 26.27, 170 55.71 M170 55.71 C112.79 55.71, 55.58 55.71, 0 55.71 M170 55.71 C113.72 55.71, 57.43 55.71, 0 55.71 M0 55.71 C0 34.97, 0 14.23, 0 0 M0 55.71 C0 37.92, 0 20.12, 0 0" stroke="#000000" stroke-width="1" fill="none"></path></g><g stroke-linecap="round" transform="translate(711.2142857142826 489.99999999999727) rotate(0 79.2857142857174 30.000000000000455)"><path d="M79.29 0 C91.51 -0.44, 106.66 1.43, 117.9 3.8 C129.15 6.17, 139.98 10.09, 146.74 14.23 C153.51 18.38, 157.92 23.8, 158.49 28.66 C159.07 33.53, 155.95 39.07, 150.18 43.43 C144.42 47.79, 134.56 52.05, 123.92 54.8 C113.28 57.54, 99.17 59.45, 86.35 59.88 C73.52 60.31, 58.74 59.38, 46.99 57.4 C35.23 55.41, 23.52 51.88, 15.81 47.98 C8.1 44.08, 2.42 38.83, 0.71 34 C-1.01 29.17, 0.79 23.54, 5.51 19.01 C10.22 14.48, 19.05 9.9, 29 6.81 C38.95 3.72, 56.84 1.61, 65.22 0.48 C73.6 -0.66, 76.94 -0.02, 79.29 0 C81.63 0.02, 79.29 0.1, 79.29 0.6 M79.29 0 C91.51 -0.44, 106.66 1.43, 117.9 3.8 C129.15 6.17, 139.98 10.09, 146.74 14.23 C153.51 18.38, 157.92 23.8, 158.49 28.66 C159.07 33.53, 155.95 39.07, 150.18 43.43 C144.42 47.79, 134.56 52.05, 123.92 54.8 C113.28 57.54, 99.17 59.45, 86.35 59.88 C73.52 60.31, 58.74 59.38, 46.99 57.4 C35.23 55.41, 23.52 51.88, 15.81 47.98 C8.1 44.08, 2.42 38.83, 0.71 34 C-1.01 29.17, 0.79 23.54, 5.51 19.01 C10.22 14.48, 19.05 9.9, 29 6.81 C38.95 3.72, 56.84 1.61, 65.22 0.48 C73.6 -0.66, 76.94 -0.02, 79.29 0 C81.63 0.02, 79.29 0.1, 79.29 0.6" stroke="none" stroke-width="0" fill="#fa5252"></path><path d="M79.29 0 C91.51 -0.44, 106.66 1.43, 117.9 3.8 C129.15 6.17, 139.98 10.09, 146.74 14.23 C153.51 18.38, 157.92 23.8, 158.49 28.66 C159.07 33.53, 155.95 39.07, 150.18 43.43 C144.42 47.79, 134.56 52.05, 123.92 54.8 C113.28 57.54, 99.17 59.45, 86.35 59.88 C73.52 60.31, 58.74 59.38, 46.99 57.4 C35.23 55.41, 23.52 51.88, 15.81 47.98 C8.1 44.08, 2.42 38.83, 0.71 34 C-1.01 29.17, 0.79 23.54, 5.51 19.01 C10.22 14.48, 19.05 9.9, 29 6.81 C38.95 3.72, 56.84 1.61, 65.22 0.48 C73.6 -0.66, 76.94 -0.02, 79.29 0 C81.63 0.02, 79.29 0.1, 79.29 0.6 M79.29 0 C91.51 -0.44, 106.66 1.43, 117.9 3.8 C129.15 6.17, 139.98 10.09, 146.74 14.23 C153.51 18.38, 157.92 23.8, 158.49 28.66 C159.07 33.53, 155.95 39.07, 150.18 43.43 C144.42 47.79, 134.56 52.05, 123.92 54.8 C113.28 57.54, 99.17 59.45, 86.35 59.88 C73.52 60.31, 58.74 59.38, 46.99 57.4 C35.23 55.41, 23.52 51.88, 15.81 47.98 C8.1 44.08, 2.42 38.83, 0.71 34 C-1.01 29.17, 0.79 23.54, 5.51 19.01 C10.22 14.48, 19.05 9.9, 29 6.81 C38.95 3.72, 56.84 1.61, 65.22 0.48 C73.6 -0.66, 76.94 -0.02, 79.29 0 C81.63 0.02, 79.29 0.1, 79.29 0.6" stroke="#000000" stroke-width="1" fill="none"></path></g><g stroke-linecap="round" transform="translate(10 12.214285714286234) rotate(0 115 120)"><path d="M0 0 C79.1 0, 158.21 0, 230 0 M230 0 C230 55.75, 230 111.5, 230 240 M230 240 C152.94 240, 75.88 240, 0 240 M0 240 C0 156.12, 0 72.24, 0 0" stroke="#495057" stroke-width="1.5" fill="none" stroke-dasharray="1.5 7"></path></g><g stroke-linecap="round" transform="translate(295 10.785714285715585) rotate(0 115 120)"><path d="M0 0 C69.88 0, 139.76 0, 230 0 M230 0 C230 79.8, 230 159.59, 230 240 M230 240 C144.58 240, 59.16 240, 0 240 M0 240 C0 169.79, 0 99.57, 0 0" stroke="#495057" stroke-width="1.5" fill="none" stroke-dasharray="1.5 7"></path></g><g stroke-linecap="round" transform="translate(51.428571428579744 55.07142857142753) rotate(0 72.85714285714312 77.85714285714312)"><path d="M72.86 0 C82.97 -1.17, 95.22 2.89, 104.78 7.87 C114.35 12.86, 123.7 20.94, 130.25 29.9 C136.81 38.86, 141.9 50.51, 144.11 61.63 C146.33 72.75, 146.13 85.6, 143.56 96.64 C141 107.68, 135.54 119.13, 128.71 127.85 C121.88 136.57, 112.28 144.31, 102.56 148.95 C92.84 153.59, 81.04 156.05, 70.4 155.67 C59.77 155.29, 48.15 151.98, 38.74 146.65 C29.34 141.33, 20.25 132.91, 13.98 123.72 C7.71 114.53, 3 102.71, 1.13 91.51 C-0.74 80.32, -0.13 67.48, 2.78 56.54 C5.7 45.6, 11.51 34.35, 18.61 25.88 C25.71 17.42, 36.37 10.05, 45.41 5.74 C54.45 1.42, 68.28 0.7, 72.86 0 C77.43 -0.7, 72.86 0.26, 72.86 1.56 M72.86 0 C82.97 -1.17, 95.22 2.89, 104.78 7.87 C114.35 12.86, 123.7 20.94, 130.25 29.9 C136.81 38.86, 141.9 50.51, 144.11 61.63 C146.33 72.75, 146.13 85.6, 143.56 96.64 C141 107.68, 135.54 119.13, 128.71 127.85 C121.88 136.57, 112.28 144.31, 102.56 148.95 C92.84 153.59, 81.04 156.05, 70.4 155.67 C59.77 155.29, 48.15 151.98, 38.74 146.65 C29.34 141.33, 20.25 132.91, 13.98 123.72 C7.71 114.53, 3 102.71, 1.13 91.51 C-0.74 80.32, -0.13 67.48, 2.78 56.54 C5.7 45.6, 11.51 34.35, 18.61 25.88 C25.71 17.42, 36.37 10.05, 45.41 5.74 C54.45 1.42, 68.28 0.7, 72.86 0 C77.43 -0.7, 72.86 0.26, 72.86 1.56" stroke="none" stroke-width="0" fill="#fa5252"></path><path d="M72.86 0 C82.97 -1.17, 95.22 2.89, 104.78 7.87 C114.35 12.86, 123.7 20.94, 130.25 29.9 C136.81 38.86, 141.9 50.51, 144.11 61.63 C146.33 72.75, 146.13 85.6, 143.56 96.64 C141 107.68, 135.54 119.13, 128.71 127.85 C121.88 136.57, 112.28 144.31, 102.56 148.95 C92.84 153.59, 81.04 156.05, 70.4 155.67 C59.77 155.29, 48.15 151.98, 38.74 146.65 C29.34 141.33, 20.25 132.91, 13.98 123.72 C7.71 114.53, 3 102.71, 1.13 91.51 C-0.74 80.32, -0.13 67.48, 2.78 56.54 C5.7 45.6, 11.51 34.35, 18.61 25.88 C25.71 17.42, 36.37 10.05, 45.41 5.74 C54.45 1.42, 68.28 0.7, 72.86 0 C77.43 -0.7, 72.86 0.26, 72.86 1.56 M72.86 0 C82.97 -1.17, 95.22 2.89, 104.78 7.87 C114.35 12.86, 123.7 20.94, 130.25 29.9 C136.81 38.86, 141.9 50.51, 144.11 61.63 C146.33 72.75, 146.13 85.6, 143.56 96.64 C141 107.68, 135.54 119.13, 128.71 127.85 C121.88 136.57, 112.28 144.31, 102.56 148.95 C92.84 153.59, 81.04 156.05, 70.4 155.67 C59.77 155.29, 48.15 151.98, 38.74 146.65 C29.34 141.33, 20.25 132.91, 13.98 123.72 C7.71 114.53, 3 102.71, 1.13 91.51 C-0.74 80.32, -0.13 67.48, 2.78 56.54 C5.7 45.6, 11.51 34.35, 18.61 25.88 C25.71 17.42, 36.37 10.05, 45.41 5.74 C54.45 1.42, 68.28 0.7, 72.86 0 C77.43 -0.7, 72.86 0.26, 72.86 1.56" stroke="#000000" stroke-width="1" fill="none"></path></g><g stroke-linecap="round" transform="translate(335.7142857142899 59.35714285714312) rotate(0 73.57142857142753 71.42857142857156)"><path d="M0 0 L147.14 0 L147.14 142.86 L0 142.86" stroke="none" stroke-width="0" fill="#4c6ef5"></path><path d="M0 0 C30.64 0, 61.29 0, 147.14 0 M0 0 C37.83 0, 75.66 0, 147.14 0 M147.14 0 C147.14 38.36, 147.14 76.73, 147.14 142.86 M147.14 0 C147.14 38.35, 147.14 76.7, 147.14 142.86 M147.14 142.86 C91.3 142.86, 35.46 142.86, 0 142.86 M147.14 142.86 C110.4 142.86, 73.66 142.86, 0 142.86 M0 142.86 C0 104.92, 0 66.98, 0 0 M0 142.86 C0 86.32, 0 29.78, 0 0" stroke="#000000" stroke-width="1" fill="none"></path></g><g stroke-linecap="round" transform="translate(669.5714285714348 12.142857142855064) rotate(0 115 120)"><path d="M0 0 C83.21 0, 166.43 0, 230 0 M230 0 C230 64.25, 230 128.49, 230 240 M230 240 C138.34 240, 46.68 240, 0 240 M0 240 C0 150.72, 0 61.45, 0 0" stroke="#495057" stroke-width="1.5" fill="none" stroke-dasharray="1.5 7"></path></g><g stroke-linecap="round" transform="translate(957.4285714285725 10.714285714282596) rotate(0 115 120)"><path d="M0 0 C52.68 0, 105.36 0, 230 0 M230 0 C230 92.41, 230 184.83, 230 240 M230 240 C151.63 240, 73.27 240, 0 240 M0 240 C0 177.88, 0 115.76, 0 0" stroke="#495057" stroke-width="1.5" fill="none" stroke-dasharray="1.5 7"></path></g><g stroke-linecap="round" transform="translate(708.1428571428696 100.71428571428169) rotate(0 79.2857142857174 37.14285714285734)"><path d="M79.29 0 C91.34 -0.54, 106.21 1.71, 117.34 4.56 C128.47 7.41, 139.21 12.11, 146.05 17.11 C152.89 22.12, 157.51 28.65, 158.38 34.58 C159.26 40.51, 156.61 47.28, 151.3 52.68 C146 58.08, 136.73 63.42, 126.55 66.96 C116.36 70.51, 102.76 73.11, 90.2 73.93 C77.63 74.75, 63.03 73.98, 51.17 71.87 C39.31 69.76, 27.28 65.8, 19.04 61.29 C10.79 56.77, 4.3 50.6, 1.69 44.78 C-0.91 38.97, -0.28 32.09, 3.39 26.4 C7.06 20.71, 14.66 14.82, 23.71 10.65 C32.76 6.49, 48.41 3.18, 57.67 1.41 C66.93 -0.37, 75.68 0.11, 79.29 0 C82.89 -0.11, 79.29 0.12, 79.29 0.74 M79.29 0 C91.34 -0.54, 106.21 1.71, 117.34 4.56 C128.47 7.41, 139.21 12.11, 146.05 17.11 C152.89 22.12, 157.51 28.65, 158.38 34.58 C159.26 40.51, 156.61 47.28, 151.3 52.68 C146 58.08, 136.73 63.42, 126.55 66.96 C116.36 70.51, 102.76 73.11, 90.2 73.93 C77.63 74.75, 63.03 73.98, 51.17 71.87 C39.31 69.76, 27.28 65.8, 19.04 61.29 C10.79 56.77, 4.3 50.6, 1.69 44.78 C-0.91 38.97, -0.28 32.09, 3.39 26.4 C7.06 20.71, 14.66 14.82, 23.71 10.65 C32.76 6.49, 48.41 3.18, 57.67 1.41 C66.93 -0.37, 75.68 0.11, 79.29 0 C82.89 -0.11, 79.29 0.12, 79.29 0.74" stroke="none" stroke-width="0" fill="#fa5252"></path><path d="M79.29 0 C91.34 -0.54, 106.21 1.71, 117.34 4.56 C128.47 7.41, 139.21 12.11, 146.05 17.11 C152.89 22.12, 157.51 28.65, 158.38 34.58 C159.26 40.51, 156.61 47.28, 151.3 52.68 C146 58.08, 136.73 63.42, 126.55 66.96 C116.36 70.51, 102.76 73.11, 90.2 73.93 C77.63 74.75, 63.03 73.98, 51.17 71.87 C39.31 69.76, 27.28 65.8, 19.04 61.29 C10.79 56.77, 4.3 50.6, 1.69 44.78 C-0.91 38.97, -0.28 32.09, 3.39 26.4 C7.06 20.71, 14.66 14.82, 23.71 10.65 C32.76 6.49, 48.41 3.18, 57.67 1.41 C66.93 -0.37, 75.68 0.11, 79.29 0 C82.89 -0.11, 79.29 0.12, 79.29 0.74 M79.29 0 C91.34 -0.54, 106.21 1.71, 117.34 4.56 C128.47 7.41, 139.21 12.11, 146.05 17.11 C152.89 22.12, 157.51 28.65, 158.38 34.58 C159.26 40.51, 156.61 47.28, 151.3 52.68 C146 58.08, 136.73 63.42, 126.55 66.96 C116.36 70.51, 102.76 73.11, 90.2 73.93 C77.63 74.75, 63.03 73.98, 51.17 71.87 C39.31 69.76, 27.28 65.8, 19.04 61.29 C10.79 56.77, 4.3 50.6, 1.69 44.78 C-0.91 38.97, -0.28 32.09, 3.39 26.4 C7.06 20.71, 14.66 14.82, 23.71 10.65 C32.76 6.49, 48.41 3.18, 57.67 1.41 C66.93 -0.37, 75.68 0.11, 79.29 0 C82.89 -0.11, 79.29 0.12, 79.29 0.74" stroke="#000000" stroke-width="1" fill="none"></path></g><g stroke-linecap="round" transform="translate(982.4285714285761 92.14285714285234) rotate(0 89.28571428571377 36.42857142857156)"><path d="M0 0 L178.57 0 L178.57 72.86 L0 72.86" stroke="none" stroke-width="0" fill="#4c6ef5"></path><path d="M0 0 C61.46 0, 122.92 0, 178.57 0 M0 0 C60.98 0, 121.97 0, 178.57 0 M178.57 0 C178.57 19.66, 178.57 39.33, 178.57 72.86 M178.57 0 C178.57 18.36, 178.57 36.72, 178.57 72.86 M178.57 72.86 C111.04 72.86, 43.5 72.86, 0 72.86 M178.57 72.86 C135.13 72.86, 91.68 72.86, 0 72.86 M0 72.86 C0 51.68, 0 30.51, 0 0 M0 72.86 C0 56.63, 0 40.41, 0 0" stroke="#000000" stroke-width="1" fill="none"></path></g><g transform="translate(680 262.57142857142753) rotate(0 107 23)"><text x="107" y="32" font-family="Virgil, Segoe UI Emoji" font-size="36px" fill="#000000" text-anchor="middle" style="white-space: pre;" direction="ltr">scale(y=0.5)</text></g><g transform="translate(965.7857142857247 264.1428571428569) rotate(0 107 23)"><text x="107" y="32" font-family="Virgil, Segoe UI Emoji" font-size="36px" fill="#000000" text-anchor="middle" style="white-space: pre;" direction="ltr">scale(y=0.5)</text></g><g stroke-linecap="round"><g transform="translate(564.2142857142899 135.71428571428623) rotate(0 27.857142857144936 -4.547473508864641e-13)"><path d="M0 0 C16.92 0, 33.85 0, 55.71 0 M0 0 C15.22 0, 30.43 0, 55.71 0" stroke="#000000" stroke-width="4" fill="none"></path></g><g transform="translate(564.2142857142899 135.71428571428623) rotate(0 27.857142857144936 -4.547473508864641e-13)"><path d="M29.54 9.53 C37.49 6.63, 45.44 3.74, 55.71 0 M29.54 9.53 C36.69 6.93, 43.83 4.32, 55.71 0" stroke="#000000" stroke-width="4" fill="none"></path></g><g transform="translate(564.2142857142899 135.71428571428623) rotate(0 27.857142857144936 -4.547473508864641e-13)"><path d="M29.54 -9.53 C37.49 -6.63, 45.44 -3.74, 55.71 0 M29.54 -9.53 C36.69 -6.93, 43.83 -4.32, 55.71 0" stroke="#000000" stroke-width="4" fill="none"></path></g></g><g stroke-linecap="round"><g transform="translate(932.7857142857247 344.28571428571377) rotate(0 -0.714285714284415 28.571428571427987)"><path d="M0 0 C-0.33 13.27, -0.66 26.55, -1.43 57.14 M0 0 C-0.48 19.15, -0.96 38.29, -1.43 57.14" stroke="#000000" stroke-width="4" fill="none"></path></g><g transform="translate(932.7857142857247 344.28571428571377) rotate(0 -0.714285714284415 28.571428571427987)"><path d="M-10.53 30.05 C-8.42 36.34, -6.3 42.64, -1.43 57.14 M-10.53 30.05 C-7.48 39.13, -4.43 48.2, -1.43 57.14" stroke="#000000" stroke-width="4" fill="none"></path></g><g transform="translate(932.7857142857247 344.28571428571377) rotate(0 -0.714285714284415 28.571428571427987)"><path d="M9.01 30.54 C6.59 36.72, 4.16 42.9, -1.43 57.14 M9.01 30.54 C5.52 39.45, 2.02 48.37, -1.43 57.14" stroke="#000000" stroke-width="4" fill="none"></path></g></g><g stroke-linecap="round"><g transform="translate(784.2142857142753 18.571428571427532) rotate(0 0.714285714286234 115.00000000000045)"><path d="M0 0 C0.47 76.47, 0.95 152.94, 1.43 230" stroke="#495057" stroke-width="1.5" fill="none" stroke-dasharray="1.5 7"></path></g></g><g stroke-linecap="round"><g transform="translate(130.35714285713766 11.428571428570649) rotate(0 -0.714285714286234 122.14285714285734)"><path d="M0 0 C-0.53 90.7, -1.06 181.39, -1.43 244.29" stroke="#495057" stroke-width="1.5" fill="none" stroke-dasharray="1.5 7"></path></g></g><g stroke-linecap="round"><g transform="translate(14.642857142855064 132.85714285714312) rotate(0 112.85714285714312 0.7142857142853245)"><path d="M0 0 C58.03 0.37, 116.06 0.73, 225.71 1.43" stroke="#495057" stroke-width="1.5" fill="none" stroke-dasharray="1.5 7"></path></g></g><g stroke-linecap="round"><g transform="translate(416.07142857142026 10) rotate(0 -0.714285714284415 117.14285714285688)"><path d="M0 0 C-0.38 62.72, -0.76 125.44, -1.43 234.29" stroke="#495057" stroke-width="1.5" fill="none" stroke-dasharray="1.5 7"></path></g></g><g stroke-linecap="round"><g transform="translate(296.07142857142026 131.42857142857065) rotate(0 114.28571428571377 -4.547473508864641e-13)"><path d="M0 0 C88.01 0, 176.03 0, 228.57 0" stroke="#495057" stroke-width="1.5" fill="none" stroke-dasharray="1.5 7"></path></g></g><g stroke-linecap="round"><g transform="translate(674.2142857142826 135) rotate(0 112.85714285714312 0.7142857142853245)"><path d="M0 0 C68.47 0.43, 136.94 0.87, 225.71 1.43" stroke="#495057" stroke-width="1.5" fill="none" stroke-dasharray="1.5 7"></path></g></g><g stroke-linecap="round"><g transform="translate(1072.0714285714203 16.42857142857065) rotate(0 0.714285714286234 115.00000000000045)"><path d="M0 0 C0.49 78.55, 0.98 157.1, 1.43 230" stroke="#495057" stroke-width="1.5" fill="none" stroke-dasharray="1.5 7"></path></g></g><g stroke-linecap="round"><g transform="translate(961.3571428571377 129.28571428571377) rotate(0 112.85714285714312 0.7142857142853245)"><path d="M0 0 C87.48 0.55, 174.97 1.11, 225.71 1.43" stroke="#495057" stroke-width="1.5" fill="none" stroke-dasharray="1.5 7"></path></g></g><g stroke-linecap="round" transform="translate(676.7142857142753 462.14285714285506) rotate(0 115 120)"><path d="M0 0 C69.84 0, 139.68 0, 230 0 M230 0 C230 62.25, 230 124.49, 230 240 M230 240 C145.72 240, 61.44 240, 0 240 M0 240 C0 165.95, 0 91.9, 0 0" stroke="#495057" stroke-width="1.5" fill="none" stroke-dasharray="1.5 7"></path></g><g stroke-linecap="round" transform="translate(964.5714285714203 460.7142857142844) rotate(0 115 120)"><path d="M0 0 C62.81 0, 125.62 0, 230 0 M230 0 C230 81.27, 230 162.54, 230 240 M230 240 C165.16 240, 100.31 240, 0 240 M0 240 C0 168.02, 0 96.03, 0 0" stroke="#495057" stroke-width="1.5" fill="none" stroke-dasharray="1.5 7"></path></g><g stroke-linecap="round" transform="translate(1006.7142857142753 613.5714285714266) rotate(0 77.14285714285688 30.71428571428578)"><path d="M0 0 L154.29 0 L154.29 61.43 L0 61.43" stroke="none" stroke-width="0" fill="#4c6ef5"></path><path d="M0 0 C57.3 0, 114.6 0, 154.29 0 M0 0 C45.14 0, 90.28 0, 154.29 0 M154.29 0 C154.29 16.26, 154.29 32.53, 154.29 61.43 M154.29 0 C154.29 20.55, 154.29 41.1, 154.29 61.43 M154.29 61.43 C114.93 61.43, 75.57 61.43, 0 61.43 M154.29 61.43 C111.55 61.43, 68.82 61.43, 0 61.43 M0 61.43 C0 47.47, 0 33.52, 0 0 M0 61.43 C0 49.06, 0 36.7, 0 0" stroke="#000000" stroke-width="1" fill="none"></path></g><g transform="translate(654.6428571428478 718.2857142857138) rotate(0 139 23)"><text x="139" y="32" font-family="Virgil, Segoe UI Emoji" font-size="36px" fill="#000000" text-anchor="middle" style="white-space: pre;" direction="ltr">translate(y=75)</text></g><g transform="translate(935.9285714285652 715.5714285714312) rotate(0 146 23)"><text x="146" y="32" font-family="Virgil, Segoe UI Emoji" font-size="36px" fill="#000000" text-anchor="middle" style="white-space: pre;" direction="ltr">translate(y=-75)</text></g><g stroke-linecap="round"><g transform="translate(791.3571428571304 468.57142857142753) rotate(0 0.714285714286234 115.00000000000045)"><path d="M0 0 C0.57 91.66, 1.14 183.32, 1.43 230" stroke="#495057" stroke-width="1.5" fill="none" stroke-dasharray="1.5 7"></path></g></g><g stroke-linecap="round"><g transform="translate(681.3571428571304 585) rotate(0 112.85714285714312 0.7142857142853245)"><path d="M0 0 C76.91 0.49, 153.81 0.97, 225.71 1.43" stroke="#495057" stroke-width="1.5" fill="none" stroke-dasharray="1.5 7"></path></g></g><g stroke-linecap="round"><g transform="translate(1079.2142857142753 466.42857142857247) rotate(0 0.714285714286234 115.00000000000045)"><path d="M0 0 C0.57 91.84, 1.14 183.67, 1.43 230" stroke="#495057" stroke-width="1.5" fill="none" stroke-dasharray="1.5 7"></path></g></g><g stroke-linecap="round"><g transform="translate(968.4999999999854 579.2857142857138) rotate(0 112.85714285714312 0.7142857142853245)"><path d="M0 0 C60.92 0.39, 121.83 0.77, 225.71 1.43" stroke="#495057" stroke-width="1.5" fill="none" stroke-dasharray="1.5 7"></path></g></g><g stroke-linecap="round"><g transform="translate(564.2142857142899 581.1428571428569) rotate(0 -31.42857142857065 4.547473508864641e-13)"><path d="M0 0 C-23.61 0, -47.21 0, -62.86 0 M0 0 C-18.49 0, -36.97 0, -62.86 0" stroke="#000000" stroke-width="4" fill="none"></path></g><g transform="translate(564.2142857142899 581.1428571428569) rotate(0 -31.42857142857065 4.547473508864641e-13)"><path d="M-34.67 -10.26 C-45.25 -6.41, -55.84 -2.55, -62.86 0 M-34.67 -10.26 C-42.96 -7.24, -51.25 -4.23, -62.86 0" stroke="#000000" stroke-width="4" fill="none"></path></g><g transform="translate(564.2142857142899 581.1428571428569) rotate(0 -31.42857142857065 4.547473508864641e-13)"><path d="M-34.67 10.26 C-45.25 6.41, -55.84 2.55, -62.86 0 M-34.67 10.26 C-42.96 7.24, -51.25 4.23, -62.86 0" stroke="#000000" stroke-width="4" fill="none"></path></g></g><g stroke-linecap="round" transform="translate(156.1785714285652 458.9999999999982) rotate(0 115 120)"><path d="M0 0 C59.65 0, 119.31 0, 230 0 M230 0 C230 87.94, 230 175.88, 230 240 M230 240 C159.03 240, 88.07 240, 0 240 M0 240 C0 155.57, 0 71.14, 0 0" stroke="#495057" stroke-width="1.5" fill="none" stroke-dasharray="1.5 7"></path></g><g stroke-linecap="round" transform="translate(183.3214285714348 494.7142857142844) rotate(0 85.71428571428805 28.571428571428896)"><path d="M85.71 0 C98.55 -0.42, 114.36 1.27, 126.26 3.4 C138.17 5.53, 149.7 9.03, 157.16 12.79 C164.63 16.54, 169.81 21.45, 171.06 25.93 C172.31 30.42, 169.92 35.56, 164.65 39.71 C159.38 43.86, 149.99 48, 139.46 50.83 C128.93 53.65, 114.76 55.83, 101.47 56.66 C88.19 57.48, 72.62 57.16, 59.74 55.8 C46.86 54.43, 33.6 51.7, 24.19 48.46 C14.78 45.23, 6.98 40.73, 3.28 36.39 C-0.43 32.06, -0.91 26.87, 1.98 22.46 C4.87 18.06, 11.82 13.41, 20.61 9.99 C29.4 6.56, 43.88 3.6, 54.73 1.93 C65.58 0.27, 80.55 0.23, 85.71 0 C90.88 -0.23, 85.71 0.1, 85.71 0.57 M85.71 0 C98.55 -0.42, 114.36 1.27, 126.26 3.4 C138.17 5.53, 149.7 9.03, 157.16 12.79 C164.63 16.54, 169.81 21.45, 171.06 25.93 C172.31 30.42, 169.92 35.56, 164.65 39.71 C159.38 43.86, 149.99 48, 139.46 50.83 C128.93 53.65, 114.76 55.83, 101.47 56.66 C88.19 57.48, 72.62 57.16, 59.74 55.8 C46.86 54.43, 33.6 51.7, 24.19 48.46 C14.78 45.23, 6.98 40.73, 3.28 36.39 C-0.43 32.06, -0.91 26.87, 1.98 22.46 C4.87 18.06, 11.82 13.41, 20.61 9.99 C29.4 6.56, 43.88 3.6, 54.73 1.93 C65.58 0.27, 80.55 0.23, 85.71 0 C90.88 -0.23, 85.71 0.1, 85.71 0.57" stroke="none" stroke-width="0" fill="#fa5252"></path><path d="M85.71 0 C98.55 -0.42, 114.36 1.27, 126.26 3.4 C138.17 5.53, 149.7 9.03, 157.16 12.79 C164.63 16.54, 169.81 21.45, 171.06 25.93 C172.31 30.42, 169.92 35.56, 164.65 39.71 C159.38 43.86, 149.99 48, 139.46 50.83 C128.93 53.65, 114.76 55.83, 101.47 56.66 C88.19 57.48, 72.62 57.16, 59.74 55.8 C46.86 54.43, 33.6 51.7, 24.19 48.46 C14.78 45.23, 6.98 40.73, 3.28 36.39 C-0.43 32.06, -0.91 26.87, 1.98 22.46 C4.87 18.06, 11.82 13.41, 20.61 9.99 C29.4 6.56, 43.88 3.6, 54.73 1.93 C65.58 0.27, 80.55 0.23, 85.71 0 C90.88 -0.23, 85.71 0.1, 85.71 0.57 M85.71 0 C98.55 -0.42, 114.36 1.27, 126.26 3.4 C138.17 5.53, 149.7 9.03, 157.16 12.79 C164.63 16.54, 169.81 21.45, 171.06 25.93 C172.31 30.42, 169.92 35.56, 164.65 39.71 C159.38 43.86, 149.99 48, 139.46 50.83 C128.93 53.65, 114.76 55.83, 101.47 56.66 C88.19 57.48, 72.62 57.16, 59.74 55.8 C46.86 54.43, 33.6 51.7, 24.19 48.46 C14.78 45.23, 6.98 40.73, 3.28 36.39 C-0.43 32.06, -0.91 26.87, 1.98 22.46 C4.87 18.06, 11.82 13.41, 20.61 9.99 C29.4 6.56, 43.88 3.6, 54.73 1.93 C65.58 0.27, 80.55 0.23, 85.71 0 C90.88 -0.23, 85.71 0.1, 85.71 0.57" stroke="#000000" stroke-width="1" fill="none"></path></g><g stroke-linecap="round"><g transform="translate(270.82142857142026 465.42857142857065) rotate(0 0.714285714286234 115.00000000000045)"><path d="M0 0 C0.5 80.39, 1 160.77, 1.43 230" stroke="#495057" stroke-width="1.5" fill="none" stroke-dasharray="1.5 7"></path></g></g><g stroke-linecap="round"><g transform="translate(160.82142857142026 581.8571428571431) rotate(0 112.85714285714312 0.7142857142853245)"><path d="M0 0 C66.04 0.42, 132.07 0.84, 225.71 1.43" stroke="#495057" stroke-width="1.5" fill="none" stroke-dasharray="1.5 7"></path></g></g><g stroke-linecap="round"><g transform="translate(684.2142857142826 430) rotate(0 109.28571428571377 0.7142857142857792)"><path d="M0 0 C58.68 0.38, 117.36 0.77, 218.57 1.43 M0 0 C82.95 0.54, 165.9 1.08, 218.57 1.43" stroke="#343a40" stroke-width="1" fill="none"></path></g><g transform="translate(684.2142857142826 430) rotate(0 109.28571428571377 0.7142857142857792)"><path d="M28.26 -10.08 C20.67 -7.37, 13.09 -4.67, 0 0 M28.26 -10.08 C17.53 -6.25, 6.81 -2.43, 0 0" stroke="#343a40" stroke-width="1" fill="none"></path></g><g transform="translate(684.2142857142826 430) rotate(0 109.28571428571377 0.7142857142857792)"><path d="M28.12 10.44 C20.57 7.64, 13.02 4.84, 0 0 M28.12 10.44 C17.45 6.48, 6.78 2.52, 0 0" stroke="#343a40" stroke-width="1" fill="none"></path></g><g transform="translate(684.2142857142826 430) rotate(0 109.28571428571377 0.7142857142857792)"><path d="M190.31 11.5 C197.9 8.8, 205.49 6.09, 218.57 1.43 M190.31 11.5 C201.04 7.68, 211.76 3.86, 218.57 1.43" stroke="#343a40" stroke-width="1" fill="none"></path></g><g transform="translate(684.2142857142826 430) rotate(0 109.28571428571377 0.7142857142857792)"><path d="M190.45 -9.02 C198 -6.21, 205.55 -3.41, 218.57 1.43 M190.45 -9.02 C201.12 -5.05, 211.79 -1.09, 218.57 1.43" stroke="#343a40" stroke-width="1" fill="none"></path></g></g><g transform="translate(772.7857142857101 388.92857142857065) rotate(0 29 18)"><text x="0" y="25" font-family="Virgil, Segoe UI Emoji" font-size="28px" fill="#343a40" text-anchor="start" style="white-space: pre;" direction="ltr">300</text></g><g stroke-linecap="round"><g transform="translate(966.3571428571377 435.53571428571377) rotate(0 109.28571428571377 0.7142857142857792)"><path d="M0 0 C56.57 0.37, 113.15 0.74, 218.57 1.43 M0 0 C71.07 0.46, 142.13 0.93, 218.57 1.43" stroke="#343a40" stroke-width="1" fill="none"></path></g><g transform="translate(966.3571428571377 435.53571428571377) rotate(0 109.28571428571377 0.7142857142857792)"><path d="M28.26 -10.08 C20.94 -7.47, 13.63 -4.86, 0 0 M28.26 -10.08 C19.07 -6.8, 9.88 -3.52, 0 0" stroke="#343a40" stroke-width="1" fill="none"></path></g><g transform="translate(966.3571428571377 435.53571428571377) rotate(0 109.28571428571377 0.7142857142857792)"><path d="M28.12 10.44 C20.84 7.74, 13.56 5.04, 0 0 M28.12 10.44 C18.98 7.05, 9.84 3.65, 0 0" stroke="#343a40" stroke-width="1" fill="none"></path></g><g transform="translate(966.3571428571377 435.53571428571377) rotate(0 109.28571428571377 0.7142857142857792)"><path d="M190.31 11.5 C197.63 8.9, 204.94 6.29, 218.57 1.43 M190.31 11.5 C199.5 8.23, 208.69 4.95, 218.57 1.43" stroke="#343a40" stroke-width="1" fill="none"></path></g><g transform="translate(966.3571428571377 435.53571428571377) rotate(0 109.28571428571377 0.7142857142857792)"><path d="M190.45 -9.02 C197.73 -6.31, 205.01 -3.61, 218.57 1.43 M190.45 -9.02 C199.59 -5.62, 208.74 -2.22, 218.57 1.43" stroke="#343a40" stroke-width="1" fill="none"></path></g></g><g transform="translate(1054.9285714285652 394.46428571428623) rotate(0 29 18)"><text x="0" y="25" font-family="Virgil, Segoe UI Emoji" font-size="28px" fill="#343a40" text-anchor="start" style="white-space: pre;" direction="ltr">300</text></g><g stroke-linecap="round"><g transform="translate(886.0543686160127 586.1866769898843) rotate(0 -0.2057557365787943 -21.664767066372406)"><path d="M0 0 C-0.1 -10.92, -0.21 -21.84, -0.41 -43.33 M0 0 C-0.16 -16.39, -0.31 -32.77, -0.41 -43.33" stroke="#343a40" stroke-width="1" fill="none"></path></g><g transform="translate(886.0543686160127 586.1866769898843) rotate(0 -0.2057557365787943 -21.664767066372406)"><path d="M-15 0.14 C-11.22 0.11, -7.44 0.07, 0 0 M-15 0.14 C-9.33 0.09, -3.65 0.03, 0 0" stroke="#343a40" stroke-width="1" fill="none"></path></g><g transform="translate(886.0543686160127 586.1866769898843) rotate(0 -0.2057557365787943 -21.664767066372406)"><path d="M15 -0.14 C11.22 -0.11, 7.44 -0.07, 0 0 M15 -0.14 C9.33 -0.09, 3.65 -0.03, 0 0" stroke="#343a40" stroke-width="1" fill="none"></path></g><g transform="translate(886.0543686160127 586.1866769898843) rotate(0 -0.2057557365787943 -21.664767066372406)"><path d="M7.19 -23.04 C5.28 -28.15, 3.36 -33.27, -0.41 -43.33 M7.19 -23.04 C4.32 -30.71, 1.44 -38.39, -0.41 -43.33" stroke="#343a40" stroke-width="1" fill="none"></path></g><g transform="translate(886.0543686160127 586.1866769898843) rotate(0 -0.2057557365787943 -21.664767066372406)"><path d="M-7.63 -22.9 C-5.81 -28.05, -3.99 -33.2, -0.41 -43.33 M-7.63 -22.9 C-4.9 -30.63, -2.17 -38.35, -0.41 -43.33" stroke="#343a40" stroke-width="1" fill="none"></path></g></g><g transform="translate(1152.428571428576 531.2857142857138) rotate(0 22 18)"><text x="22" y="25" font-family="Virgil, Segoe UI Emoji" font-size="28px" fill="#343a40" text-anchor="middle" style="white-space: pre;" direction="ltr">-75</text></g><g transform="translate(866.9999999999927 602.7142857142826) rotate(0 16 18)"><text x="16" y="25" font-family="Virgil, Segoe UI Emoji" font-size="28px" fill="#343a40" text-anchor="middle" style="white-space: pre;" direction="ltr">75</text></g><g stroke-linecap="round"><g transform="translate(1182.4200414508632 581.5255476585762) rotate(0 0.3656728348505567 22.947980500679932)"><path d="M0 0 C0.21 12.94, 0.41 25.88, 0.73 45.9 M0 0 C0.22 13.77, 0.44 27.53, 0.73 45.9" stroke="#343a40" stroke-width="1" fill="none"></path></g><g transform="translate(1182.4200414508632 581.5255476585762) rotate(0 0.3656728348505567 22.947980500679932)"><path d="M15 -0.24 C10.77 -0.17, 6.54 -0.1, 0 0 M15 -0.24 C10.5 -0.17, 6 -0.1, 0 0" stroke="#343a40" stroke-width="1" fill="none"></path></g><g transform="translate(1182.4200414508632 581.5255476585762) rotate(0 0.3656728348505567 22.947980500679932)"><path d="M-15 0.24 C-10.77 0.17, -6.54 0.1, 0 0 M-15 0.24 C-10.5 0.17, -6 0.1, 0 0" stroke="#343a40" stroke-width="1" fill="none"></path></g><g transform="translate(1182.4200414508632 581.5255476585762) rotate(0 0.3656728348505567 22.947980500679932)"><path d="M-7.46 24.46 C-5.15 30.5, -2.84 36.55, 0.73 45.9 M-7.46 24.46 C-5 30.89, -2.55 37.32, 0.73 45.9" stroke="#343a40" stroke-width="1" fill="none"></path></g><g transform="translate(1182.4200414508632 581.5255476585762) rotate(0 0.3656728348505567 22.947980500679932)"><path d="M8.24 24.21 C6.12 30.32, 4 36.44, 0.73 45.9 M8.24 24.21 C5.99 30.71, 3.73 37.22, 0.73 45.9" stroke="#343a40" stroke-width="1" fill="none"></path></g></g></svg>