<svg version="1.1" xmlns="http://www.w3.org/2000/svg" viewBox="0 0 992.1428571428587 334.28571428571377" width="1984.2857142857174" height="668.5714285714275">
  <!-- svg-source:excalidraw -->
  
  <defs>
    <style>
      @font-face {
        font-family: "Virgil";
        src: url("https://excalidraw.com/Virgil.woff2");
      }
      @font-face {
        font-family: "Cascadia";
        src: url("https://excalidraw.com/Cascadia.woff2");
      }
    </style>
  </defs>
  <g stroke-linecap="round" transform="translate(10 10) rotate(0 115 120)"><path d="M0 0 C52.25 0, 104.51 0, 230 0 M230 0 C230 92.89, 230 185.78, 230 240 M230 240 C159.42 240, 88.84 240, 0 240 M0 240 C0 157.84, 0 75.68, 0 0" stroke="#495057" stroke-width="1.5" fill="none" stroke-dasharray="1.5 7"></path></g><g stroke-linecap="round" transform="translate(332.1428571428587 14.28571428571513) rotate(0 115 120)"><path d="M0 0 C63.37 0, 126.73 0, 230 0 M230 0 C230 87.71, 230 175.41, 230 240 M230 240 C177.07 240, 124.14 240, 0 240 M0 240 C0 179.09, 0 118.19, 0 0" stroke="#495057" stroke-width="1.5" fill="none" stroke-dasharray="1.5 7"></path></g><g stroke-linecap="round" transform="translate(51.428571428576106 52.85714285714312) rotate(0 72.85714285714312 77.85714285714289)"><path d="M72.86 0 C82.97 -1.17, 95.22 2.89, 104.78 7.87 C114.35 12.86, 123.7 20.94, 130.25 29.9 C136.81 38.86, 141.9 50.51, 144.11 61.63 C146.33 72.75, 146.13 85.6, 143.56 96.64 C141 107.68, 135.54 119.13, 128.71 127.85 C121.88 136.57, 112.28 144.31, 102.56 148.95 C92.84 153.59, 81.04 156.05, 70.4 155.67 C59.77 155.29, 48.15 151.98, 38.74 146.65 C29.34 141.33, 20.25 132.91, 13.98 123.72 C7.71 114.53, 3 102.71, 1.13 91.51 C-0.74 80.32, -0.13 67.48, 2.78 56.54 C5.7 45.6, 11.51 34.35, 18.61 25.88 C25.71 17.42, 36.37 10.05, 45.41 5.74 C54.45 1.42, 68.28 0.7, 72.86 0 C77.43 -0.7, 72.86 0.26, 72.86 1.56 M72.86 0 C82.97 -1.17, 95.22 2.89, 104.78 7.87 C114.35 12.86, 123.7 20.94, 130.25 29.9 C136.81 38.86, 141.9 50.51, 144.11 61.63 C146.33 72.75, 146.13 85.6, 143.56 96.64 C141 107.68, 135.54 119.13, 128.71 127.85 C121.88 136.57, 112.28 144.31, 102.56 148.95 C92.84 153.59, 81.04 156.05, 70.4 155.67 C59.77 155.29, 48.15 151.98, 38.74 146.65 C29.34 141.33, 20.25 132.91, 13.98 123.72 C7.71 114.53, 3 102.71, 1.13 91.51 C-0.74 80.32, -0.13 67.48, 2.78 56.54 C5.7 45.6, 11.51 34.35, 18.61 25.88 C25.71 17.42, 36.37 10.05, 45.41 5.74 C54.45 1.42, 68.28 0.7, 72.86 0 C77.43 -0.7, 72.86 0.26, 72.86 1.56" stroke="none" stroke-width="0" fill="#fa5252"></path><path d="M72.86 0 C82.97 -1.17, 95.22 2.89, 104.78 7.87 C114.35 12.86, 123.7 20.94, 130.25 29.9 C136.81 38.86, 141.9 50.51, 144.11 61.63 C146.33 72.75, 146.13 85.6, 143.56 96.64 C141 107.68, 135.54 119.13, 128.71 127.85 C121.88 136.57, 112.28 144.31, 102.56 148.95 C92.84 153.59, 81.04 156.05, 70.4 155.67 C59.77 155.29, 48.15 151.98, 38.74 146.65 C29.34 141.33, 20.25 132.91, 13.98 123.72 C7.71 114.53, 3 102.71, 1.13 91.51 C-0.74 80.32, -0.13 67.48, 2.78 56.54 C5.7 45.6, 11.51 34.35, 18.61 25.88 C25.71 17.42, 36.37 10.05, 45.41 5.74 C54.45 1.42, 68.28 0.7, 72.86 0 C77.43 -0.7, 72.86 0.26, 72.86 1.56 M72.86 0 C82.97 -1.17, 95.22 2.89, 104.78 7.87 C114.35 12.86, 123.7 20.94, 130.25 29.9 C136.81 38.86, 141.9 50.51, 144.11 61.63 C146.33 72.75, 146.13 85.6, 143.56 96.64 C141 107.68, 135.54 119.13, 128.71 127.85 C121.88 136.57, 112.28 144.31, 102.56 148.95 C92.84 153.59, 81.04 156.05, 70.4 155.67 C59.77 155.29, 48.15 151.98, 38.74 146.65 C29.34 141.33, 20.25 132.91, 13.98 123.72 C7.71 114.53, 3 102.71, 1.13 91.51 C-0.74 80.32, -0.13 67.48, 2.78 56.54 C5.7 45.6, 11.51 34.35, 18.61 25.88 C25.71 17.42, 36.37 10.05, 45.41 5.74 C54.45 1.42, 68.28 0.7, 72.86 0 C77.43 -0.7, 72.86 0.26, 72.86 1.56" stroke="#000000" stroke-width="1" fill="none"></path></g><g stroke-linecap="round" transform="translate(372.85714285714494 62.85714285714266) rotate(0 73.57142857142753 71.42857142857156)"><path d="M0 0 L147.14 0 L147.14 142.86 L0 142.86" stroke="none" stroke-width="0" fill="#4c6ef5"></path><path d="M0 0 C53.58 0, 107.15 0, 147.14 0 M0 0 C45.27 0, 90.54 0, 147.14 0 M147.14 0 C147.14 45.72, 147.14 91.43, 147.14 142.86 M147.14 0 C147.14 33.78, 147.14 67.56, 147.14 142.86 M147.14 142.86 C89.16 142.86, 31.17 142.86, 0 142.86 M147.14 142.86 C115.89 142.86, 84.63 142.86, 0 142.86 M0 142.86 C0 86.4, 0 29.95, 0 0 M0 142.86 C0 108.43, 0 74.01, 0 0" stroke="#000000" stroke-width="1" fill="none"></path></g><g transform="translate(108.57142857143117 270.99999999999955) rotate(0 12 23)"><text x="0" y="32" font-family="Virgil, Segoe UI Emoji" font-size="36px" fill="#000000" text-anchor="start" style="white-space: pre;" direction="ltr">a</text></g><g transform="translate(437.1428571428587 278.28571428571377) rotate(0 9 23)"><text x="0" y="32" font-family="Virgil, Segoe UI Emoji" font-size="36px" fill="#000000" text-anchor="start" style="white-space: pre;" direction="ltr">b</text></g><g stroke-linecap="round" transform="translate(752.1428571428587 17.14285714285643) rotate(0 115 120)"><path d="M0 0 C48.15 0, 96.31 0, 230 0 M230 0 C230 62.83, 230 125.66, 230 240 M230 240 C149.26 240, 68.52 240, 0 240 M0 240 C0 185.07, 0 130.14, 0 0" stroke="#495057" stroke-width="1.5" fill="none" stroke-dasharray="1.5 7"></path></g><g transform="translate(765.2857142857138 275.5714285714271) rotate(0 101 23)"><text x="0" y="32" font-family="Virgil, Segoe UI Emoji" font-size="36px" fill="#000000" text-anchor="start" style="white-space: pre;" direction="ltr">beside(a, b)</text></g><g stroke-linecap="round" transform="translate(771.4285714285761 56.42857142857201) rotate(0 41.42857142857247 81.42857142857156)"><path d="M41.43 0 C47.6 -1.2, 55.19 3.57, 60.93 9.58 C66.66 15.6, 72.22 25.47, 75.84 36.08 C79.46 46.69, 81.99 60.54, 82.65 73.25 C83.3 85.96, 82.22 100.52, 79.76 112.34 C77.29 124.16, 72.85 136.01, 67.84 144.16 C62.84 152.3, 56.08 158.66, 49.71 161.21 C43.34 163.77, 35.86 163.12, 29.63 159.49 C23.4 155.85, 16.95 148.36, 12.33 139.39 C7.7 130.41, 3.81 117.84, 1.87 105.64 C-0.06 93.45, -0.48 78.75, 0.73 66.2 C1.95 53.65, 5.09 40.29, 9.17 30.35 C13.24 20.4, 19.82 11.57, 25.2 6.51 C30.57 1.45, 38.72 0.81, 41.43 0 C44.13 -0.81, 41.43 0.27, 41.43 1.63 M41.43 0 C47.6 -1.2, 55.19 3.57, 60.93 9.58 C66.66 15.6, 72.22 25.47, 75.84 36.08 C79.46 46.69, 81.99 60.54, 82.65 73.25 C83.3 85.96, 82.22 100.52, 79.76 112.34 C77.29 124.16, 72.85 136.01, 67.84 144.16 C62.84 152.3, 56.08 158.66, 49.71 161.21 C43.34 163.77, 35.86 163.12, 29.63 159.49 C23.4 155.85, 16.95 148.36, 12.33 139.39 C7.7 130.41, 3.81 117.84, 1.87 105.64 C-0.06 93.45, -0.48 78.75, 0.73 66.2 C1.95 53.65, 5.09 40.29, 9.17 30.35 C13.24 20.4, 19.82 11.57, 25.2 6.51 C30.57 1.45, 38.72 0.81, 41.43 0 C44.13 -0.81, 41.43 0.27, 41.43 1.63" stroke="none" stroke-width="0" fill="#fa5252"></path><path d="M41.43 0 C47.6 -1.2, 55.19 3.57, 60.93 9.58 C66.66 15.6, 72.22 25.47, 75.84 36.08 C79.46 46.69, 81.99 60.54, 82.65 73.25 C83.3 85.96, 82.22 100.52, 79.76 112.34 C77.29 124.16, 72.85 136.01, 67.84 144.16 C62.84 152.3, 56.08 158.66, 49.71 161.21 C43.34 163.77, 35.86 163.12, 29.63 159.49 C23.4 155.85, 16.95 148.36, 12.33 139.39 C7.7 130.41, 3.81 117.84, 1.87 105.64 C-0.06 93.45, -0.48 78.75, 0.73 66.2 C1.95 53.65, 5.09 40.29, 9.17 30.35 C13.24 20.4, 19.82 11.57, 25.2 6.51 C30.57 1.45, 38.72 0.81, 41.43 0 C44.13 -0.81, 41.43 0.27, 41.43 1.63 M41.43 0 C47.6 -1.2, 55.19 3.57, 60.93 9.58 C66.66 15.6, 72.22 25.47, 75.84 36.08 C79.46 46.69, 81.99 60.54, 82.65 73.25 C83.3 85.96, 82.22 100.52, 79.76 112.34 C77.29 124.16, 72.85 136.01, 67.84 144.16 C62.84 152.3, 56.08 158.66, 49.71 161.21 C43.34 163.77, 35.86 163.12, 29.63 159.49 C23.4 155.85, 16.95 148.36, 12.33 139.39 C7.7 130.41, 3.81 117.84, 1.87 105.64 C-0.06 93.45, -0.48 78.75, 0.73 66.2 C1.95 53.65, 5.09 40.29, 9.17 30.35 C13.24 20.4, 19.82 11.57, 25.2 6.51 C30.57 1.45, 38.72 0.81, 41.43 0 C44.13 -0.81, 41.43 0.27, 41.43 1.63" stroke="#000000" stroke-width="1" fill="none"></path></g><g stroke-linecap="round" transform="translate(896.4285714285797 61.42857142856883) rotate(0 33.57142857142753 75.71428571428623)"><path d="M0 0 L67.14 0 L67.14 151.43 L0 151.43" stroke="none" stroke-width="0" fill="#4c6ef5"></path><path d="M0 0 C18.61 0, 37.22 0, 67.14 0 M0 0 C21.38 0, 42.76 0, 67.14 0 M67.14 0 C67.14 48.38, 67.14 96.76, 67.14 151.43 M67.14 0 C67.14 43.67, 67.14 87.34, 67.14 151.43 M67.14 151.43 C50.51 151.43, 33.88 151.43, 0 151.43 M67.14 151.43 C45.14 151.43, 23.13 151.43, 0 151.43 M0 151.43 C0 102.19, 0 52.95, 0 0 M0 151.43 C0 107.82, 0 64.22, 0 0" stroke="#000000" stroke-width="1" fill="none"></path></g><g stroke-linecap="round"><g transform="translate(591.4285714285688 128.10404169817912) rotate(0 68.57142857142935 1.1929378269651352)"><path d="M0 0 C35.91 0.62, 71.81 1.25, 137.14 2.39 M0 0 C49.85 0.87, 99.7 1.73, 137.14 2.39" stroke="#000000" stroke-width="4" fill="none"></path></g><g transform="translate(591.4285714285688 128.10404169817912) rotate(0 68.57142857142935 1.1929378269651352)"><path d="M108.78 12.15 C116.2 9.6, 123.63 7.04, 137.14 2.39 M108.78 12.15 C119.09 8.6, 129.4 5.05, 137.14 2.39" stroke="#000000" stroke-width="4" fill="none"></path></g><g transform="translate(591.4285714285688 128.10404169817912) rotate(0 68.57142857142935 1.1929378269651352)"><path d="M109.13 -8.36 C116.47 -5.55, 123.8 -2.73, 137.14 2.39 M109.13 -8.36 C119.32 -4.46, 129.5 -0.55, 137.14 2.39" stroke="#000000" stroke-width="4" fill="none"></path></g></g><g stroke-linecap="round"><g transform="translate(126.3019891501026 13.571428571430715) rotate(0 -0.6826401446651289 116.7314647377932)"><path d="M0 0 C-0.28 47.68, -0.56 95.36, -1.37 233.46" stroke="#495057" stroke-width="1.5" fill="none" stroke-dasharray="1.5 7"></path></g></g><g stroke-linecap="round"><g transform="translate(15.714285714268044 129.62025316456084) rotate(0 107.85714285714312 0.6826401446651289)"><path d="M0 0 C86.03 0.54, 172.07 1.09, 215.71 1.37" stroke="#495057" stroke-width="1.5" fill="none" stroke-dasharray="1.5 7"></path></g></g><g stroke-linecap="round"><g transform="translate(448.4448462929613 17.55424954792352) rotate(0 -0.6826401446651289 116.7314647377932)"><path d="M0 0 C-0.47 80.61, -0.94 161.22, -1.37 233.46" stroke="#495057" stroke-width="1.5" fill="none" stroke-dasharray="1.5 7"></path></g></g><g stroke-linecap="round"><g transform="translate(337.85714285712675 133.60307414105364) rotate(0 107.85714285714312 0.6826401446651289)"><path d="M0 0 C68.01 0.43, 136.01 0.86, 215.71 1.37" stroke="#495057" stroke-width="1.5" fill="none" stroke-dasharray="1.5 7"></path></g></g><g stroke-linecap="round"><g transform="translate(872.7305605786751 21.83996383363774) rotate(0 -0.6826401446651289 116.7314647377932)"><path d="M0 0 C-0.37 62.75, -0.73 125.5, -1.37 233.46" stroke="#495057" stroke-width="1.5" fill="none" stroke-dasharray="1.5 7"></path></g></g><g stroke-linecap="round"><g transform="translate(762.1428571428405 137.88878842676786) rotate(0 107.85714285714312 0.6826401446651289)"><path d="M0 0 C57.59 0.36, 115.18 0.73, 215.71 1.37" stroke="#495057" stroke-width="1.5" fill="none" stroke-dasharray="1.5 7"></path></g></g></svg>