<svg version="1.1" xmlns="http://www.w3.org/2000/svg" viewBox="0 0 1232.4285714285616 774.2857142857156" width="2464.857142857123" height="1548.5714285714312">
  <!-- svg-source:excalidraw -->
  
  <defs>
    <style>
      @font-face {
        font-family: "Virgil";
        src: url("https://excalidraw.com/Virgil.woff2");
      }
      @font-face {
        font-family: "Cascadia";
        src: url("https://excalidraw.com/Cascadia.woff2");
      }
    </style>
  </defs>
  <g stroke-linecap="round" transform="translate(10 12.214285714286234) rotate(0 115 120)"><path d="M0 0 C88.71 0, 177.42 0, 230 0 M230 0 C230 60.2, 230 120.4, 230 240 M230 240 C175.97 240, 121.94 240, 0 240 M0 240 C0 151.4, 0 62.81, 0 0" stroke="#495057" stroke-width="1.5" fill="none" stroke-dasharray="1.5 7"></path></g><g stroke-linecap="round" transform="translate(294.99999999999636 10.785714285716494) rotate(0 115 120)"><path d="M0 0 C52.14 0, 104.27 0, 230 0 M230 0 C230 67.17, 230 134.33, 230 240 M230 240 C151.83 240, 73.66 240, 0 240 M0 240 C0 146.41, 0 52.81, 0 0" stroke="#495057" stroke-width="1.5" fill="none" stroke-dasharray="1.5 7"></path></g><g stroke-linecap="round" transform="translate(51.428571428579744 55.07142857142935) rotate(0 72.85714285714312 77.85714285714312)"><path d="M72.86 0 C82.97 -1.17, 95.22 2.89, 104.78 7.87 C114.35 12.86, 123.7 20.94, 130.25 29.9 C136.81 38.86, 141.9 50.51, 144.11 61.63 C146.33 72.75, 146.13 85.6, 143.56 96.64 C141 107.68, 135.54 119.13, 128.71 127.85 C121.88 136.57, 112.28 144.31, 102.56 148.95 C92.84 153.59, 81.04 156.05, 70.4 155.67 C59.77 155.29, 48.15 151.98, 38.74 146.65 C29.34 141.33, 20.25 132.91, 13.98 123.72 C7.71 114.53, 3 102.71, 1.13 91.51 C-0.74 80.32, -0.13 67.48, 2.78 56.54 C5.7 45.6, 11.51 34.35, 18.61 25.88 C25.71 17.42, 36.37 10.05, 45.41 5.74 C54.45 1.42, 68.28 0.7, 72.86 0 C77.43 -0.7, 72.86 0.26, 72.86 1.56 M72.86 0 C82.97 -1.17, 95.22 2.89, 104.78 7.87 C114.35 12.86, 123.7 20.94, 130.25 29.9 C136.81 38.86, 141.9 50.51, 144.11 61.63 C146.33 72.75, 146.13 85.6, 143.56 96.64 C141 107.68, 135.54 119.13, 128.71 127.85 C121.88 136.57, 112.28 144.31, 102.56 148.95 C92.84 153.59, 81.04 156.05, 70.4 155.67 C59.77 155.29, 48.15 151.98, 38.74 146.65 C29.34 141.33, 20.25 132.91, 13.98 123.72 C7.71 114.53, 3 102.71, 1.13 91.51 C-0.74 80.32, -0.13 67.48, 2.78 56.54 C5.7 45.6, 11.51 34.35, 18.61 25.88 C25.71 17.42, 36.37 10.05, 45.41 5.74 C54.45 1.42, 68.28 0.7, 72.86 0 C77.43 -0.7, 72.86 0.26, 72.86 1.56" stroke="none" stroke-width="0" fill="#fa5252"></path><path d="M72.86 0 C82.97 -1.17, 95.22 2.89, 104.78 7.87 C114.35 12.86, 123.7 20.94, 130.25 29.9 C136.81 38.86, 141.9 50.51, 144.11 61.63 C146.33 72.75, 146.13 85.6, 143.56 96.64 C141 107.68, 135.54 119.13, 128.71 127.85 C121.88 136.57, 112.28 144.31, 102.56 148.95 C92.84 153.59, 81.04 156.05, 70.4 155.67 C59.77 155.29, 48.15 151.98, 38.74 146.65 C29.34 141.33, 20.25 132.91, 13.98 123.72 C7.71 114.53, 3 102.71, 1.13 91.51 C-0.74 80.32, -0.13 67.48, 2.78 56.54 C5.7 45.6, 11.51 34.35, 18.61 25.88 C25.71 17.42, 36.37 10.05, 45.41 5.74 C54.45 1.42, 68.28 0.7, 72.86 0 C77.43 -0.7, 72.86 0.26, 72.86 1.56 M72.86 0 C82.97 -1.17, 95.22 2.89, 104.78 7.87 C114.35 12.86, 123.7 20.94, 130.25 29.9 C136.81 38.86, 141.9 50.51, 144.11 61.63 C146.33 72.75, 146.13 85.6, 143.56 96.64 C141 107.68, 135.54 119.13, 128.71 127.85 C121.88 136.57, 112.28 144.31, 102.56 148.95 C92.84 153.59, 81.04 156.05, 70.4 155.67 C59.77 155.29, 48.15 151.98, 38.74 146.65 C29.34 141.33, 20.25 132.91, 13.98 123.72 C7.71 114.53, 3 102.71, 1.13 91.51 C-0.74 80.32, -0.13 67.48, 2.78 56.54 C5.7 45.6, 11.51 34.35, 18.61 25.88 C25.71 17.42, 36.37 10.05, 45.41 5.74 C54.45 1.42, 68.28 0.7, 72.86 0 C77.43 -0.7, 72.86 0.26, 72.86 1.56" stroke="#000000" stroke-width="1" fill="none"></path></g><g stroke-linecap="round" transform="translate(335.71428571428623 59.35714285714403) rotate(0 73.57142857142753 71.42857142857156)"><path d="M0 0 L147.14 0 L147.14 142.86 L0 142.86" stroke="none" stroke-width="0" fill="#4c6ef5"></path><path d="M0 0 C29.49 0, 58.98 0, 147.14 0 M0 0 C42.7 0, 85.4 0, 147.14 0 M147.14 0 C147.14 42.62, 147.14 85.23, 147.14 142.86 M147.14 0 C147.14 48.95, 147.14 97.89, 147.14 142.86 M147.14 142.86 C98.13 142.86, 49.11 142.86, 0 142.86 M147.14 142.86 C99.54 142.86, 51.94 142.86, 0 142.86 M0 142.86 C0 98.04, 0 53.23, 0 0 M0 142.86 C0 108.83, 0 74.81, 0 0" stroke="#000000" stroke-width="1" fill="none"></path></g><g stroke-linecap="round" transform="translate(669.5714285714275 12.142857142855064) rotate(0 115 120)"><path d="M0 0 C52.14 0, 104.28 0, 230 0 M230 0 C230 66.79, 230 133.58, 230 240 M230 240 C160.73 240, 91.45 240, 0 240 M0 240 C0 152.55, 0 65.1, 0 0" stroke="#495057" stroke-width="1.5" fill="none" stroke-dasharray="1.5 7"></path></g><g stroke-linecap="round" transform="translate(957.4285714285688 10.714285714284415) rotate(0 115 120)"><path d="M0 0 C91 0, 182.01 0, 230 0 M230 0 C230 79.85, 230 159.71, 230 240 M230 240 C141.95 240, 53.9 240, 0 240 M0 240 C0 158.2, 0 76.41, 0 0" stroke="#495057" stroke-width="1.5" fill="none" stroke-dasharray="1.5 7"></path></g><g stroke-linecap="round" transform="translate(752.4285714285761 54.99999999999818) rotate(0 32.1428571428587 77.85714285714312)"><path d="M32.14 0 C37.12 -1.13, 43.28 3.73, 47.84 9.92 C52.41 16.11, 56.81 26.35, 59.54 37.16 C62.28 47.97, 64.05 62.1, 64.26 74.77 C64.47 87.44, 63.16 101.87, 60.79 113.16 C58.42 124.46, 54.37 135.51, 50.02 142.56 C45.67 149.61, 39.91 154.46, 34.69 155.47 C29.47 156.47, 23.47 153.89, 18.71 148.59 C13.96 143.3, 9.24 133.94, 6.16 123.69 C3.08 113.44, 0.85 99.69, 0.23 87.11 C-0.39 74.52, 0.43 59.88, 2.43 48.16 C4.43 36.44, 8.1 24.65, 12.2 16.79 C16.31 8.93, 23.74 3.78, 27.06 0.98 C30.38 -1.82, 31.3 -0.1, 32.14 0 C32.99 0.1, 32.14 0.26, 32.14 1.56 M32.14 0 C37.12 -1.13, 43.28 3.73, 47.84 9.92 C52.41 16.11, 56.81 26.35, 59.54 37.16 C62.28 47.97, 64.05 62.1, 64.26 74.77 C64.47 87.44, 63.16 101.87, 60.79 113.16 C58.42 124.46, 54.37 135.51, 50.02 142.56 C45.67 149.61, 39.91 154.46, 34.69 155.47 C29.47 156.47, 23.47 153.89, 18.71 148.59 C13.96 143.3, 9.24 133.94, 6.16 123.69 C3.08 113.44, 0.85 99.69, 0.23 87.11 C-0.39 74.52, 0.43 59.88, 2.43 48.16 C4.43 36.44, 8.1 24.65, 12.2 16.79 C16.31 8.93, 23.74 3.78, 27.06 0.98 C30.38 -1.82, 31.3 -0.1, 32.14 0 C32.99 0.1, 32.14 0.26, 32.14 1.56" stroke="none" stroke-width="0" fill="#fa5252"></path><path d="M32.14 0 C37.12 -1.13, 43.28 3.73, 47.84 9.92 C52.41 16.11, 56.81 26.35, 59.54 37.16 C62.28 47.97, 64.05 62.1, 64.26 74.77 C64.47 87.44, 63.16 101.87, 60.79 113.16 C58.42 124.46, 54.37 135.51, 50.02 142.56 C45.67 149.61, 39.91 154.46, 34.69 155.47 C29.47 156.47, 23.47 153.89, 18.71 148.59 C13.96 143.3, 9.24 133.94, 6.16 123.69 C3.08 113.44, 0.85 99.69, 0.23 87.11 C-0.39 74.52, 0.43 59.88, 2.43 48.16 C4.43 36.44, 8.1 24.65, 12.2 16.79 C16.31 8.93, 23.74 3.78, 27.06 0.98 C30.38 -1.82, 31.3 -0.1, 32.14 0 C32.99 0.1, 32.14 0.26, 32.14 1.56 M32.14 0 C37.12 -1.13, 43.28 3.73, 47.84 9.92 C52.41 16.11, 56.81 26.35, 59.54 37.16 C62.28 47.97, 64.05 62.1, 64.26 74.77 C64.47 87.44, 63.16 101.87, 60.79 113.16 C58.42 124.46, 54.37 135.51, 50.02 142.56 C45.67 149.61, 39.91 154.46, 34.69 155.47 C29.47 156.47, 23.47 153.89, 18.71 148.59 C13.96 143.3, 9.24 133.94, 6.16 123.69 C3.08 113.44, 0.85 99.69, 0.23 87.11 C-0.39 74.52, 0.43 59.88, 2.43 48.16 C4.43 36.44, 8.1 24.65, 12.2 16.79 C16.31 8.93, 23.74 3.78, 27.06 0.98 C30.38 -1.82, 31.3 -0.1, 32.14 0 C32.99 0.1, 32.14 0.26, 32.14 1.56" stroke="#000000" stroke-width="1" fill="none"></path></g><g stroke-linecap="round" transform="translate(1039.5714285714275 59.28571428571195) rotate(0 32.14285714285688 71.42857142857156)"><path d="M0 0 L64.29 0 L64.29 142.86 L0 142.86" stroke="none" stroke-width="0" fill="#4c6ef5"></path><path d="M0 0 C14.11 0, 28.22 0, 64.29 0 M0 0 C16.61 0, 33.22 0, 64.29 0 M64.29 0 C64.29 35.52, 64.29 71.04, 64.29 142.86 M64.29 0 C64.29 41.89, 64.29 83.77, 64.29 142.86 M64.29 142.86 C43.95 142.86, 23.62 142.86, 0 142.86 M64.29 142.86 C48.55 142.86, 32.81 142.86, 0 142.86 M0 142.86 C0 108.06, 0 73.27, 0 0 M0 142.86 C0 93.29, 0 43.73, 0 0" stroke="#000000" stroke-width="1" fill="none"></path></g><g transform="translate(678.4999999999964 262.57142857142844) rotate(0 108.5 23)"><text x="108.5" y="32" font-family="Virgil, Segoe UI Emoji" font-size="36px" fill="#000000" text-anchor="middle" style="white-space: pre;" direction="ltr">scale(x=0.5)</text></g><g transform="translate(964.2857142857174 264.1428571428578) rotate(0 108.5 23)"><text x="108.5" y="32" font-family="Virgil, Segoe UI Emoji" font-size="36px" fill="#000000" text-anchor="middle" style="white-space: pre;" direction="ltr">scale(x=0.5)</text></g><g stroke-linecap="round"><g transform="translate(564.2142857142862 135.71428571428714) rotate(0 27.857142857144936 -4.547473508864641e-13)"><path d="M0 0 C19.7 0, 39.39 0, 55.71 0 M0 0 C13.02 0, 26.03 0, 55.71 0" stroke="#000000" stroke-width="4" fill="none"></path></g><g transform="translate(564.2142857142862 135.71428571428714) rotate(0 27.857142857144936 -4.547473508864641e-13)"><path d="M29.54 9.53 C38.79 6.16, 48.05 2.79, 55.71 0 M29.54 9.53 C35.65 7.3, 41.77 5.08, 55.71 0" stroke="#000000" stroke-width="4" fill="none"></path></g><g transform="translate(564.2142857142862 135.71428571428714) rotate(0 27.857142857144936 -4.547473508864641e-13)"><path d="M29.54 -9.53 C38.79 -6.16, 48.05 -2.79, 55.71 0 M29.54 -9.53 C35.65 -7.3, 41.77 -5.08, 55.71 0" stroke="#000000" stroke-width="4" fill="none"></path></g></g><g stroke-linecap="round"><g transform="translate(932.7857142857174 344.2857142857147) rotate(0 -0.714285714284415 28.571428571427987)"><path d="M0 0 C-0.37 14.82, -0.74 29.64, -1.43 57.14 M0 0 C-0.29 11.58, -0.58 23.15, -1.43 57.14" stroke="#000000" stroke-width="4" fill="none"></path></g><g transform="translate(932.7857142857174 344.2857142857147) rotate(0 -0.714285714284415 28.571428571427987)"><path d="M-10.53 30.05 C-8.17 37.08, -5.81 44.1, -1.43 57.14 M-10.53 30.05 C-8.69 35.54, -6.84 41.03, -1.43 57.14" stroke="#000000" stroke-width="4" fill="none"></path></g><g transform="translate(932.7857142857174 344.2857142857147) rotate(0 -0.714285714284415 28.571428571427987)"><path d="M9.01 30.54 C6.31 37.44, 3.6 44.34, -1.43 57.14 M9.01 30.54 C6.9 35.93, 4.78 41.32, -1.43 57.14" stroke="#000000" stroke-width="4" fill="none"></path></g></g><g stroke-linecap="round"><g transform="translate(784.2142857142753 18.571428571427532) rotate(0 0.714285714286234 115.00000000000045)"><path d="M0 0 C0.5 81.28, 1.01 162.57, 1.43 230" stroke="#495057" stroke-width="1.5" fill="none" stroke-dasharray="1.5 7"></path></g></g><g stroke-linecap="round"><g transform="translate(130.35714285713402 11.428571428571558) rotate(0 -0.714285714286234 122.14285714285734)"><path d="M0 0 C-0.41 69.99, -0.82 139.97, -1.43 244.29" stroke="#495057" stroke-width="1.5" fill="none" stroke-dasharray="1.5 7"></path></g></g><g stroke-linecap="round"><g transform="translate(14.642857142847788 132.85714285714403) rotate(0 112.85714285714312 0.7142857142853245)"><path d="M0 0 C68.64 0.43, 137.28 0.87, 225.71 1.43" stroke="#495057" stroke-width="1.5" fill="none" stroke-dasharray="1.5 7"></path></g></g><g stroke-linecap="round"><g transform="translate(416.07142857142026 10) rotate(0 -0.714285714284415 117.14285714285688)"><path d="M0 0 C-0.44 72.5, -0.88 144.99, -1.43 234.29" stroke="#495057" stroke-width="1.5" fill="none" stroke-dasharray="1.5 7"></path></g></g><g stroke-linecap="round"><g transform="translate(296.07142857142026 131.42857142857156) rotate(0 114.28571428571377 -4.547473508864641e-13)"><path d="M0 0 C84.6 0, 169.19 0, 228.57 0" stroke="#495057" stroke-width="1.5" fill="none" stroke-dasharray="1.5 7"></path></g></g><g stroke-linecap="round"><g transform="translate(674.214285714279 135) rotate(0 112.85714285714312 0.7142857142853245)"><path d="M0 0 C74.39 0.47, 148.77 0.94, 225.71 1.43" stroke="#495057" stroke-width="1.5" fill="none" stroke-dasharray="1.5 7"></path></g></g><g stroke-linecap="round"><g transform="translate(1072.0714285714166 16.42857142857156) rotate(0 0.714285714286234 115.00000000000045)"><path d="M0 0 C0.33 52.84, 0.66 105.68, 1.43 230" stroke="#495057" stroke-width="1.5" fill="none" stroke-dasharray="1.5 7"></path></g></g><g stroke-linecap="round"><g transform="translate(961.357142857134 129.28571428571468) rotate(0 112.85714285714312 0.7142857142853245)"><path d="M0 0 C45.41 0.29, 90.82 0.57, 225.71 1.43" stroke="#495057" stroke-width="1.5" fill="none" stroke-dasharray="1.5 7"></path></g></g><g stroke-linecap="round" transform="translate(676.7142857142753 462.142857142856) rotate(0 115 120)"><path d="M0 0 C79.61 0, 159.23 0, 230 0 M230 0 C230 70.78, 230 141.55, 230 240 M230 240 C146.61 240, 63.22 240, 0 240 M0 240 C0 172.86, 0 105.73, 0 0" stroke="#495057" stroke-width="1.5" fill="none" stroke-dasharray="1.5 7"></path></g><g stroke-linecap="round" transform="translate(964.571428571413 460.7142857142853) rotate(0 115 120)"><path d="M0 0 C63.31 0, 126.62 0, 230 0 M230 0 C230 71.93, 230 143.87, 230 240 M230 240 C181.27 240, 132.54 240, 0 240 M0 240 C0 172.13, 0 104.26, 0 0" stroke="#495057" stroke-width="1.5" fill="none" stroke-dasharray="1.5 7"></path></g><g stroke-linecap="round" transform="translate(703.8571428571413 510.7142857142844) rotate(0 32.1428571428587 77.85714285714312)"><path d="M32.14 0 C37.12 -1.13, 43.28 3.73, 47.84 9.92 C52.41 16.11, 56.81 26.35, 59.54 37.16 C62.28 47.97, 64.05 62.1, 64.26 74.77 C64.47 87.44, 63.16 101.87, 60.79 113.16 C58.42 124.46, 54.37 135.51, 50.02 142.56 C45.67 149.61, 39.91 154.46, 34.69 155.47 C29.47 156.47, 23.47 153.89, 18.71 148.59 C13.96 143.3, 9.24 133.94, 6.16 123.69 C3.08 113.44, 0.85 99.69, 0.23 87.11 C-0.39 74.52, 0.43 59.88, 2.43 48.16 C4.43 36.44, 8.1 24.65, 12.2 16.79 C16.31 8.93, 23.74 3.78, 27.06 0.98 C30.38 -1.82, 31.3 -0.1, 32.14 0 C32.99 0.1, 32.14 0.26, 32.14 1.56 M32.14 0 C37.12 -1.13, 43.28 3.73, 47.84 9.92 C52.41 16.11, 56.81 26.35, 59.54 37.16 C62.28 47.97, 64.05 62.1, 64.26 74.77 C64.47 87.44, 63.16 101.87, 60.79 113.16 C58.42 124.46, 54.37 135.51, 50.02 142.56 C45.67 149.61, 39.91 154.46, 34.69 155.47 C29.47 156.47, 23.47 153.89, 18.71 148.59 C13.96 143.3, 9.24 133.94, 6.16 123.69 C3.08 113.44, 0.85 99.69, 0.23 87.11 C-0.39 74.52, 0.43 59.88, 2.43 48.16 C4.43 36.44, 8.1 24.65, 12.2 16.79 C16.31 8.93, 23.74 3.78, 27.06 0.98 C30.38 -1.82, 31.3 -0.1, 32.14 0 C32.99 0.1, 32.14 0.26, 32.14 1.56" stroke="none" stroke-width="0" fill="#fa5252"></path><path d="M32.14 0 C37.12 -1.13, 43.28 3.73, 47.84 9.92 C52.41 16.11, 56.81 26.35, 59.54 37.16 C62.28 47.97, 64.05 62.1, 64.26 74.77 C64.47 87.44, 63.16 101.87, 60.79 113.16 C58.42 124.46, 54.37 135.51, 50.02 142.56 C45.67 149.61, 39.91 154.46, 34.69 155.47 C29.47 156.47, 23.47 153.89, 18.71 148.59 C13.96 143.3, 9.24 133.94, 6.16 123.69 C3.08 113.44, 0.85 99.69, 0.23 87.11 C-0.39 74.52, 0.43 59.88, 2.43 48.16 C4.43 36.44, 8.1 24.65, 12.2 16.79 C16.31 8.93, 23.74 3.78, 27.06 0.98 C30.38 -1.82, 31.3 -0.1, 32.14 0 C32.99 0.1, 32.14 0.26, 32.14 1.56 M32.14 0 C37.12 -1.13, 43.28 3.73, 47.84 9.92 C52.41 16.11, 56.81 26.35, 59.54 37.16 C62.28 47.97, 64.05 62.1, 64.26 74.77 C64.47 87.44, 63.16 101.87, 60.79 113.16 C58.42 124.46, 54.37 135.51, 50.02 142.56 C45.67 149.61, 39.91 154.46, 34.69 155.47 C29.47 156.47, 23.47 153.89, 18.71 148.59 C13.96 143.3, 9.24 133.94, 6.16 123.69 C3.08 113.44, 0.85 99.69, 0.23 87.11 C-0.39 74.52, 0.43 59.88, 2.43 48.16 C4.43 36.44, 8.1 24.65, 12.2 16.79 C16.31 8.93, 23.74 3.78, 27.06 0.98 C30.38 -1.82, 31.3 -0.1, 32.14 0 C32.99 0.1, 32.14 0.26, 32.14 1.56" stroke="#000000" stroke-width="1" fill="none"></path></g><g stroke-linecap="round" transform="translate(1102.4285714285616 506.42857142856974) rotate(0 32.14285714285688 71.42857142857156)"><path d="M0 0 L64.29 0 L64.29 142.86 L0 142.86" stroke="none" stroke-width="0" fill="#4c6ef5"></path><path d="M0 0 C17.24 0, 34.49 0, 64.29 0 M0 0 C24.63 0, 49.25 0, 64.29 0 M64.29 0 C64.29 35.72, 64.29 71.44, 64.29 142.86 M64.29 0 C64.29 30.62, 64.29 61.24, 64.29 142.86 M64.29 142.86 C47.42 142.86, 30.56 142.86, 0 142.86 M64.29 142.86 C47.51 142.86, 30.74 142.86, 0 142.86 M0 142.86 C0 112.06, 0 81.26, 0 0 M0 142.86 C0 99.76, 0 56.67, 0 0" stroke="#000000" stroke-width="1" fill="none"></path></g><g transform="translate(645.6428571428442 718.2857142857156) rotate(0 148 23)"><text x="148" y="32" font-family="Virgil, Segoe UI Emoji" font-size="36px" fill="#000000" text-anchor="middle" style="white-space: pre;" direction="ltr">translate(x=-75)</text></g><g transform="translate(941.4285714285616 715.5714285714312) rotate(0 140.5 23)"><text x="140.5" y="32" font-family="Virgil, Segoe UI Emoji" font-size="36px" fill="#000000" text-anchor="middle" style="white-space: pre;" direction="ltr">translate(x=75)</text></g><g stroke-linecap="round"><g transform="translate(791.3571428571231 468.57142857142844) rotate(0 0.714285714286234 115.00000000000045)"><path d="M0 0 C0.39 63.49, 0.79 126.98, 1.43 230" stroke="#495057" stroke-width="1.5" fill="none" stroke-dasharray="1.5 7"></path></g></g><g stroke-linecap="round"><g transform="translate(681.3571428571231 585.0000000000009) rotate(0 112.85714285714312 0.7142857142853245)"><path d="M0 0 C86.48 0.55, 172.95 1.09, 225.71 1.43" stroke="#495057" stroke-width="1.5" fill="none" stroke-dasharray="1.5 7"></path></g></g><g stroke-linecap="round"><g transform="translate(1079.214285714268 466.4285714285734) rotate(0 0.714285714286234 115.00000000000045)"><path d="M0 0 C0.56 89.91, 1.12 179.82, 1.43 230" stroke="#495057" stroke-width="1.5" fill="none" stroke-dasharray="1.5 7"></path></g></g><g stroke-linecap="round"><g transform="translate(968.4999999999782 579.2857142857147) rotate(0 112.85714285714312 0.7142857142853245)"><path d="M0 0 C50.07 0.32, 100.14 0.63, 225.71 1.43" stroke="#495057" stroke-width="1.5" fill="none" stroke-dasharray="1.5 7"></path></g></g><g stroke-linecap="round"><g transform="translate(564.2142857142826 581.1428571428578) rotate(0 -31.42857142857065 4.547473508864641e-13)"><path d="M0 0 C-21.41 0, -42.82 0, -62.86 0 M0 0 C-17.23 0, -34.45 0, -62.86 0" stroke="#000000" stroke-width="4" fill="none"></path></g><g transform="translate(564.2142857142826 581.1428571428578) rotate(0 -31.42857142857065 4.547473508864641e-13)"><path d="M-34.67 -10.26 C-44.27 -6.77, -53.87 -3.27, -62.86 0 M-34.67 -10.26 C-42.39 -7.45, -50.12 -4.64, -62.86 0" stroke="#000000" stroke-width="4" fill="none"></path></g><g transform="translate(564.2142857142826 581.1428571428578) rotate(0 -31.42857142857065 4.547473508864641e-13)"><path d="M-34.67 10.26 C-44.27 6.77, -53.87 3.27, -62.86 0 M-34.67 10.26 C-42.39 7.45, -50.12 4.64, -62.86 0" stroke="#000000" stroke-width="4" fill="none"></path></g></g><g stroke-linecap="round" transform="translate(156.1785714285652 458.9999999999991) rotate(0 115 120)"><path d="M0 0 C76.27 0, 152.54 0, 230 0 M230 0 C230 56.9, 230 113.8, 230 240 M230 240 C138.81 240, 47.61 240, 0 240 M0 240 C0 181.78, 0 123.55, 0 0" stroke="#495057" stroke-width="1.5" fill="none" stroke-dasharray="1.5 7"></path></g><g stroke-linecap="round" transform="translate(183.3214285714348 507.57142857142844) rotate(0 32.1428571428587 77.85714285714312)"><path d="M32.14 0 C37.12 -1.13, 43.28 3.73, 47.84 9.92 C52.41 16.11, 56.81 26.35, 59.54 37.16 C62.28 47.97, 64.05 62.1, 64.26 74.77 C64.47 87.44, 63.16 101.87, 60.79 113.16 C58.42 124.46, 54.37 135.51, 50.02 142.56 C45.67 149.61, 39.91 154.46, 34.69 155.47 C29.47 156.47, 23.47 153.89, 18.71 148.59 C13.96 143.3, 9.24 133.94, 6.16 123.69 C3.08 113.44, 0.85 99.69, 0.23 87.11 C-0.39 74.52, 0.43 59.88, 2.43 48.16 C4.43 36.44, 8.1 24.65, 12.2 16.79 C16.31 8.93, 23.74 3.78, 27.06 0.98 C30.38 -1.82, 31.3 -0.1, 32.14 0 C32.99 0.1, 32.14 0.26, 32.14 1.56 M32.14 0 C37.12 -1.13, 43.28 3.73, 47.84 9.92 C52.41 16.11, 56.81 26.35, 59.54 37.16 C62.28 47.97, 64.05 62.1, 64.26 74.77 C64.47 87.44, 63.16 101.87, 60.79 113.16 C58.42 124.46, 54.37 135.51, 50.02 142.56 C45.67 149.61, 39.91 154.46, 34.69 155.47 C29.47 156.47, 23.47 153.89, 18.71 148.59 C13.96 143.3, 9.24 133.94, 6.16 123.69 C3.08 113.44, 0.85 99.69, 0.23 87.11 C-0.39 74.52, 0.43 59.88, 2.43 48.16 C4.43 36.44, 8.1 24.65, 12.2 16.79 C16.31 8.93, 23.74 3.78, 27.06 0.98 C30.38 -1.82, 31.3 -0.1, 32.14 0 C32.99 0.1, 32.14 0.26, 32.14 1.56" stroke="none" stroke-width="0" fill="#fa5252"></path><path d="M32.14 0 C37.12 -1.13, 43.28 3.73, 47.84 9.92 C52.41 16.11, 56.81 26.35, 59.54 37.16 C62.28 47.97, 64.05 62.1, 64.26 74.77 C64.47 87.44, 63.16 101.87, 60.79 113.16 C58.42 124.46, 54.37 135.51, 50.02 142.56 C45.67 149.61, 39.91 154.46, 34.69 155.47 C29.47 156.47, 23.47 153.89, 18.71 148.59 C13.96 143.3, 9.24 133.94, 6.16 123.69 C3.08 113.44, 0.85 99.69, 0.23 87.11 C-0.39 74.52, 0.43 59.88, 2.43 48.16 C4.43 36.44, 8.1 24.65, 12.2 16.79 C16.31 8.93, 23.74 3.78, 27.06 0.98 C30.38 -1.82, 31.3 -0.1, 32.14 0 C32.99 0.1, 32.14 0.26, 32.14 1.56 M32.14 0 C37.12 -1.13, 43.28 3.73, 47.84 9.92 C52.41 16.11, 56.81 26.35, 59.54 37.16 C62.28 47.97, 64.05 62.1, 64.26 74.77 C64.47 87.44, 63.16 101.87, 60.79 113.16 C58.42 124.46, 54.37 135.51, 50.02 142.56 C45.67 149.61, 39.91 154.46, 34.69 155.47 C29.47 156.47, 23.47 153.89, 18.71 148.59 C13.96 143.3, 9.24 133.94, 6.16 123.69 C3.08 113.44, 0.85 99.69, 0.23 87.11 C-0.39 74.52, 0.43 59.88, 2.43 48.16 C4.43 36.44, 8.1 24.65, 12.2 16.79 C16.31 8.93, 23.74 3.78, 27.06 0.98 C30.38 -1.82, 31.3 -0.1, 32.14 0 C32.99 0.1, 32.14 0.26, 32.14 1.56" stroke="#000000" stroke-width="1" fill="none"></path></g><g stroke-linecap="round"><g transform="translate(270.821428571413 465.42857142857156) rotate(0 0.714285714286234 115.00000000000045)"><path d="M0 0 C0.29 46.5, 0.58 93, 1.43 230" stroke="#495057" stroke-width="1.5" fill="none" stroke-dasharray="1.5 7"></path></g></g><g stroke-linecap="round"><g transform="translate(160.82142857141298 581.857142857144) rotate(0 112.85714285714312 0.7142857142853245)"><path d="M0 0 C49.52 0.31, 99.05 0.63, 225.71 1.43" stroke="#495057" stroke-width="1.5" fill="none" stroke-dasharray="1.5 7"></path></g></g><g stroke-linecap="round" transform="translate(297.7857142857065 511.857142857144) rotate(0 32.14285714285688 71.42857142857156)"><path d="M0 0 L64.29 0 L64.29 142.86 L0 142.86" stroke="none" stroke-width="0" fill="#4c6ef5"></path><path d="M0 0 C22.21 0, 44.41 0, 64.29 0 M0 0 C17.73 0, 35.45 0, 64.29 0 M64.29 0 C64.29 29.2, 64.29 58.41, 64.29 142.86 M64.29 0 C64.29 43.16, 64.29 86.32, 64.29 142.86 M64.29 142.86 C44.51 142.86, 24.73 142.86, 0 142.86 M64.29 142.86 C38.85 142.86, 13.41 142.86, 0 142.86 M0 142.86 C0 98.98, 0 55.1, 0 0 M0 142.86 C0 106.43, 0 70.01, 0 0" stroke="#000000" stroke-width="1" fill="none"></path></g><g stroke-linecap="round"><g transform="translate(684.214285714279 430) rotate(0 109.28571428571377 0.7142857142857792)"><path d="M0 0 C59.07 0.39, 118.13 0.77, 218.57 1.43 M0 0 C82.51 0.54, 165.02 1.08, 218.57 1.43" stroke="#343a40" stroke-width="1" fill="none"></path></g><g transform="translate(684.214285714279 430) rotate(0 109.28571428571377 0.7142857142857792)"><path d="M28.26 -10.08 C20.62 -7.35, 12.99 -4.63, 0 0 M28.26 -10.08 C17.59 -6.27, 6.92 -2.47, 0 0" stroke="#343a40" stroke-width="1" fill="none"></path></g><g transform="translate(684.214285714279 430) rotate(0 109.28571428571377 0.7142857142857792)"><path d="M28.12 10.44 C20.52 7.62, 12.92 4.8, 0 0 M28.12 10.44 C17.51 6.5, 6.89 2.56, 0 0" stroke="#343a40" stroke-width="1" fill="none"></path></g><g transform="translate(684.214285714279 430) rotate(0 109.28571428571377 0.7142857142857792)"><path d="M190.31 11.5 C197.95 8.78, 205.59 6.06, 218.57 1.43 M190.31 11.5 C200.98 7.7, 211.65 3.9, 218.57 1.43" stroke="#343a40" stroke-width="1" fill="none"></path></g><g transform="translate(684.214285714279 430) rotate(0 109.28571428571377 0.7142857142857792)"><path d="M190.45 -9.02 C198.05 -6.19, 205.65 -3.37, 218.57 1.43 M190.45 -9.02 C201.06 -5.07, 211.68 -1.13, 218.57 1.43" stroke="#343a40" stroke-width="1" fill="none"></path></g></g><g transform="translate(772.7857142857065 388.92857142857156) rotate(0 29 18)"><text x="0" y="25" font-family="Virgil, Segoe UI Emoji" font-size="28px" fill="#343a40" text-anchor="start" style="white-space: pre;" direction="ltr">300</text></g><g stroke-linecap="round"><g transform="translate(966.357142857134 435.53571428571377) rotate(0 109.28571428571377 0.7142857142857792)"><path d="M0 0 C79.86 0.52, 159.72 1.04, 218.57 1.43 M0 0 C55.67 0.36, 111.33 0.73, 218.57 1.43" stroke="#343a40" stroke-width="1" fill="none"></path></g><g transform="translate(966.357142857134 435.53571428571377) rotate(0 109.28571428571377 0.7142857142857792)"><path d="M28.26 -10.08 C17.93 -6.39, 7.61 -2.71, 0 0 M28.26 -10.08 C21.06 -7.51, 13.86 -4.94, 0 0" stroke="#343a40" stroke-width="1" fill="none"></path></g><g transform="translate(966.357142857134 435.53571428571377) rotate(0 109.28571428571377 0.7142857142857792)"><path d="M28.12 10.44 C17.85 6.63, 7.57 2.81, 0 0 M28.12 10.44 C20.96 7.78, 13.8 5.12, 0 0" stroke="#343a40" stroke-width="1" fill="none"></path></g><g transform="translate(966.357142857134 435.53571428571377) rotate(0 109.28571428571377 0.7142857142857792)"><path d="M190.31 11.5 C200.64 7.82, 210.96 4.14, 218.57 1.43 M190.31 11.5 C197.51 8.94, 204.71 6.37, 218.57 1.43" stroke="#343a40" stroke-width="1" fill="none"></path></g><g transform="translate(966.357142857134 435.53571428571377) rotate(0 109.28571428571377 0.7142857142857792)"><path d="M190.45 -9.02 C200.72 -5.2, 211 -1.38, 218.57 1.43 M190.45 -9.02 C197.61 -6.36, 204.77 -3.7, 218.57 1.43" stroke="#343a40" stroke-width="1" fill="none"></path></g></g><g transform="translate(1054.9285714285616 394.46428571428623) rotate(0 29 18)"><text x="0" y="25" font-family="Virgil, Segoe UI Emoji" font-size="28px" fill="#343a40" text-anchor="start" style="white-space: pre;" direction="ltr">300</text></g><g stroke-linecap="round"><g transform="translate(787.4829400445815 479.04381984703105) rotate(0 -27.348612879435677 -0.23619563780084718)"><path d="M0 0 C-17.41 -0.15, -34.82 -0.3, -54.7 -0.47 M0 0 C-18.05 -0.16, -36.11 -0.31, -54.7 -0.47" stroke="#343a40" stroke-width="1" fill="none"></path></g><g transform="translate(787.4829400445815 479.04381984703105) rotate(0 -27.348612879435677 -0.23619563780084718)"><path d="M-0.13 15 C-0.09 10.22, -0.05 5.45, 0 0 M-0.13 15 C-0.09 10.05, -0.04 5.1, 0 0" stroke="#343a40" stroke-width="1" fill="none"></path></g><g transform="translate(787.4829400445815 479.04381984703105) rotate(0 -27.348612879435677 -0.23619563780084718)"><path d="M0.13 -15 C0.09 -10.22, 0.05 -5.45, 0 0 M0.13 -15 C0.09 -10.05, 0.04 -5.1, 0 0" stroke="#343a40" stroke-width="1" fill="none"></path></g><g transform="translate(787.4829400445815 479.04381984703105) rotate(0 -27.348612879435677 -0.23619563780084718)"><path d="M-28.92 -9.6 C-37.12 -6.7, -45.33 -3.79, -54.7 -0.47 M-28.92 -9.6 C-37.43 -6.59, -45.94 -3.58, -54.7 -0.47" stroke="#343a40" stroke-width="1" fill="none"></path></g><g transform="translate(787.4829400445815 479.04381984703105) rotate(0 -27.348612879435677 -0.23619563780084718)"><path d="M-29.08 9.1 C-37.23 6.06, -45.39 3.01, -54.7 -0.47 M-29.08 9.1 C-37.53 5.94, -45.99 2.78, -54.7 -0.47" stroke="#343a40" stroke-width="1" fill="none"></path></g></g><g transform="translate(1042.7142857142826 475.57142857142844) rotate(0 16 18)"><text x="16" y="25" font-family="Virgil, Segoe UI Emoji" font-size="28px" fill="#343a40" text-anchor="middle" style="white-space: pre;" direction="ltr">75</text></g><g transform="translate(802.4285714285616 468.42857142857065) rotate(0 22 18)"><text x="22" y="25" font-family="Virgil, Segoe UI Emoji" font-size="28px" fill="#343a40" text-anchor="middle" style="white-space: pre;" direction="ltr">-75</text></g><g stroke-linecap="round"><g transform="translate(1079.5628985937183 481.5255476585771) rotate(0 26.07995854913497 0.80512335782214)"><path d="M0 0 C12.53 0.39, 25.06 0.77, 52.16 1.61 M0 0 C14.66 0.45, 29.31 0.9, 52.16 1.61" stroke="#343a40" stroke-width="1" fill="none"></path></g><g transform="translate(1079.5628985937183 481.5255476585771) rotate(0 26.07995854913497 0.80512335782214)"><path d="M0.46 -14.99 C0.35 -11.39, 0.24 -7.79, 0 0 M0.46 -14.99 C0.33 -10.78, 0.2 -6.57, 0 0" stroke="#343a40" stroke-width="1" fill="none"></path></g><g transform="translate(1079.5628985937183 481.5255476585771) rotate(0 26.07995854913497 0.80512335782214)"><path d="M-0.46 14.99 C-0.35 11.39, -0.24 7.79, 0 0 M-0.46 14.99 C-0.33 10.78, -0.2 6.57, 0 0" stroke="#343a40" stroke-width="1" fill="none"></path></g><g transform="translate(1079.5628985937183 481.5255476585771) rotate(0 26.07995854913497 0.80512335782214)"><path d="M27.38 9.77 C33.33 7.81, 39.28 5.85, 52.16 1.61 M27.38 9.77 C34.34 7.48, 41.31 5.19, 52.16 1.61" stroke="#343a40" stroke-width="1" fill="none"></path></g><g transform="translate(1079.5628985937183 481.5255476585771) rotate(0 26.07995854913497 0.80512335782214)"><path d="M27.93 -8.07 C33.75 -5.74, 39.57 -3.42, 52.16 1.61 M27.93 -8.07 C34.74 -5.35, 41.55 -2.63, 52.16 1.61" stroke="#343a40" stroke-width="1" fill="none"></path></g></g></svg>