<svg version="1.1" xmlns="http://www.w3.org/2000/svg" viewBox="0 0 297.50000000000364 374.5833333333294" width="595.0000000000073" height="749.1666666666588">
  <!-- svg-source:excalidraw -->
  
  <defs>
    <style>
      @font-face {
        font-family: "Virgil";
        src: url("https://excalidraw.com/Virgil.woff2");
      }
      @font-face {
        font-family: "Cascadia";
        src: url("https://excalidraw.com/Cascadia.woff2");
      }
    </style>
  </defs>
  <g stroke-linecap="round" transform="translate(10 10) rotate(0 96.11111111111131 48.0555555555552)"><path d="M0 0 C74.46 0, 148.92 0, 192.22 0 M192.22 0 C192.22 23.07, 192.22 46.15, 192.22 96.11 M192.22 96.11 C148.81 96.11, 105.39 96.11, 0 96.11 M0 96.11 C0 66.15, 0 36.18, 0 0" stroke="#495057" stroke-width="1.5" fill="none" stroke-dasharray="1.5 7"></path></g><g stroke-linecap="round"><g transform="translate(106.1111111111095 10) rotate(0 -0.5223429951674916 48.0555555555552)"><path d="M0 0 C-0.29 26.62, -0.58 53.24, -1.04 96.11" stroke="#495057" stroke-width="1.5" fill="none" stroke-dasharray="1.5 7"></path></g></g><g stroke-linecap="round" transform="translate(24.625603864707955 21.49154589370937) rotate(0 34.99698067632926 34.47463768115904)"><path d="M35 0 C41.86 -0.45, 51.01 3, 56.68 7.42 C62.36 11.83, 67.36 19.55, 69.04 26.47 C70.72 33.4, 69.79 42.51, 66.75 48.97 C63.71 55.43, 57.25 62.02, 50.8 65.24 C44.35 68.45, 35.13 69.68, 28.05 68.26 C20.96 66.85, 12.96 62.19, 8.29 56.75 C3.62 51.32, 0.27 42.77, 0.02 35.66 C-0.23 28.54, 2.52 19.79, 6.8 14.05 C11.08 8.32, 21.01 3.58, 25.71 1.24 C30.41 -1.11, 33.45 0.09, 35 0 C36.54 -0.09, 35 0.11, 35 0.69 M35 0 C41.86 -0.45, 51.01 3, 56.68 7.42 C62.36 11.83, 67.36 19.55, 69.04 26.47 C70.72 33.4, 69.79 42.51, 66.75 48.97 C63.71 55.43, 57.25 62.02, 50.8 65.24 C44.35 68.45, 35.13 69.68, 28.05 68.26 C20.96 66.85, 12.96 62.19, 8.29 56.75 C3.62 51.32, 0.27 42.77, 0.02 35.66 C-0.23 28.54, 2.52 19.79, 6.8 14.05 C11.08 8.32, 21.01 3.58, 25.71 1.24 C30.41 -1.11, 33.45 0.09, 35 0 C36.54 -0.09, 35 0.11, 35 0.69" stroke="#495057" stroke-width="1" fill="none"></path></g><g stroke-linecap="round" transform="translate(11.666666666664241 137.7777777777792) rotate(0 95.55555555555475 47.22222222222217)"><path d="M0 0 C53.67 0, 107.34 0, 191.11 0 M191.11 0 C191.11 27.87, 191.11 55.75, 191.11 94.44 M191.11 94.44 C118.73 94.44, 46.34 94.44, 0 94.44 M0 94.44 C0 67.09, 0 39.74, 0 0" stroke="#495057" stroke-width="1.5" fill="none" stroke-dasharray="1.5 7"></path></g><g stroke-linecap="round"><g transform="translate(106.6334541062788 189.1666666666688) rotate(0 -0.24456521739011805 23.333333333332575)"><path d="M0 0 C-0.19 18.2, -0.38 36.39, -0.49 46.67" stroke="#495057" stroke-width="1.5" fill="none" stroke-dasharray="1.5 7"></path></g></g><g stroke-linecap="round"><g transform="translate(157.7445652173883 186.38888888889323) rotate(0 -1.0778985507222387 24.722222222221717)"><path d="M0 0 C-0.57 13.01, -1.13 26.01, -2.16 49.44" stroke="#495057" stroke-width="1.5" fill="none" stroke-dasharray="1.5 7"></path></g></g><g stroke-linecap="round" transform="translate(25.55857487922549 148.30314009662015) rotate(0 34.99698067632926 34.47463768115904)"><path d="M35 0 C41.86 -0.45, 51.01 3, 56.68 7.42 C62.36 11.83, 67.36 19.55, 69.04 26.47 C70.72 33.4, 69.79 42.51, 66.75 48.97 C63.71 55.43, 57.25 62.02, 50.8 65.24 C44.35 68.45, 35.13 69.68, 28.05 68.26 C20.96 66.85, 12.96 62.19, 8.29 56.75 C3.62 51.32, 0.27 42.77, 0.02 35.66 C-0.23 28.54, 2.52 19.79, 6.8 14.05 C11.08 8.32, 21.01 3.58, 25.71 1.24 C30.41 -1.11, 33.45 0.09, 35 0 C36.54 -0.09, 35 0.11, 35 0.69 M35 0 C41.86 -0.45, 51.01 3, 56.68 7.42 C62.36 11.83, 67.36 19.55, 69.04 26.47 C70.72 33.4, 69.79 42.51, 66.75 48.97 C63.71 55.43, 57.25 62.02, 50.8 65.24 C44.35 68.45, 35.13 69.68, 28.05 68.26 C20.96 66.85, 12.96 62.19, 8.29 56.75 C3.62 51.32, 0.27 42.77, 0.02 35.66 C-0.23 28.54, 2.52 19.79, 6.8 14.05 C11.08 8.32, 21.01 3.58, 25.71 1.24 C30.41 -1.11, 33.45 0.09, 35 0 C36.54 -0.09, 35 0.11, 35 0.69" stroke="#495057" stroke-width="1" fill="none"></path></g><g stroke-linecap="round"><g transform="translate(108.33333333332848 185.00000000000182) rotate(0 47.222222222222626 -0.5555555555556566)"><path d="M0 0 C31.81 -0.37, 63.61 -0.75, 94.44 -1.11" stroke="#c92a2a" stroke-width="1.5" fill="none" stroke-dasharray="1.5 7"></path></g></g><g stroke-linecap="round" transform="translate(114.44746376811236 142.19202898550975) rotate(0 18.052536231884005 18.08574879227035)"><path d="M18.05 0 C21.73 -0.23, 26.69 1.74, 29.66 4.23 C32.62 6.72, 35.16 11.13, 35.83 14.95 C36.5 18.76, 35.62 23.77, 33.69 27.13 C31.75 30.48, 27.86 33.76, 24.23 35.08 C20.59 36.41, 15.51 36.41, 11.88 35.08 C8.24 33.76, 4.35 30.48, 2.42 27.13 C0.48 23.77, -0.4 18.76, 0.27 14.95 C0.95 11.13, 3.49 6.72, 6.45 4.23 C9.41 1.74, 16.12 0.64, 18.05 0 C19.99 -0.64, 18.05 0.06, 18.05 0.36 M18.05 0 C21.73 -0.23, 26.69 1.74, 29.66 4.23 C32.62 6.72, 35.16 11.13, 35.83 14.95 C36.5 18.76, 35.62 23.77, 33.69 27.13 C31.75 30.48, 27.86 33.76, 24.23 35.08 C20.59 36.41, 15.51 36.41, 11.88 35.08 C8.24 33.76, 4.35 30.48, 2.42 27.13 C0.48 23.77, -0.4 18.76, 0.27 14.95 C0.95 11.13, 3.49 6.72, 6.45 4.23 C9.41 1.74, 16.12 0.64, 18.05 0 C19.99 -0.64, 18.05 0.06, 18.05 0.36" stroke="#c92a2a" stroke-width="1" fill="none"></path></g><g stroke-linecap="round" transform="translate(115.0030193236671 188.8586956521749) rotate(0 17.77475845410845 17.25241545893641)"><path d="M17.77 0 C21.39 -0.22, 26.28 1.66, 29.2 4.04 C32.12 6.41, 34.62 10.62, 35.28 14.26 C35.94 17.9, 35.07 22.68, 33.17 25.88 C31.26 29.08, 27.43 32.2, 23.85 33.46 C20.28 34.73, 15.27 34.73, 11.7 33.46 C8.12 32.2, 4.29 29.08, 2.38 25.88 C0.48 22.68, -0.39 17.9, 0.27 14.26 C0.93 10.62, 3.43 6.41, 6.35 4.04 C9.27 1.66, 15.87 0.62, 17.77 0 C19.68 -0.62, 17.77 0.06, 17.77 0.35 M17.77 0 C21.39 -0.22, 26.28 1.66, 29.2 4.04 C32.12 6.41, 34.62 10.62, 35.28 14.26 C35.94 17.9, 35.07 22.68, 33.17 25.88 C31.26 29.08, 27.43 32.2, 23.85 33.46 C20.28 34.73, 15.27 34.73, 11.7 33.46 C8.12 32.2, 4.29 29.08, 2.38 25.88 C0.48 22.68, -0.39 17.9, 0.27 14.26 C0.93 10.62, 3.43 6.41, 6.35 4.04 C9.27 1.66, 15.87 0.62, 17.77 0 C19.68 -0.62, 17.77 0.06, 17.77 0.35" stroke="#495057" stroke-width="1" fill="none"></path></g><g transform="translate(213.94444444444525 38.61111111111222) rotate(0 26 10.5)"><text x="0" y="15" font-family="Virgil, Segoe UI Emoji" font-size="16px" fill="#495057" text-anchor="start" style="white-space: pre;" direction="ltr">Level 1</text></g><g transform="translate(219.49999999999636 162) rotate(0 29.5 10.5)"><text x="0" y="15" font-family="Virgil, Segoe UI Emoji" font-size="16px" fill="#495057" text-anchor="start" style="white-space: pre;" direction="ltr">Level 2</text></g><g stroke-linecap="round" transform="translate(16.111111111113132 266.5277777777719) rotate(0 95.55555555555475 47.22222222222217)"><path d="M0 0 C47.77 0, 95.54 0, 191.11 0 M191.11 0 C191.11 24.66, 191.11 49.32, 191.11 94.44 M191.11 94.44 C148.17 94.44, 105.22 94.44, 0 94.44 M0 94.44 C0 65.03, 0 35.62, 0 0" stroke="#495057" stroke-width="1.5" fill="none" stroke-dasharray="1.5 7"></path></g><g stroke-linecap="round"><g transform="translate(111.63345410628608 268.47222222221717) rotate(0 0.0332125603890745 48.0555555555552)"><path d="M0 0 C0.02 33.85, 0.05 67.71, 0.07 96.11" stroke="#495057" stroke-width="1.5" fill="none" stroke-dasharray="1.5 7"></path></g></g><g stroke-linecap="round"><g transform="translate(158.30012077295396 315.13888888888596) rotate(0 0.8665458937211952 24.722222222221717)"><path d="M0 0 C0.42 12.03, 0.84 24.05, 1.73 49.44" stroke="#495057" stroke-width="1.5" fill="none" stroke-dasharray="1.5 7"></path></g></g><g stroke-linecap="round" transform="translate(30.003019323678018 277.05314009661197) rotate(0 34.99698067632926 34.47463768115904)"><path d="M35 0 C41.86 -0.45, 51.01 3, 56.68 7.42 C62.36 11.83, 67.36 19.55, 69.04 26.47 C70.72 33.4, 69.79 42.51, 66.75 48.97 C63.71 55.43, 57.25 62.02, 50.8 65.24 C44.35 68.45, 35.13 69.68, 28.05 68.26 C20.96 66.85, 12.96 62.19, 8.29 56.75 C3.62 51.32, 0.27 42.77, 0.02 35.66 C-0.23 28.54, 2.52 19.79, 6.8 14.05 C11.08 8.32, 21.01 3.58, 25.71 1.24 C30.41 -1.11, 33.45 0.09, 35 0 C36.54 -0.09, 35 0.11, 35 0.69 M35 0 C41.86 -0.45, 51.01 3, 56.68 7.42 C62.36 11.83, 67.36 19.55, 69.04 26.47 C70.72 33.4, 69.79 42.51, 66.75 48.97 C63.71 55.43, 57.25 62.02, 50.8 65.24 C44.35 68.45, 35.13 69.68, 28.05 68.26 C20.96 66.85, 12.96 62.19, 8.29 56.75 C3.62 51.32, 0.27 42.77, 0.02 35.66 C-0.23 28.54, 2.52 19.79, 6.8 14.05 C11.08 8.32, 21.01 3.58, 25.71 1.24 C30.41 -1.11, 33.45 0.09, 35 0 C36.54 -0.09, 35 0.11, 35 0.69" stroke="#495057" stroke-width="1" fill="none"></path></g><g stroke-linecap="round"><g transform="translate(112.77777777778465 313.74999999999454) rotate(0 47.222222222222626 -0.5555555555556566)"><path d="M0 0 C24.65 -0.29, 49.31 -0.58, 94.44 -1.11" stroke="#495057" stroke-width="1.5" fill="none" stroke-dasharray="1.5 7"></path></g></g><g stroke-linecap="round" transform="translate(118.89190821256852 270.9420289855025) rotate(0 18.052536231884005 18.08574879227035)"><path d="M18.05 0 C21.73 -0.23, 26.69 1.74, 29.66 4.23 C32.62 6.72, 35.16 11.13, 35.83 14.95 C36.5 18.76, 35.62 23.77, 33.69 27.13 C31.75 30.48, 27.86 33.76, 24.23 35.08 C20.59 36.41, 15.51 36.41, 11.88 35.08 C8.24 33.76, 4.35 30.48, 2.42 27.13 C0.48 23.77, -0.4 18.76, 0.27 14.95 C0.95 11.13, 3.49 6.72, 6.45 4.23 C9.41 1.74, 16.12 0.64, 18.05 0 C19.99 -0.64, 18.05 0.06, 18.05 0.36 M18.05 0 C21.73 -0.23, 26.69 1.74, 29.66 4.23 C32.62 6.72, 35.16 11.13, 35.83 14.95 C36.5 18.76, 35.62 23.77, 33.69 27.13 C31.75 30.48, 27.86 33.76, 24.23 35.08 C20.59 36.41, 15.51 36.41, 11.88 35.08 C8.24 33.76, 4.35 30.48, 2.42 27.13 C0.48 23.77, -0.4 18.76, 0.27 14.95 C0.95 11.13, 3.49 6.72, 6.45 4.23 C9.41 1.74, 16.12 0.64, 18.05 0 C19.99 -0.64, 18.05 0.06, 18.05 0.36" stroke="#c92a2a" stroke-width="1" fill="none"></path></g><g stroke-linecap="round" transform="translate(119.447463768116 317.6086956521667) rotate(0 17.77475845410845 17.25241545893641)"><path d="M17.77 0 C21.39 -0.22, 26.28 1.66, 29.2 4.04 C32.12 6.41, 34.62 10.62, 35.28 14.26 C35.94 17.9, 35.07 22.68, 33.17 25.88 C31.26 29.08, 27.43 32.2, 23.85 33.46 C20.28 34.73, 15.27 34.73, 11.7 33.46 C8.12 32.2, 4.29 29.08, 2.38 25.88 C0.48 22.68, -0.39 17.9, 0.27 14.26 C0.93 10.62, 3.43 6.41, 6.35 4.04 C9.27 1.66, 15.87 0.62, 17.77 0 C19.68 -0.62, 17.77 0.06, 17.77 0.35 M17.77 0 C21.39 -0.22, 26.28 1.66, 29.2 4.04 C32.12 6.41, 34.62 10.62, 35.28 14.26 C35.94 17.9, 35.07 22.68, 33.17 25.88 C31.26 29.08, 27.43 32.2, 23.85 33.46 C20.28 34.73, 15.27 34.73, 11.7 33.46 C8.12 32.2, 4.29 29.08, 2.38 25.88 C0.48 22.68, -0.39 17.9, 0.27 14.26 C0.93 10.62, 3.43 6.41, 6.35 4.04 C9.27 1.66, 15.87 0.62, 17.77 0 C19.68 -0.62, 17.77 0.06, 17.77 0.35" stroke="#495057" stroke-width="1" fill="none"></path></g><g stroke-linecap="round"><g transform="translate(184.4444444444489 315.555555555552) rotate(0 -0.27777777777555457 23.055555555555657)"><path d="M0 0 C-0.19 15.84, -0.38 31.68, -0.56 46.11" stroke="#495057" stroke-width="1.5" fill="none" stroke-dasharray="1.5 7"></path></g></g><g stroke-linecap="round"><g transform="translate(162.2222222222299 289.99999999999636) rotate(0 23.055555555554747 -0.27777777777737356)"><path d="M0 0 C12.75 -0.15, 25.5 -0.31, 46.11 -0.56" stroke="#c92a2a" stroke-width="1.5" fill="none" stroke-dasharray="1.5 7"></path></g></g><g stroke-linecap="round"><g transform="translate(161.3888888888905 336.9444444444398) rotate(0 23.055555555554747 -0.27777777777737356)"><path d="M0 0 C10.09 -0.12, 20.18 -0.24, 46.11 -0.56" stroke="#495057" stroke-width="1.5" fill="none" stroke-dasharray="1.5 7"></path></g></g><g stroke-linecap="round" transform="translate(165.2807971014554 269.13647342994955) rotate(0 8.885869565216126 8.363526570048634)"><path d="M8.89 0 C10.69 -0.11, 13.14 0.8, 14.6 1.96 C16.06 3.11, 17.31 5.15, 17.64 6.91 C17.97 8.68, 17.53 10.99, 16.58 12.55 C15.63 14.1, 13.71 15.61, 11.93 16.22 C10.14 16.84, 7.64 16.84, 5.85 16.22 C4.06 15.61, 2.14 14.1, 1.19 12.55 C0.24 10.99, -0.2 8.68, 0.13 6.91 C0.47 5.15, 1.72 3.11, 3.17 1.96 C4.63 0.8, 7.93 0.3, 8.89 0 C9.84 -0.3, 8.89 0.03, 8.89 0.17 M8.89 0 C10.69 -0.11, 13.14 0.8, 14.6 1.96 C16.06 3.11, 17.31 5.15, 17.64 6.91 C17.97 8.68, 17.53 10.99, 16.58 12.55 C15.63 14.1, 13.71 15.61, 11.93 16.22 C10.14 16.84, 7.64 16.84, 5.85 16.22 C4.06 15.61, 2.14 14.1, 1.19 12.55 C0.24 10.99, -0.2 8.68, 0.13 6.91 C0.47 5.15, 1.72 3.11, 3.17 1.96 C4.63 0.8, 7.93 0.3, 8.89 0 C9.84 -0.3, 8.89 0.03, 8.89 0.17" stroke="#c92a2a" stroke-width="1" fill="none"></path></g><g stroke-linecap="round" transform="translate(165.5585748792364 291.63647342994864) rotate(0 8.885869565216126 8.363526570048634)"><path d="M8.89 0 C10.69 -0.11, 13.14 0.8, 14.6 1.96 C16.06 3.11, 17.31 5.15, 17.64 6.91 C17.97 8.68, 17.53 10.99, 16.58 12.55 C15.63 14.1, 13.71 15.61, 11.93 16.22 C10.14 16.84, 7.64 16.84, 5.85 16.22 C4.06 15.61, 2.14 14.1, 1.19 12.55 C0.24 10.99, -0.2 8.68, 0.13 6.91 C0.47 5.15, 1.72 3.11, 3.17 1.96 C4.63 0.8, 7.93 0.3, 8.89 0 C9.84 -0.3, 8.89 0.03, 8.89 0.17 M8.89 0 C10.69 -0.11, 13.14 0.8, 14.6 1.96 C16.06 3.11, 17.31 5.15, 17.64 6.91 C17.97 8.68, 17.53 10.99, 16.58 12.55 C15.63 14.1, 13.71 15.61, 11.93 16.22 C10.14 16.84, 7.64 16.84, 5.85 16.22 C4.06 15.61, 2.14 14.1, 1.19 12.55 C0.24 10.99, -0.2 8.68, 0.13 6.91 C0.47 5.15, 1.72 3.11, 3.17 1.96 C4.63 0.8, 7.93 0.3, 8.89 0 C9.84 -0.3, 8.89 0.03, 8.89 0.17" stroke="#c92a2a" stroke-width="1" fill="none"></path></g><g stroke-linecap="round" transform="translate(165.00301932367438 317.74758454105813) rotate(0 8.885869565216126 8.363526570048634)"><path d="M8.89 0 C10.69 -0.11, 13.14 0.8, 14.6 1.96 C16.06 3.11, 17.31 5.15, 17.64 6.91 C17.97 8.68, 17.53 10.99, 16.58 12.55 C15.63 14.1, 13.71 15.61, 11.93 16.22 C10.14 16.84, 7.64 16.84, 5.85 16.22 C4.06 15.61, 2.14 14.1, 1.19 12.55 C0.24 10.99, -0.2 8.68, 0.13 6.91 C0.47 5.15, 1.72 3.11, 3.17 1.96 C4.63 0.8, 7.93 0.3, 8.89 0 C9.84 -0.3, 8.89 0.03, 8.89 0.17 M8.89 0 C10.69 -0.11, 13.14 0.8, 14.6 1.96 C16.06 3.11, 17.31 5.15, 17.64 6.91 C17.97 8.68, 17.53 10.99, 16.58 12.55 C15.63 14.1, 13.71 15.61, 11.93 16.22 C10.14 16.84, 7.64 16.84, 5.85 16.22 C4.06 15.61, 2.14 14.1, 1.19 12.55 C0.24 10.99, -0.2 8.68, 0.13 6.91 C0.47 5.15, 1.72 3.11, 3.17 1.96 C4.63 0.8, 7.93 0.3, 8.89 0 C9.84 -0.3, 8.89 0.03, 8.89 0.17" stroke="#495057" stroke-width="1" fill="none"></path></g><g stroke-linecap="round" transform="translate(164.44746376812327 338.85869565217035) rotate(0 8.885869565216126 8.363526570048634)"><path d="M8.89 0 C10.69 -0.11, 13.14 0.8, 14.6 1.96 C16.06 3.11, 17.31 5.15, 17.64 6.91 C17.97 8.68, 17.53 10.99, 16.58 12.55 C15.63 14.1, 13.71 15.61, 11.93 16.22 C10.14 16.84, 7.64 16.84, 5.85 16.22 C4.06 15.61, 2.14 14.1, 1.19 12.55 C0.24 10.99, -0.2 8.68, 0.13 6.91 C0.47 5.15, 1.72 3.11, 3.17 1.96 C4.63 0.8, 7.93 0.3, 8.89 0 C9.84 -0.3, 8.89 0.03, 8.89 0.17 M8.89 0 C10.69 -0.11, 13.14 0.8, 14.6 1.96 C16.06 3.11, 17.31 5.15, 17.64 6.91 C17.97 8.68, 17.53 10.99, 16.58 12.55 C15.63 14.1, 13.71 15.61, 11.93 16.22 C10.14 16.84, 7.64 16.84, 5.85 16.22 C4.06 15.61, 2.14 14.1, 1.19 12.55 C0.24 10.99, -0.2 8.68, 0.13 6.91 C0.47 5.15, 1.72 3.11, 3.17 1.96 C4.63 0.8, 7.93 0.3, 8.89 0 C9.84 -0.3, 8.89 0.03, 8.89 0.17" stroke="#495057" stroke-width="1" fill="none"></path></g><g transform="translate(228.50000000000364 289.222222222219) rotate(0 29.5 10.5)"><text x="0" y="15" font-family="Virgil, Segoe UI Emoji" font-size="16px" fill="#495057" text-anchor="start" style="white-space: pre;" direction="ltr">Level 3</text></g><g stroke-linecap="round"><g transform="translate(108.02234299516931 138.88888888888778) rotate(0 -0.24456521739011805 23.333333333332575)"><path d="M0 0 C-0.12 11.9, -0.25 23.81, -0.49 46.67" stroke="#c92a2a" stroke-width="1.5" fill="none" stroke-dasharray="1.5 7"></path></g></g><g stroke-linecap="round"><g transform="translate(203.5778985507277 137.77777777777737) rotate(0 -0.24456521739011805 23.333333333332575)"><path d="M0 0 C-0.19 18.54, -0.39 37.08, -0.49 46.67" stroke="#c92a2a" stroke-width="1.5" fill="none" stroke-dasharray="1.5 7"></path></g></g><g stroke-linecap="round"><g transform="translate(105.11111111111313 137.88888888888687) rotate(0 47.222222222222626 0)"><path d="M0 0 C24.99 0, 49.98 0, 94.44 0" stroke="#c92a2a" stroke-width="1.5" fill="none" stroke-dasharray="1.5 7"></path></g></g><g stroke-linecap="round"><g transform="translate(156.91123188405618 137.77777777777737) rotate(0 -0.24456521739011805 23.333333333332575)"><path d="M0 0 C-0.17 16.45, -0.34 32.9, -0.49 46.67" stroke="#c92a2a" stroke-width="1.5" fill="none" stroke-dasharray="1.5 7"></path></g></g><g stroke-linecap="round"><g transform="translate(159.13345410628608 268.38888888888687) rotate(0 0.03321256038725551 24.44444444444389)"><path d="M0 0 C0.01 10.58, 0.03 21.16, 0.07 48.89" stroke="#c92a2a" stroke-width="1.5" fill="none" stroke-dasharray="1.5 7"></path></g></g><g stroke-linecap="round"><g transform="translate(187.18900966183355 267.2222222222217) rotate(0 0.03321256038725551 24.44444444444389)"><path d="M0 0 C0.02 13.79, 0.04 27.58, 0.07 48.89" stroke="#c92a2a" stroke-width="1.5" fill="none" stroke-dasharray="1.5 7"></path></g></g><g stroke-linecap="round"><g transform="translate(207.1890096618372 267.2222222222226) rotate(0 0.03321256038725551 24.44444444444389)"><path d="M0 0 C0.02 16.39, 0.04 32.77, 0.07 48.89" stroke="#c92a2a" stroke-width="1.5" fill="none" stroke-dasharray="1.5 7"></path></g></g><g stroke-linecap="round"><g transform="translate(111.63345410628244 267.77777777777646) rotate(0 0.03321256038725551 24.44444444444389)"><path d="M0 0 C0.02 15.41, 0.04 30.81, 0.07 48.89" stroke="#c92a2a" stroke-width="1.5" fill="none" stroke-dasharray="1.5 7"></path></g></g><g stroke-linecap="round"><g transform="translate(110.27777777778465 266.38888888888687) rotate(0 48.05555555555475 -0.5555555555552019)"><path d="M0 0 C29.89 -0.35, 59.78 -0.69, 96.11 -1.11" stroke="#c92a2a" stroke-width="1.5" fill="none" stroke-dasharray="1.5 7"></path></g></g><g stroke-linecap="round"><g transform="translate(113.05555555556202 313.88888888888687) rotate(0 48.05555555555475 -0.5555555555552019)"><path d="M0 0 C30.8 -0.36, 61.6 -0.71, 96.11 -1.11" stroke="#c92a2a" stroke-width="1.5" fill="none" stroke-dasharray="1.5 7"></path></g></g></svg>