<svg version="1.1" xmlns="http://www.w3.org/2000/svg" viewBox="0 0 1012.6428571428696 336.49999999999727" width="2025.2857142857392" height="672.9999999999945">
  <!-- svg-source:excalidraw -->
  
  <defs>
    <style>
      @font-face {
        font-family: "Virgil";
        src: url("https://excalidraw.com/Virgil.woff2");
      }
      @font-face {
        font-family: "Cascadia";
        src: url("https://excalidraw.com/Cascadia.woff2");
      }
    </style>
  </defs>
  <g stroke-linecap="round" transform="translate(772.6428571428696 12.071428571425713) rotate(0 115 120)"><path d="M0 0 C84.97 0, 169.94 0, 230 0 M230 0 C230 48.39, 230 96.78, 230 240 M230 240 C163.58 240, 97.17 240, 0 240 M0 240 C0 179.23, 0 118.45, 0 0" stroke="#495057" stroke-width="1.5" fill="none" stroke-dasharray="1.5 7"></path></g><g transform="translate(792.928571428587 280.49999999999727) rotate(0 93 23)"><text x="93" y="32" font-family="Virgil, Segoe UI Emoji" font-size="36px" fill="#000000" text-anchor="middle" style="white-space: pre;" direction="ltr">below(a, b)</text></g><g stroke-linecap="round" transform="translate(796.2142857143117 41.35714285714312) rotate(0 90 32.14285714285734)"><path d="M90 0 C103.14 -0.48, 119.22 1.34, 131.49 3.62 C143.76 5.9, 155.69 9.62, 163.64 13.66 C171.59 17.7, 177.36 22.97, 179.2 27.87 C181.04 32.76, 179.36 38.39, 174.67 43.04 C169.99 47.68, 161.23 52.4, 151.08 55.75 C140.92 59.1, 127.06 61.85, 113.72 63.15 C100.38 64.45, 84.55 64.6, 71.03 63.56 C57.51 62.52, 43.26 60.05, 32.6 56.9 C21.95 53.75, 12.5 49.21, 7.11 44.66 C1.72 40.11, -0.81 34.53, 0.28 29.61 C1.37 24.68, 6.33 19.31, 13.66 15.12 C20.99 10.93, 32.32 6.98, 44.23 4.47 C56.14 1.95, 77.48 0.79, 85.11 0.05 C92.74 -0.7, 89.19 -0.1, 90 0 C90.81 0.1, 90 0.11, 90 0.64 M90 0 C103.14 -0.48, 119.22 1.34, 131.49 3.62 C143.76 5.9, 155.69 9.62, 163.64 13.66 C171.59 17.7, 177.36 22.97, 179.2 27.87 C181.04 32.76, 179.36 38.39, 174.67 43.04 C169.99 47.68, 161.23 52.4, 151.08 55.75 C140.92 59.1, 127.06 61.85, 113.72 63.15 C100.38 64.45, 84.55 64.6, 71.03 63.56 C57.51 62.52, 43.26 60.05, 32.6 56.9 C21.95 53.75, 12.5 49.21, 7.11 44.66 C1.72 40.11, -0.81 34.53, 0.28 29.61 C1.37 24.68, 6.33 19.31, 13.66 15.12 C20.99 10.93, 32.32 6.98, 44.23 4.47 C56.14 1.95, 77.48 0.79, 85.11 0.05 C92.74 -0.7, 89.19 -0.1, 90 0 C90.81 0.1, 90 0.11, 90 0.64" stroke="none" stroke-width="0" fill="#fa5252"></path><path d="M90 0 C103.14 -0.48, 119.22 1.34, 131.49 3.62 C143.76 5.9, 155.69 9.62, 163.64 13.66 C171.59 17.7, 177.36 22.97, 179.2 27.87 C181.04 32.76, 179.36 38.39, 174.67 43.04 C169.99 47.68, 161.23 52.4, 151.08 55.75 C140.92 59.1, 127.06 61.85, 113.72 63.15 C100.38 64.45, 84.55 64.6, 71.03 63.56 C57.51 62.52, 43.26 60.05, 32.6 56.9 C21.95 53.75, 12.5 49.21, 7.11 44.66 C1.72 40.11, -0.81 34.53, 0.28 29.61 C1.37 24.68, 6.33 19.31, 13.66 15.12 C20.99 10.93, 32.32 6.98, 44.23 4.47 C56.14 1.95, 77.48 0.79, 85.11 0.05 C92.74 -0.7, 89.19 -0.1, 90 0 C90.81 0.1, 90 0.11, 90 0.64 M90 0 C103.14 -0.48, 119.22 1.34, 131.49 3.62 C143.76 5.9, 155.69 9.62, 163.64 13.66 C171.59 17.7, 177.36 22.97, 179.2 27.87 C181.04 32.76, 179.36 38.39, 174.67 43.04 C169.99 47.68, 161.23 52.4, 151.08 55.75 C140.92 59.1, 127.06 61.85, 113.72 63.15 C100.38 64.45, 84.55 64.6, 71.03 63.56 C57.51 62.52, 43.26 60.05, 32.6 56.9 C21.95 53.75, 12.5 49.21, 7.11 44.66 C1.72 40.11, -0.81 34.53, 0.28 29.61 C1.37 24.68, 6.33 19.31, 13.66 15.12 C20.99 10.93, 32.32 6.98, 44.23 4.47 C56.14 1.95, 77.48 0.79, 85.11 0.05 C92.74 -0.7, 89.19 -0.1, 90 0 C90.81 0.1, 90 0.11, 90 0.64" stroke="#000000" stroke-width="1" fill="none"></path></g><g stroke-linecap="round" transform="translate(802.6428571428805 156.3571428571404) rotate(0 87.8571428571413 31.42857142857156)"><path d="M0 0 L175.71 0 L175.71 62.86 L0 62.86" stroke="none" stroke-width="0" fill="#4c6ef5"></path><path d="M0 0 C55.21 0, 110.41 0, 175.71 0 M0 0 C67.09 0, 134.18 0, 175.71 0 M175.71 0 C175.71 18.5, 175.71 37, 175.71 62.86 M175.71 0 C175.71 15.44, 175.71 30.88, 175.71 62.86 M175.71 62.86 C110.61 62.86, 45.51 62.86, 0 62.86 M175.71 62.86 C135.94 62.86, 96.16 62.86, 0 62.86 M0 62.86 C0 43.59, 0 24.33, 0 0 M0 62.86 C0 38.11, 0 13.35, 0 0" stroke="#000000" stroke-width="1" fill="none"></path></g><g stroke-linecap="round" transform="translate(10 10) rotate(0 115 120)"><path d="M0 0 C63.3 0, 126.59 0, 230 0 M230 0 C230 70.07, 230 140.14, 230 240 M230 240 C182.95 240, 135.91 240, 0 240 M0 240 C0 163.96, 0 87.92, 0 0" stroke="#495057" stroke-width="1.5" fill="none" stroke-dasharray="1.5 7"></path></g><g stroke-linecap="round" transform="translate(332.14285714285506 14.285714285715585) rotate(0 115 120)"><path d="M0 0 C55.07 0, 110.14 0, 230 0 M230 0 C230 76.34, 230 152.68, 230 240 M230 240 C183.13 240, 136.27 240, 0 240 M0 240 C0 170.61, 0 101.22, 0 0" stroke="#495057" stroke-width="1.5" fill="none" stroke-dasharray="1.5 7"></path></g><g stroke-linecap="round" transform="translate(51.428571428579744 52.85714285714312) rotate(0 72.85714285714312 77.85714285714266)"><path d="M72.86 0 C82.97 -1.17, 95.22 2.89, 104.78 7.87 C114.35 12.86, 123.7 20.94, 130.25 29.9 C136.81 38.86, 141.9 50.51, 144.11 61.63 C146.33 72.75, 146.13 85.6, 143.56 96.64 C141 107.68, 135.54 119.13, 128.71 127.85 C121.88 136.57, 112.28 144.31, 102.56 148.95 C92.84 153.59, 81.04 156.05, 70.4 155.67 C59.77 155.29, 48.15 151.98, 38.74 146.65 C29.34 141.33, 20.25 132.91, 13.98 123.72 C7.71 114.53, 3 102.71, 1.13 91.51 C-0.74 80.32, -0.13 67.48, 2.78 56.54 C5.7 45.6, 11.51 34.35, 18.61 25.88 C25.71 17.42, 36.37 10.05, 45.41 5.74 C54.45 1.42, 68.28 0.7, 72.86 0 C77.43 -0.7, 72.86 0.26, 72.86 1.56 M72.86 0 C82.97 -1.17, 95.22 2.89, 104.78 7.87 C114.35 12.86, 123.7 20.94, 130.25 29.9 C136.81 38.86, 141.9 50.51, 144.11 61.63 C146.33 72.75, 146.13 85.6, 143.56 96.64 C141 107.68, 135.54 119.13, 128.71 127.85 C121.88 136.57, 112.28 144.31, 102.56 148.95 C92.84 153.59, 81.04 156.05, 70.4 155.67 C59.77 155.29, 48.15 151.98, 38.74 146.65 C29.34 141.33, 20.25 132.91, 13.98 123.72 C7.71 114.53, 3 102.71, 1.13 91.51 C-0.74 80.32, -0.13 67.48, 2.78 56.54 C5.7 45.6, 11.51 34.35, 18.61 25.88 C25.71 17.42, 36.37 10.05, 45.41 5.74 C54.45 1.42, 68.28 0.7, 72.86 0 C77.43 -0.7, 72.86 0.26, 72.86 1.56" stroke="none" stroke-width="0" fill="#fa5252"></path><path d="M72.86 0 C82.97 -1.17, 95.22 2.89, 104.78 7.87 C114.35 12.86, 123.7 20.94, 130.25 29.9 C136.81 38.86, 141.9 50.51, 144.11 61.63 C146.33 72.75, 146.13 85.6, 143.56 96.64 C141 107.68, 135.54 119.13, 128.71 127.85 C121.88 136.57, 112.28 144.31, 102.56 148.95 C92.84 153.59, 81.04 156.05, 70.4 155.67 C59.77 155.29, 48.15 151.98, 38.74 146.65 C29.34 141.33, 20.25 132.91, 13.98 123.72 C7.71 114.53, 3 102.71, 1.13 91.51 C-0.74 80.32, -0.13 67.48, 2.78 56.54 C5.7 45.6, 11.51 34.35, 18.61 25.88 C25.71 17.42, 36.37 10.05, 45.41 5.74 C54.45 1.42, 68.28 0.7, 72.86 0 C77.43 -0.7, 72.86 0.26, 72.86 1.56 M72.86 0 C82.97 -1.17, 95.22 2.89, 104.78 7.87 C114.35 12.86, 123.7 20.94, 130.25 29.9 C136.81 38.86, 141.9 50.51, 144.11 61.63 C146.33 72.75, 146.13 85.6, 143.56 96.64 C141 107.68, 135.54 119.13, 128.71 127.85 C121.88 136.57, 112.28 144.31, 102.56 148.95 C92.84 153.59, 81.04 156.05, 70.4 155.67 C59.77 155.29, 48.15 151.98, 38.74 146.65 C29.34 141.33, 20.25 132.91, 13.98 123.72 C7.71 114.53, 3 102.71, 1.13 91.51 C-0.74 80.32, -0.13 67.48, 2.78 56.54 C5.7 45.6, 11.51 34.35, 18.61 25.88 C25.71 17.42, 36.37 10.05, 45.41 5.74 C54.45 1.42, 68.28 0.7, 72.86 0 C77.43 -0.7, 72.86 0.26, 72.86 1.56" stroke="#000000" stroke-width="1" fill="none"></path></g><g stroke-linecap="round" transform="translate(372.85714285714494 62.85714285714312) rotate(0 73.57142857142753 71.42857142857156)"><path d="M0 0 L147.14 0 L147.14 142.86 L0 142.86" stroke="none" stroke-width="0" fill="#4c6ef5"></path><path d="M0 0 C42.2 0, 84.41 0, 147.14 0 M0 0 C46.53 0, 93.05 0, 147.14 0 M147.14 0 C147.14 33.95, 147.14 67.91, 147.14 142.86 M147.14 0 C147.14 45.63, 147.14 91.25, 147.14 142.86 M147.14 142.86 C94.2 142.86, 41.25 142.86, 0 142.86 M147.14 142.86 C109.01 142.86, 70.87 142.86, 0 142.86 M0 142.86 C0 102.72, 0 62.59, 0 0 M0 142.86 C0 99.74, 0 56.63, 0 0" stroke="#000000" stroke-width="1" fill="none"></path></g><g transform="translate(108.57142857143481 270.9999999999982) rotate(0 12 23)"><text x="0" y="32" font-family="Virgil, Segoe UI Emoji" font-size="36px" fill="#000000" text-anchor="start" style="white-space: pre;" direction="ltr">a</text></g><g transform="translate(437.14285714285506 278.28571428571377) rotate(0 9 23)"><text x="0" y="32" font-family="Virgil, Segoe UI Emoji" font-size="36px" fill="#000000" text-anchor="start" style="white-space: pre;" direction="ltr">b</text></g><g stroke-linecap="round"><g transform="translate(591.4285714285652 128.10404169817957) rotate(0 68.57142857142935 1.1929378269651352)"><path d="M0 0 C33.32 0.58, 66.63 1.16, 137.14 2.39 M0 0 C49.77 0.87, 99.55 1.73, 137.14 2.39" stroke="#000000" stroke-width="4" fill="none"></path></g><g transform="translate(591.4285714285652 128.10404169817957) rotate(0 68.57142857142935 1.1929378269651352)"><path d="M108.78 12.15 C115.67 9.78, 122.56 7.41, 137.14 2.39 M108.78 12.15 C119.07 8.61, 129.37 5.06, 137.14 2.39" stroke="#000000" stroke-width="4" fill="none"></path></g><g transform="translate(591.4285714285652 128.10404169817957) rotate(0 68.57142857142935 1.1929378269651352)"><path d="M109.13 -8.36 C115.94 -5.75, 122.74 -3.14, 137.14 2.39 M109.13 -8.36 C119.3 -4.46, 129.47 -0.56, 137.14 2.39" stroke="#000000" stroke-width="4" fill="none"></path></g></g><g stroke-linecap="round"><g transform="translate(128.80198915012443 14.697106690777218) rotate(0 -0.6826401446651289 116.73146473779298)"><path d="M0 0 C-0.52 89.22, -1.04 178.43, -1.37 233.46" stroke="#495057" stroke-width="1.5" fill="none" stroke-dasharray="1.5 7"></path></g></g><g stroke-linecap="round"><g transform="translate(18.214285714289872 130.74593128390734) rotate(0 107.85714285714312 0.6826401446651289)"><path d="M0 0 C59.78 0.38, 119.56 0.76, 215.71 1.37" stroke="#495057" stroke-width="1.5" fill="none" stroke-dasharray="1.5 7"></path></g></g><g stroke-linecap="round"><g transform="translate(448.8019891501244 16.125678119346958) rotate(0 -0.6826401446651289 116.73146473779343)"><path d="M0 0 C-0.43 72.8, -0.85 145.59, -1.37 233.46" stroke="#495057" stroke-width="1.5" fill="none" stroke-dasharray="1.5 7"></path></g></g><g stroke-linecap="round"><g transform="translate(338.2142857142899 132.17450271247708) rotate(0 107.85714285714312 0.6826401446651289)"><path d="M0 0 C78.42 0.5, 156.85 0.99, 215.71 1.37" stroke="#495057" stroke-width="1.5" fill="none" stroke-dasharray="1.5 7"></path></g></g><g stroke-linecap="round"><g transform="translate(890.2305605786933 17.554249547920335) rotate(0 -0.6826401446651289 116.73146473779298)"><path d="M0 0 C-0.38 64.67, -0.76 129.33, -1.37 233.46" stroke="#495057" stroke-width="1.5" fill="none" stroke-dasharray="1.5 7"></path></g></g><g stroke-linecap="round"><g transform="translate(779.6428571428587 133.60307414105046) rotate(0 107.85714285714312 0.6826401446651289)"><path d="M0 0 C50.88 0.32, 101.77 0.64, 215.71 1.37" stroke="#495057" stroke-width="1.5" fill="none" stroke-dasharray="1.5 7"></path></g></g></svg>