<svg version="1.1" xmlns="http://www.w3.org/2000/svg" viewBox="0 0 466.1709956710001 222.85714285714312" width="932.3419913420003" height="445.71428571428623">
  <!-- svg-source:excalidraw -->
  
  <defs>
    <style>
      @font-face {
        font-family: "Virgil";
        src: url("https://excalidraw.com/Virgil.woff2");
      }
      @font-face {
        font-family: "Cascadia";
        src: url("https://excalidraw.com/Cascadia.woff2");
      }
    </style>
  </defs>
  <g stroke-linecap="round" transform="translate(10 10) rotate(0 222.85714285714312 101.42857142857156)"><path d="M0 0 C110.01 0, 220.02 0, 445.71 0 M445.71 0 C445.71 80.09, 445.71 160.18, 445.71 202.86 M445.71 202.86 C318.7 202.86, 191.68 202.86, 0 202.86 M0 202.86 C0 135.24, 0 67.63, 0 0" stroke="#495057" stroke-width="1.5" fill="none" stroke-dasharray="1.5 7"></path></g><g stroke-linecap="round"><g transform="translate(227.14285714286234 17.142857142857792) rotate(0 1.428571428570649 95.71428571428532)"><path d="M0 0 C0.88 58.78, 1.75 117.55, 2.86 191.43" stroke="#495057" stroke-width="1.5" fill="none" stroke-dasharray="1.5 7"></path></g></g><g stroke-linecap="round"><g transform="translate(344.2857142857101 16.428571428574287) rotate(0 1.428571428570649 95.71428571428532)"><path d="M0 0 C0.87 58.14, 1.74 116.29, 2.86 191.43" stroke="#495057" stroke-width="1.5" fill="none" stroke-dasharray="1.5 7"></path></g></g><g stroke-linecap="round" transform="translate(47.142857142855064 27.857142857145845) rotate(0 79.28571428571558 80)"><path d="M79.29 0 C90.01 -1.21, 102.95 2.8, 113.15 7.67 C123.36 12.53, 133.36 20.4, 140.53 29.2 C147.7 37.99, 153.41 49.41, 156.17 60.46 C158.93 71.51, 159.26 84.3, 157.07 95.47 C154.89 106.65, 149.78 118.35, 143.07 127.52 C136.37 136.68, 126.78 145.06, 116.84 150.46 C106.9 155.85, 94.69 159.3, 83.42 159.89 C72.14 160.48, 59.64 158.34, 49.2 154.02 C38.75 149.69, 28.36 142.37, 20.75 133.96 C13.13 125.54, 6.84 114.44, 3.51 103.55 C0.19 92.67, -0.8 79.91, 0.8 68.64 C2.41 57.36, 6.91 45.4, 13.13 35.9 C19.36 26.4, 28.49 17.53, 38.14 11.61 C47.79 5.7, 64.18 2.37, 71.04 0.43 C77.89 -1.5, 77.91 -0.19, 79.29 0 C80.66 0.19, 79.29 0.27, 79.29 1.6 M79.29 0 C90.01 -1.21, 102.95 2.8, 113.15 7.67 C123.36 12.53, 133.36 20.4, 140.53 29.2 C147.7 37.99, 153.41 49.41, 156.17 60.46 C158.93 71.51, 159.26 84.3, 157.07 95.47 C154.89 106.65, 149.78 118.35, 143.07 127.52 C136.37 136.68, 126.78 145.06, 116.84 150.46 C106.9 155.85, 94.69 159.3, 83.42 159.89 C72.14 160.48, 59.64 158.34, 49.2 154.02 C38.75 149.69, 28.36 142.37, 20.75 133.96 C13.13 125.54, 6.84 114.44, 3.51 103.55 C0.19 92.67, -0.8 79.91, 0.8 68.64 C2.41 57.36, 6.91 45.4, 13.13 35.9 C19.36 26.4, 28.49 17.53, 38.14 11.61 C47.79 5.7, 64.18 2.37, 71.04 0.43 C77.89 -1.5, 77.91 -0.19, 79.29 0 C80.66 0.19, 79.29 0.27, 79.29 1.6" stroke="#495057" stroke-width="4" fill="none"></path></g><g stroke-linecap="round"><g transform="translate(230.00000000000364 107.85714285714494) rotate(0 58.57142857142753 -0.7142857142857792)"><path d="M0 0 C33.22 -0.41, 66.45 -0.81, 117.14 -1.43" stroke="#495057" stroke-width="1.5" fill="none" stroke-dasharray="1.5 7"></path></g></g><g stroke-linecap="round" transform="translate(243.57142857143117 19.285714285716494) rotate(0 40.00000000000182 37.85714285714266)"><path d="M40 0 C47.47 -0.51, 57.25 2.9, 63.6 7.29 C69.96 11.69, 75.72 19.27, 78.11 26.36 C80.5 33.46, 80.43 42.8, 77.94 49.86 C75.44 56.93, 69.56 64.43, 63.14 68.74 C56.72 73.04, 47.3 75.82, 39.43 75.71 C31.56 75.6, 22.22 72.58, 15.94 68.1 C9.65 63.62, 4 55.96, 1.72 48.83 C-0.56 41.71, -0.35 32.37, 2.25 25.34 C4.85 18.31, 11.03 10.89, 17.33 6.67 C23.62 2.45, 36.22 0.99, 40 0 C43.78 -0.99, 40 0.13, 40 0.76 M40 0 C47.47 -0.51, 57.25 2.9, 63.6 7.29 C69.96 11.69, 75.72 19.27, 78.11 26.36 C80.5 33.46, 80.43 42.8, 77.94 49.86 C75.44 56.93, 69.56 64.43, 63.14 68.74 C56.72 73.04, 47.3 75.82, 39.43 75.71 C31.56 75.6, 22.22 72.58, 15.94 68.1 C9.65 63.62, 4 55.96, 1.72 48.83 C-0.56 41.71, -0.35 32.37, 2.25 25.34 C4.85 18.31, 11.03 10.89, 17.33 6.67 C23.62 2.45, 36.22 0.99, 40 0 C43.78 -0.99, 40 0.13, 40 0.76" stroke="#495057" stroke-width="2" fill="none"></path></g><g stroke-linecap="round" transform="translate(250.00000000000364 120.00000000000273) rotate(0 40.00000000000182 37.85714285714266)"><path d="M40 0 C47.47 -0.51, 57.25 2.9, 63.6 7.29 C69.96 11.69, 75.72 19.27, 78.11 26.36 C80.5 33.46, 80.43 42.8, 77.94 49.86 C75.44 56.93, 69.56 64.43, 63.14 68.74 C56.72 73.04, 47.3 75.82, 39.43 75.71 C31.56 75.6, 22.22 72.58, 15.94 68.1 C9.65 63.62, 4 55.96, 1.72 48.83 C-0.56 41.71, -0.35 32.37, 2.25 25.34 C4.85 18.31, 11.03 10.89, 17.33 6.67 C23.62 2.45, 36.22 0.99, 40 0 C43.78 -0.99, 40 0.13, 40 0.76 M40 0 C47.47 -0.51, 57.25 2.9, 63.6 7.29 C69.96 11.69, 75.72 19.27, 78.11 26.36 C80.5 33.46, 80.43 42.8, 77.94 49.86 C75.44 56.93, 69.56 64.43, 63.14 68.74 C56.72 73.04, 47.3 75.82, 39.43 75.71 C31.56 75.6, 22.22 72.58, 15.94 68.1 C9.65 63.62, 4 55.96, 1.72 48.83 C-0.56 41.71, -0.35 32.37, 2.25 25.34 C4.85 18.31, 11.03 10.89, 17.33 6.67 C23.62 2.45, 36.22 0.99, 40 0 C43.78 -0.99, 40 0.13, 40 0.76" stroke="#495057" stroke-width="2" fill="none"></path></g><g stroke-linecap="round"><g transform="translate(404.2857142857247 12.73809523809632) rotate(0 0.178571428570649 98.21428571428532)"><path d="M0 0 C0.09 49.12, 0.18 98.25, 0.36 196.43" stroke="#495057" stroke-width="1.5" fill="none" stroke-dasharray="1.5 7"></path></g></g><g stroke-linecap="round"><g transform="translate(348.57142857143117 56.42857142857338) rotate(0 29.285714285713766 0)"><path d="M0 0 C13.68 0, 27.35 0, 58.57 0" stroke="#495057" stroke-width="1.5" fill="none" stroke-dasharray="1.5 7"></path></g></g><g stroke-linecap="round"><g transform="translate(347.8571428571413 106.42857142857338) rotate(0 29.285714285713766 0)"><path d="M0 0 C14.78 0, 29.57 0, 58.57 0" stroke="#495057" stroke-width="1.5" fill="none" stroke-dasharray="1.5 7"></path></g></g><g stroke-linecap="round"><g transform="translate(349.28571428571377 159.28571428571558) rotate(0 29.285714285713766 0)"><path d="M0 0 C17.57 0, 35.14 0, 58.57 0" stroke="#495057" stroke-width="1.5" fill="none" stroke-dasharray="1.5 7"></path></g></g><g stroke-linecap="round" transform="translate(358.5714285714348 15.714285714287143) rotate(0 17.857142857143117 17.142857142857338)"><path d="M17.86 0 C21.49 -0.22, 26.4 1.65, 29.34 4.01 C32.27 6.37, 34.78 10.55, 35.44 14.17 C36.11 17.78, 35.23 22.53, 33.32 25.71 C31.41 28.9, 27.56 32, 23.96 33.25 C20.37 34.51, 15.35 34.51, 11.75 33.25 C8.15 32, 4.31 28.9, 2.39 25.71 C0.48 22.53, -0.39 17.78, 0.27 14.17 C0.94 10.55, 3.45 6.37, 6.38 4.01 C9.31 1.65, 15.94 0.61, 17.86 0 C19.77 -0.61, 17.86 0.06, 17.86 0.34 M17.86 0 C21.49 -0.22, 26.4 1.65, 29.34 4.01 C32.27 6.37, 34.78 10.55, 35.44 14.17 C36.11 17.78, 35.23 22.53, 33.32 25.71 C31.41 28.9, 27.56 32, 23.96 33.25 C20.37 34.51, 15.35 34.51, 11.75 33.25 C8.15 32, 4.31 28.9, 2.39 25.71 C0.48 22.53, -0.39 17.78, 0.27 14.17 C0.94 10.55, 3.45 6.37, 6.38 4.01 C9.31 1.65, 15.94 0.61, 17.86 0 C19.77 -0.61, 17.86 0.06, 17.86 0.34" stroke="#495057" stroke-width="1" fill="none"></path></g><g stroke-linecap="round" transform="translate(357.85714285714494 62.14285714285779) rotate(0 17.857142857143117 17.142857142857338)"><path d="M17.86 0 C21.49 -0.22, 26.4 1.65, 29.34 4.01 C32.27 6.37, 34.78 10.55, 35.44 14.17 C36.11 17.78, 35.23 22.53, 33.32 25.71 C31.41 28.9, 27.56 32, 23.96 33.25 C20.37 34.51, 15.35 34.51, 11.75 33.25 C8.15 32, 4.31 28.9, 2.39 25.71 C0.48 22.53, -0.39 17.78, 0.27 14.17 C0.94 10.55, 3.45 6.37, 6.38 4.01 C9.31 1.65, 15.94 0.61, 17.86 0 C19.77 -0.61, 17.86 0.06, 17.86 0.34 M17.86 0 C21.49 -0.22, 26.4 1.65, 29.34 4.01 C32.27 6.37, 34.78 10.55, 35.44 14.17 C36.11 17.78, 35.23 22.53, 33.32 25.71 C31.41 28.9, 27.56 32, 23.96 33.25 C20.37 34.51, 15.35 34.51, 11.75 33.25 C8.15 32, 4.31 28.9, 2.39 25.71 C0.48 22.53, -0.39 17.78, 0.27 14.17 C0.94 10.55, 3.45 6.37, 6.38 4.01 C9.31 1.65, 15.94 0.61, 17.86 0 C19.77 -0.61, 17.86 0.06, 17.86 0.34" stroke="#495057" stroke-width="1" fill="none"></path></g><g stroke-linecap="round" transform="translate(355.0000000000073 115.00000000000273) rotate(0 17.857142857143117 17.142857142857338)"><path d="M17.86 0 C21.49 -0.22, 26.4 1.65, 29.34 4.01 C32.27 6.37, 34.78 10.55, 35.44 14.17 C36.11 17.78, 35.23 22.53, 33.32 25.71 C31.41 28.9, 27.56 32, 23.96 33.25 C20.37 34.51, 15.35 34.51, 11.75 33.25 C8.15 32, 4.31 28.9, 2.39 25.71 C0.48 22.53, -0.39 17.78, 0.27 14.17 C0.94 10.55, 3.45 6.37, 6.38 4.01 C9.31 1.65, 15.94 0.61, 17.86 0 C19.77 -0.61, 17.86 0.06, 17.86 0.34 M17.86 0 C21.49 -0.22, 26.4 1.65, 29.34 4.01 C32.27 6.37, 34.78 10.55, 35.44 14.17 C36.11 17.78, 35.23 22.53, 33.32 25.71 C31.41 28.9, 27.56 32, 23.96 33.25 C20.37 34.51, 15.35 34.51, 11.75 33.25 C8.15 32, 4.31 28.9, 2.39 25.71 C0.48 22.53, -0.39 17.78, 0.27 14.17 C0.94 10.55, 3.45 6.37, 6.38 4.01 C9.31 1.65, 15.94 0.61, 17.86 0 C19.77 -0.61, 17.86 0.06, 17.86 0.34" stroke="#495057" stroke-width="1" fill="none"></path></g><g stroke-linecap="round" transform="translate(357.8571428571522 166.42857142857338) rotate(0 17.857142857143117 17.142857142857338)"><path d="M17.86 0 C21.49 -0.22, 26.4 1.65, 29.34 4.01 C32.27 6.37, 34.78 10.55, 35.44 14.17 C36.11 17.78, 35.23 22.53, 33.32 25.71 C31.41 28.9, 27.56 32, 23.96 33.25 C20.37 34.51, 15.35 34.51, 11.75 33.25 C8.15 32, 4.31 28.9, 2.39 25.71 C0.48 22.53, -0.39 17.78, 0.27 14.17 C0.94 10.55, 3.45 6.37, 6.38 4.01 C9.31 1.65, 15.94 0.61, 17.86 0 C19.77 -0.61, 17.86 0.06, 17.86 0.34 M17.86 0 C21.49 -0.22, 26.4 1.65, 29.34 4.01 C32.27 6.37, 34.78 10.55, 35.44 14.17 C36.11 17.78, 35.23 22.53, 33.32 25.71 C31.41 28.9, 27.56 32, 23.96 33.25 C20.37 34.51, 15.35 34.51, 11.75 33.25 C8.15 32, 4.31 28.9, 2.39 25.71 C0.48 22.53, -0.39 17.78, 0.27 14.17 C0.94 10.55, 3.45 6.37, 6.38 4.01 C9.31 1.65, 15.94 0.61, 17.86 0 C19.77 -0.61, 17.86 0.06, 17.86 0.34" stroke="#495057" stroke-width="1" fill="none"></path></g><g stroke-linecap="round"><g transform="translate(434.6233766233745 13.77922077922176) rotate(0 -0.23809523809723032 98.21428571428532)"><path d="M0 0 C-0.15 60.14, -0.29 120.27, -0.48 196.43" stroke="#495057" stroke-width="1.5" fill="none" stroke-dasharray="1.5 7"></path></g></g><g stroke-linecap="round"><g transform="translate(407.59956709956896 33.66017316017496) rotate(0 23.452380952381645 0)"><path d="M0 0 C12.2 0, 24.41 0, 46.9 0" stroke="#495057" stroke-width="1.5" fill="none" stroke-dasharray="1.5 7"></path></g></g><g stroke-linecap="round"><g transform="translate(408.4329004328938 57.82683982684284) rotate(0 23.035714285715585 0)"><path d="M0 0 C16.55 0, 33.1 0, 46.07 0" stroke="#495057" stroke-width="1.5" fill="none" stroke-dasharray="1.5 7"></path></g></g><g stroke-linecap="round"><g transform="translate(410.09956709956896 106.993506493508) rotate(0 23.035714285715585 0)"><path d="M0 0 C13.11 0, 26.22 0, 46.07 0" stroke="#495057" stroke-width="1.5" fill="none" stroke-dasharray="1.5 7"></path></g></g><g stroke-linecap="round"><g transform="translate(407.5995670995617 81.16017316017587) rotate(0 22.619047619047706 0)"><path d="M0 0 C16.84 0, 33.69 0, 45.24 0" stroke="#495057" stroke-width="1.5" fill="none" stroke-dasharray="1.5 7"></path></g></g><g stroke-linecap="round"><g transform="translate(408.43290043290835 134.493506493508) rotate(0 23.452380952383464 -0.41666666666696983)"><path d="M0 0 C16.81 -0.3, 33.62 -0.6, 46.9 -0.83" stroke="#495057" stroke-width="1.5" fill="none" stroke-dasharray="1.5 7"></path></g></g><g stroke-linecap="round"><g transform="translate(408.43290043289744 159.493506493508) rotate(0 23.035714285713766 0)"><path d="M0 0 C12.3 0, 24.6 0, 46.07 0" stroke="#495057" stroke-width="1.5" fill="none" stroke-dasharray="1.5 7"></path></g></g><g stroke-linecap="round"><g transform="translate(406.76623376622956 184.4935064935098) rotate(0 23.452380952381645 0)"><path d="M0 0 C15.7 0, 31.39 0, 46.9 0" stroke="#495057" stroke-width="1.5" fill="none" stroke-dasharray="1.5 7"></path></g></g><g stroke-linecap="round" transform="translate(412.3614718614699 15.68398268398596) rotate(0 7.023809523810996 7.142857142857338)"><path d="M7.02 0 C8.45 -0.09, 10.39 0.69, 11.54 1.67 C12.69 2.65, 13.68 4.4, 13.94 5.9 C14.2 7.41, 13.86 9.39, 13.11 10.71 C12.35 12.04, 10.84 13.33, 9.43 13.85 C8.01 14.38, 6.04 14.38, 4.62 13.85 C3.21 13.33, 1.69 12.04, 0.94 10.71 C0.19 9.39, -0.15 7.41, 0.11 5.9 C0.37 4.4, 1.36 2.65, 2.51 1.67 C3.66 0.69, 6.27 0.25, 7.02 0 C7.78 -0.25, 7.02 0.02, 7.02 0.14 M7.02 0 C8.45 -0.09, 10.39 0.69, 11.54 1.67 C12.69 2.65, 13.68 4.4, 13.94 5.9 C14.2 7.41, 13.86 9.39, 13.11 10.71 C12.35 12.04, 10.84 13.33, 9.43 13.85 C8.01 14.38, 6.04 14.38, 4.62 13.85 C3.21 13.33, 1.69 12.04, 0.94 10.71 C0.19 9.39, -0.15 7.41, 0.11 5.9 C0.37 4.4, 1.36 2.65, 2.51 1.67 C3.66 0.69, 6.27 0.25, 7.02 0 C7.78 -0.25, 7.02 0.02, 7.02 0.14" stroke="#495057" stroke-width="1" fill="none"></path></g><g stroke-linecap="round" transform="translate(413.19480519480203 39.85064935064838) rotate(0 7.023809523810996 7.142857142857338)"><path d="M7.02 0 C8.45 -0.09, 10.39 0.69, 11.54 1.67 C12.69 2.65, 13.68 4.4, 13.94 5.9 C14.2 7.41, 13.86 9.39, 13.11 10.71 C12.35 12.04, 10.84 13.33, 9.43 13.85 C8.01 14.38, 6.04 14.38, 4.62 13.85 C3.21 13.33, 1.69 12.04, 0.94 10.71 C0.19 9.39, -0.15 7.41, 0.11 5.9 C0.37 4.4, 1.36 2.65, 2.51 1.67 C3.66 0.69, 6.27 0.25, 7.02 0 C7.78 -0.25, 7.02 0.02, 7.02 0.14 M7.02 0 C8.45 -0.09, 10.39 0.69, 11.54 1.67 C12.69 2.65, 13.68 4.4, 13.94 5.9 C14.2 7.41, 13.86 9.39, 13.11 10.71 C12.35 12.04, 10.84 13.33, 9.43 13.85 C8.01 14.38, 6.04 14.38, 4.62 13.85 C3.21 13.33, 1.69 12.04, 0.94 10.71 C0.19 9.39, -0.15 7.41, 0.11 5.9 C0.37 4.4, 1.36 2.65, 2.51 1.67 C3.66 0.69, 6.27 0.25, 7.02 0 C7.78 -0.25, 7.02 0.02, 7.02 0.14" stroke="#495057" stroke-width="1" fill="none"></path></g><g stroke-linecap="round" transform="translate(413.19480519480203 64.85064935064929) rotate(0 7.023809523810996 7.142857142857338)"><path d="M7.02 0 C8.45 -0.09, 10.39 0.69, 11.54 1.67 C12.69 2.65, 13.68 4.4, 13.94 5.9 C14.2 7.41, 13.86 9.39, 13.11 10.71 C12.35 12.04, 10.84 13.33, 9.43 13.85 C8.01 14.38, 6.04 14.38, 4.62 13.85 C3.21 13.33, 1.69 12.04, 0.94 10.71 C0.19 9.39, -0.15 7.41, 0.11 5.9 C0.37 4.4, 1.36 2.65, 2.51 1.67 C3.66 0.69, 6.27 0.25, 7.02 0 C7.78 -0.25, 7.02 0.02, 7.02 0.14 M7.02 0 C8.45 -0.09, 10.39 0.69, 11.54 1.67 C12.69 2.65, 13.68 4.4, 13.94 5.9 C14.2 7.41, 13.86 9.39, 13.11 10.71 C12.35 12.04, 10.84 13.33, 9.43 13.85 C8.01 14.38, 6.04 14.38, 4.62 13.85 C3.21 13.33, 1.69 12.04, 0.94 10.71 C0.19 9.39, -0.15 7.41, 0.11 5.9 C0.37 4.4, 1.36 2.65, 2.51 1.67 C3.66 0.69, 6.27 0.25, 7.02 0 C7.78 -0.25, 7.02 0.02, 7.02 0.14" stroke="#495057" stroke-width="1" fill="none"></path></g><g stroke-linecap="round" transform="translate(411.5281385281378 88.18398268398323) rotate(0 7.023809523810996 7.142857142857338)"><path d="M7.02 0 C8.45 -0.09, 10.39 0.69, 11.54 1.67 C12.69 2.65, 13.68 4.4, 13.94 5.9 C14.2 7.41, 13.86 9.39, 13.11 10.71 C12.35 12.04, 10.84 13.33, 9.43 13.85 C8.01 14.38, 6.04 14.38, 4.62 13.85 C3.21 13.33, 1.69 12.04, 0.94 10.71 C0.19 9.39, -0.15 7.41, 0.11 5.9 C0.37 4.4, 1.36 2.65, 2.51 1.67 C3.66 0.69, 6.27 0.25, 7.02 0 C7.78 -0.25, 7.02 0.02, 7.02 0.14 M7.02 0 C8.45 -0.09, 10.39 0.69, 11.54 1.67 C12.69 2.65, 13.68 4.4, 13.94 5.9 C14.2 7.41, 13.86 9.39, 13.11 10.71 C12.35 12.04, 10.84 13.33, 9.43 13.85 C8.01 14.38, 6.04 14.38, 4.62 13.85 C3.21 13.33, 1.69 12.04, 0.94 10.71 C0.19 9.39, -0.15 7.41, 0.11 5.9 C0.37 4.4, 1.36 2.65, 2.51 1.67 C3.66 0.69, 6.27 0.25, 7.02 0 C7.78 -0.25, 7.02 0.02, 7.02 0.14" stroke="#495057" stroke-width="1" fill="none"></path></g><g stroke-linecap="round" transform="translate(410.69480519480203 114.85064935065111) rotate(0 7.023809523810996 7.142857142857338)"><path d="M7.02 0 C8.45 -0.09, 10.39 0.69, 11.54 1.67 C12.69 2.65, 13.68 4.4, 13.94 5.9 C14.2 7.41, 13.86 9.39, 13.11 10.71 C12.35 12.04, 10.84 13.33, 9.43 13.85 C8.01 14.38, 6.04 14.38, 4.62 13.85 C3.21 13.33, 1.69 12.04, 0.94 10.71 C0.19 9.39, -0.15 7.41, 0.11 5.9 C0.37 4.4, 1.36 2.65, 2.51 1.67 C3.66 0.69, 6.27 0.25, 7.02 0 C7.78 -0.25, 7.02 0.02, 7.02 0.14 M7.02 0 C8.45 -0.09, 10.39 0.69, 11.54 1.67 C12.69 2.65, 13.68 4.4, 13.94 5.9 C14.2 7.41, 13.86 9.39, 13.11 10.71 C12.35 12.04, 10.84 13.33, 9.43 13.85 C8.01 14.38, 6.04 14.38, 4.62 13.85 C3.21 13.33, 1.69 12.04, 0.94 10.71 C0.19 9.39, -0.15 7.41, 0.11 5.9 C0.37 4.4, 1.36 2.65, 2.51 1.67 C3.66 0.69, 6.27 0.25, 7.02 0 C7.78 -0.25, 7.02 0.02, 7.02 0.14" stroke="#495057" stroke-width="1" fill="none"></path></g><g stroke-linecap="round" transform="translate(411.52813852813415 141.51731601731808) rotate(0 7.023809523810996 7.142857142857338)"><path d="M7.02 0 C8.45 -0.09, 10.39 0.69, 11.54 1.67 C12.69 2.65, 13.68 4.4, 13.94 5.9 C14.2 7.41, 13.86 9.39, 13.11 10.71 C12.35 12.04, 10.84 13.33, 9.43 13.85 C8.01 14.38, 6.04 14.38, 4.62 13.85 C3.21 13.33, 1.69 12.04, 0.94 10.71 C0.19 9.39, -0.15 7.41, 0.11 5.9 C0.37 4.4, 1.36 2.65, 2.51 1.67 C3.66 0.69, 6.27 0.25, 7.02 0 C7.78 -0.25, 7.02 0.02, 7.02 0.14 M7.02 0 C8.45 -0.09, 10.39 0.69, 11.54 1.67 C12.69 2.65, 13.68 4.4, 13.94 5.9 C14.2 7.41, 13.86 9.39, 13.11 10.71 C12.35 12.04, 10.84 13.33, 9.43 13.85 C8.01 14.38, 6.04 14.38, 4.62 13.85 C3.21 13.33, 1.69 12.04, 0.94 10.71 C0.19 9.39, -0.15 7.41, 0.11 5.9 C0.37 4.4, 1.36 2.65, 2.51 1.67 C3.66 0.69, 6.27 0.25, 7.02 0 C7.78 -0.25, 7.02 0.02, 7.02 0.14" stroke="#495057" stroke-width="1" fill="none"></path></g><g stroke-linecap="round" transform="translate(410.69480519480567 167.3506493506502) rotate(0 7.023809523810996 7.142857142857338)"><path d="M7.02 0 C8.45 -0.09, 10.39 0.69, 11.54 1.67 C12.69 2.65, 13.68 4.4, 13.94 5.9 C14.2 7.41, 13.86 9.39, 13.11 10.71 C12.35 12.04, 10.84 13.33, 9.43 13.85 C8.01 14.38, 6.04 14.38, 4.62 13.85 C3.21 13.33, 1.69 12.04, 0.94 10.71 C0.19 9.39, -0.15 7.41, 0.11 5.9 C0.37 4.4, 1.36 2.65, 2.51 1.67 C3.66 0.69, 6.27 0.25, 7.02 0 C7.78 -0.25, 7.02 0.02, 7.02 0.14 M7.02 0 C8.45 -0.09, 10.39 0.69, 11.54 1.67 C12.69 2.65, 13.68 4.4, 13.94 5.9 C14.2 7.41, 13.86 9.39, 13.11 10.71 C12.35 12.04, 10.84 13.33, 9.43 13.85 C8.01 14.38, 6.04 14.38, 4.62 13.85 C3.21 13.33, 1.69 12.04, 0.94 10.71 C0.19 9.39, -0.15 7.41, 0.11 5.9 C0.37 4.4, 1.36 2.65, 2.51 1.67 C3.66 0.69, 6.27 0.25, 7.02 0 C7.78 -0.25, 7.02 0.02, 7.02 0.14" stroke="#495057" stroke-width="1" fill="none"></path></g><g stroke-linecap="round" transform="translate(410.6948051947984 190.68398268398323) rotate(0 7.023809523810996 7.142857142857338)"><path d="M7.02 0 C8.45 -0.09, 10.39 0.69, 11.54 1.67 C12.69 2.65, 13.68 4.4, 13.94 5.9 C14.2 7.41, 13.86 9.39, 13.11 10.71 C12.35 12.04, 10.84 13.33, 9.43 13.85 C8.01 14.38, 6.04 14.38, 4.62 13.85 C3.21 13.33, 1.69 12.04, 0.94 10.71 C0.19 9.39, -0.15 7.41, 0.11 5.9 C0.37 4.4, 1.36 2.65, 2.51 1.67 C3.66 0.69, 6.27 0.25, 7.02 0 C7.78 -0.25, 7.02 0.02, 7.02 0.14 M7.02 0 C8.45 -0.09, 10.39 0.69, 11.54 1.67 C12.69 2.65, 13.68 4.4, 13.94 5.9 C14.2 7.41, 13.86 9.39, 13.11 10.71 C12.35 12.04, 10.84 13.33, 9.43 13.85 C8.01 14.38, 6.04 14.38, 4.62 13.85 C3.21 13.33, 1.69 12.04, 0.94 10.71 C0.19 9.39, -0.15 7.41, 0.11 5.9 C0.37 4.4, 1.36 2.65, 2.51 1.67 C3.66 0.69, 6.27 0.25, 7.02 0 C7.78 -0.25, 7.02 0.02, 7.02 0.14" stroke="#495057" stroke-width="1" fill="none"></path></g></svg>