<svg version="1.1" xmlns="http://www.w3.org/2000/svg" viewBox="0 0 631.7070761676878 437" width="1263.4141523353755" height="874">
  <!-- svg-source:excalidraw -->
  
  <defs>
    <style>
      @font-face {
        font-family: "Virgil";
        src: url("https://excalidraw.com/Virgil.woff2");
      }
      @font-face {
        font-family: "Cascadia";
        src: url("https://excalidraw.com/Cascadia.woff2");
      }
    </style>
  </defs>
  <g stroke-linecap="round" transform="translate(15.707076167687774 10) rotate(0 216 184.5)"><path d="M-0.4 -0.44 C121.37 -0.84, 242.53 -0.77, 432.22 -0.81 M-0.41 0.31 C122.8 1.41, 244.72 2.21, 432 0.27 M431.51 -1.21 C430.84 99.46, 430.48 197.65, 432.1 368.11 M432.38 0.29 C434.04 74.83, 432.95 149.02, 432.44 368.73 M431.21 368.36 C327.5 370.47, 223.8 369.9, -0.19 368.87 M432.2 368.87 C293.21 367.47, 154.33 367.78, -0.09 368.71 M0.3 368.74 C-1.85 293.51, -2.27 220.31, -1.18 1.05 M-0.51 368.52 C-0.5 267.89, -0.21 167.27, -0.19 0.21" stroke="#495057" stroke-width="1" fill="none"></path></g><g stroke-linecap="round"><g transform="translate(230.5269023895264 10.91751647004861) rotate(0 -0.45060212401676836 183.64634617250414)"><path d="M-1.18 0.63 C-1.29 61.98, -0.71 306.41, -0.86 367.38 M0.4 -0.08 C0.24 60.94, -0.74 304.15, -1.3 365.41" stroke="#aaa" stroke-width="1" fill="none"></path></g></g><g stroke-linecap="round"><g transform="translate(15.707076167687774 187) rotate(0 217.472708779946 -1.6210605385806218)"><path d="M-1.12 0.21 C71.68 -0.17, 363.15 -1.34, 436.06 -1.56 M0.5 -0.72 C73.21 -1.53, 362.59 -3.08, 435.15 -3.46" stroke="#aaa" stroke-width="1" fill="none"></path></g></g><g stroke-linecap="round" transform="translate(16.707076167687774 134) rotate(0 51 49.5)"><path d="M64.78 3.04 C73.18 4.72, 83.44 10.54, 89.59 16.99 C95.74 23.44, 100.13 33.12, 101.68 41.76 C103.24 50.41, 102.44 60.92, 98.92 68.86 C95.4 76.8, 88.08 84.34, 80.57 89.4 C73.06 94.46, 62.91 98.7, 53.86 99.2 C44.81 99.7, 33.92 96.44, 26.28 92.38 C18.63 88.32, 12.5 82.33, 8 74.85 C3.5 67.36, -0.62 56.1, -0.71 47.45 C-0.79 38.8, 2.33 29.98, 7.49 22.95 C12.65 15.93, 21.98 9.13, 30.24 5.29 C38.51 1.44, 50.84 0.19, 57.09 -0.11 C63.34 -0.42, 65.82 2.66, 67.73 3.46 C69.63 4.26, 68.76 3.95, 68.52 4.68 M46.13 -0.1 C54.84 -1.36, 66.83 2.12, 75.04 6.26 C83.26 10.4, 90.74 17.34, 95.41 24.75 C100.09 32.17, 103.46 42.18, 103.09 50.75 C102.72 59.31, 98.08 68.84, 93.18 76.13 C88.28 83.41, 81.51 90.71, 73.68 94.44 C65.85 98.17, 55.15 99.61, 46.2 98.5 C37.26 97.38, 27.21 93.01, 20.03 87.76 C12.86 82.51, 6.34 75.11, 3.14 66.99 C-0.07 58.88, -0.95 47.53, 0.79 39.07 C2.54 30.61, 7.35 22.34, 13.62 16.24 C19.89 10.13, 32.93 5.29, 38.4 2.44 C43.87 -0.4, 45.03 -0.74, 46.43 -0.83 C47.84 -0.92, 46.57 0.83, 46.85 1.88" stroke="#000000" stroke-width="1" fill="none"></path></g><g stroke-linecap="round" transform="translate(124.20707616768777 131.5) rotate(0 49.5 52.5)"><path d="M55.33 -0.52 C63.75 -0.5, 73.28 5.38, 80.11 10.96 C86.94 16.55, 93.33 24.33, 96.33 33.01 C99.33 41.68, 99.79 53.81, 98.12 62.99 C96.44 72.17, 92.11 81.31, 86.28 88.08 C80.45 94.84, 71.32 100.91, 63.13 103.56 C54.95 106.2, 45.41 106.52, 37.17 103.95 C28.92 101.38, 19.53 95.09, 13.66 88.16 C7.79 81.22, 3.88 71.29, 1.97 62.36 C0.05 53.42, -0.77 43.08, 2.17 34.55 C5.11 26.02, 12.68 16.85, 19.62 11.16 C26.55 5.46, 36.37 1.77, 43.78 0.38 C51.2 -1.01, 58.99 1.51, 64.12 2.81 C69.25 4.11, 74.68 7.49, 74.55 8.17 M46.21 -0.02 C54.52 -1.23, 65.66 2.84, 73.06 7.21 C80.47 11.58, 86.18 18.77, 90.64 26.22 C95.11 33.66, 99.67 43.03, 99.85 51.89 C100.03 60.75, 96.4 71.35, 91.74 79.37 C87.08 87.39, 79.51 95.78, 71.89 99.99 C64.26 104.21, 54.49 105.65, 45.99 104.65 C37.5 103.64, 27.98 99.61, 20.9 93.96 C13.82 88.31, 6.77 78.97, 3.52 70.72 C0.26 62.48, -0.28 53.19, 1.37 44.49 C3.03 35.79, 7.73 25.64, 13.46 18.53 C19.19 11.42, 30.14 4.89, 35.76 1.85 C41.38 -1.2, 45.68 0.32, 47.17 0.26 C48.66 0.2, 44.73 0.62, 44.68 1.48" stroke="#000000" stroke-width="1" fill="none"></path></g><g stroke-linecap="round" transform="translate(232.70707616768777 130.5) rotate(0 51.5 54)"><path d="M39.15 0.8 C47.33 -1.84, 59.17 0.46, 67.78 3.46 C76.4 6.45, 85.03 11.98, 90.86 18.77 C96.68 25.56, 101.24 35.09, 102.72 44.2 C104.2 53.32, 102.87 64.75, 99.75 73.47 C96.64 82.19, 90.86 90.97, 84.02 96.51 C77.17 102.05, 67.46 105.69, 58.7 106.72 C49.94 107.76, 39.57 106.49, 31.44 102.71 C23.31 98.93, 15.12 91.69, 9.9 84.04 C4.68 76.39, 0.7 65.99, 0.14 56.79 C-0.41 47.58, 2.63 37.04, 6.57 28.81 C10.51 20.58, 17.45 12.16, 23.8 7.38 C30.14 2.61, 40.34 1.29, 44.63 0.18 C48.91 -0.93, 49.47 -0.31, 49.5 0.72 M65.71 2.31 C73.72 3.76, 81.74 8.97, 87.5 15.76 C93.27 22.55, 98.08 33.67, 100.32 43.05 C102.55 52.42, 103.42 63.26, 100.89 72 C98.36 80.74, 91.99 89.61, 85.15 95.5 C78.31 101.39, 68.44 105.72, 59.83 107.33 C51.23 108.94, 41.6 108.38, 33.5 105.15 C25.4 101.93, 16.87 95.52, 11.23 87.99 C5.58 80.45, 0.7 69.4, -0.38 59.93 C-1.45 50.47, 0.76 39.88, 4.78 31.21 C8.79 22.54, 16.59 12.93, 23.71 7.93 C30.83 2.94, 40.55 2.4, 47.48 1.25 C54.41 0.1, 62.39 0.65, 65.29 1.03 C68.18 1.42, 65.33 2.36, 64.84 3.57" stroke="#000000" stroke-width="1" fill="none"></path></g><g stroke-linecap="round" transform="translate(341.2070761676878 131.5) rotate(0 50.5 52.5)"><path d="M67.4 2.84 C75.58 5.05, 83.04 11.95, 88.61 18.77 C94.19 25.59, 99.32 34.81, 100.84 43.77 C102.37 52.73, 101.14 63.85, 97.76 72.54 C94.38 81.22, 87.8 90.47, 80.58 95.89 C73.35 101.32, 63.43 104.64, 54.41 105.09 C45.39 105.54, 34.45 102.66, 26.44 98.59 C18.44 94.52, 10.83 88.47, 6.39 80.69 C1.95 72.91, -0.3 61.16, -0.19 51.91 C-0.08 42.66, 2.31 32.79, 7.06 25.18 C11.81 17.58, 20.35 10.59, 28.3 6.28 C36.26 1.97, 47.54 -0.43, 54.81 -0.66 C62.09 -0.89, 68.57 3.28, 71.97 4.9 C75.37 6.51, 75.5 8.16, 75.21 9.04 M45.58 -0.63 C53.69 -2.33, 62.55 2.5, 70.47 6.23 C78.4 9.96, 87.83 14.25, 93.15 21.74 C98.48 29.24, 102.26 42, 102.44 51.2 C102.61 60.4, 98.79 68.95, 94.22 76.94 C89.65 84.93, 82.78 94.26, 75.01 99.15 C67.24 104.04, 56.07 106.6, 47.62 106.27 C39.16 105.95, 31.45 102.6, 24.29 97.19 C17.14 91.79, 8.67 82.38, 4.69 73.85 C0.7 65.31, -0.61 54.74, 0.37 45.97 C1.35 37.19, 5.04 28.5, 10.55 21.21 C16.05 13.91, 27.82 5.77, 33.42 2.2 C39.02 -1.37, 42.24 0.07, 44.14 -0.21 C46.05 -0.49, 44.6 -0.45, 44.84 0.5" stroke="#000000" stroke-width="1" fill="none"></path></g><g stroke-linecap="round" transform="translate(228.70707616768777 183) rotate(0 3 2)"><path d="M3.23 0.49 C4 0.29, 5.04 -0.38, 5.48 -0.32 C5.93 -0.25, 5.92 0.25, 5.9 0.89 C5.88 1.52, 5.68 3, 5.34 3.5 C5 4, 4.37 3.72, 3.87 3.87 C3.37 4.03, 2.88 4.46, 2.33 4.42 C1.79 4.38, 0.86 4.22, 0.62 3.64 C0.38 3.06, 0.68 1.5, 0.89 0.94 C1.09 0.37, 1.55 0.3, 1.87 0.24 C2.19 0.18, 2.52 0.44, 2.82 0.58 C3.13 0.72, 3.48 1.05, 3.7 1.08 M2.82 0.35 C3.36 0.42, 4.36 1.42, 4.75 1.66 C5.14 1.89, 4.77 1.51, 5.17 1.76 C5.56 2.01, 7.12 2.9, 7.12 3.17 C7.13 3.43, 5.84 3.29, 5.2 3.36 C4.55 3.43, 4.05 3.47, 3.27 3.59 C2.49 3.71, 1.11 4.59, 0.51 4.1 C-0.09 3.61, -0.57 1.27, -0.31 0.65 C-0.05 0.03, 1.85 0.48, 2.06 0.37 C2.28 0.26, 0.94 -0.18, 0.97 -0.03 C1 0.12, 2.22 1.04, 2.24 1.25" stroke="#000000" stroke-width="1" fill="none"></path></g><g stroke-linecap="round" transform="translate(66.70707616768777 185) rotate(0 0.5 0.5)"><path d="M0.39 -0.01 C0.6 -0.01, 1.09 0.46, 1.24 0.63 C1.38 0.8, 1.16 1.11, 1.25 1.01 C1.34 0.9, 1.74 0.04, 1.78 -0.01 C1.81 -0.05, 1.76 0.47, 1.44 0.73 C1.11 0.98, 0.04 1.35, -0.18 1.54 C-0.4 1.73, -0.02 1.94, 0.12 1.88 C0.26 1.83, 0.76 1.39, 0.69 1.19 C0.61 1, -0.33 0.87, -0.35 0.72 C-0.37 0.58, 0.4 0.39, 0.55 0.3 C0.71 0.22, 0.44 0.34, 0.56 0.23 M1.23 -0.35 C1.24 -0.49, 1.69 -0.48, 1.61 -0.21 C1.54 0.06, 0.94 1.34, 0.77 1.28 C0.6 1.22, 0.37 -0.47, 0.58 -0.58 C0.78 -0.68, 2.29 0.38, 1.99 0.62 C1.7 0.86, -0.83 0.66, -1.19 0.87 C-1.55 1.07, -0.13 1.77, -0.16 1.85 C-0.2 1.93, -1.68 1.63, -1.38 1.36 C-1.09 1.09, 1.22 0.67, 1.62 0.24 C2.02 -0.18, 1.34 -1.24, 1.02 -1.17 C0.7 -1.1, -0.16 0.4, -0.3 0.66" stroke="#000000" stroke-width="1" fill="none"></path></g><g transform="translate(56.207076167687774 194.5) rotate(0 6.5 13)"><text x="6.5" y="18" font-family="Virgil, Segoe UI Emoji" font-size="20px" fill="#000000" text-anchor="middle" style="white-space: pre;" direction="ltr">A</text></g><g stroke-linecap="round" transform="translate(172.70707616768777 187) rotate(0 0.5 0.5)"><path d="M0.13 0.32 C0.34 0.23, 1.5 0.52, 1.72 0.5 C1.93 0.48, 1.48 0.22, 1.43 0.23 C1.38 0.24, 1.55 0.32, 1.39 0.54 C1.23 0.75, 0.69 1.59, 0.47 1.51 C0.25 1.42, -0.01 0.2, 0.07 0.02 C0.16 -0.15, 1.15 0.41, 0.98 0.45 C0.81 0.5, -0.8 0.25, -0.95 0.32 C-1.09 0.39, -0.02 0.8, 0.09 0.87 C0.2 0.93, -0.56 0.82, -0.3 0.7 C-0.04 0.59, 1.44 0.42, 1.64 0.18 M0.63 1.2 C0.51 1.22, 0.01 0.28, 0.03 0.01 C0.06 -0.27, 0.76 -0.6, 0.8 -0.46 C0.84 -0.31, 0.44 0.6, 0.28 0.87 C0.11 1.14, -0.1 1.38, -0.19 1.16 C-0.28 0.95, -0.09 -0.49, -0.25 -0.43 C-0.4 -0.37, -1.38 1.36, -1.11 1.5 C-0.84 1.65, 0.99 0.67, 1.36 0.45 C1.72 0.24, 1.19 0.36, 1.07 0.21 C0.96 0.07, 0.57 -0.31, 0.66 -0.42 C0.76 -0.53, 1.66 -0.49, 1.64 -0.45" stroke="#000000" stroke-width="1" fill="none"></path></g><g stroke-linecap="round" transform="translate(283.7070761676878 183) rotate(0 3 2.5)"><path d="M1.99 0.68 C2.78 0.53, 5.09 0.58, 5.79 0.67 C6.5 0.76, 6.36 0.65, 6.24 1.22 C6.11 1.8, 5.45 3.5, 5.05 4.13 C4.65 4.76, 4.2 4.96, 3.83 5.01 C3.46 5.06, 3.39 4.64, 2.82 4.42 C2.25 4.21, 0.96 4.16, 0.41 3.7 C-0.13 3.24, -0.58 2.27, -0.45 1.65 C-0.32 1.02, 0.58 0.32, 1.19 -0.04 C1.8 -0.39, 3.05 -0.35, 3.22 -0.48 C3.39 -0.6, 2.16 -1.06, 2.2 -0.79 M3.2 -0.44 C3.86 -0.56, 5.64 -0.32, 6.13 0.05 C6.62 0.42, 6.36 1.07, 6.13 1.76 C5.9 2.46, 4.95 3.87, 4.76 4.24 C4.56 4.6, 5.5 3.83, 4.96 3.95 C4.43 4.07, 2.41 4.96, 1.54 4.95 C0.67 4.94, 0.11 4.16, -0.25 3.88 C-0.6 3.59, -0.88 3.56, -0.6 3.25 C-0.33 2.93, 0.6 2.64, 1.4 1.99 C2.21 1.33, 3.95 -0.3, 4.24 -0.68 C4.53 -1.05, 3.4 -0.34, 3.16 -0.26" stroke="#000000" stroke-width="1" fill="none"></path></g><g stroke-linecap="round" transform="translate(390.7070761676878 183.5) rotate(0 2.5 2.5)"><path d="M2.55 -0.66 C3.16 -0.71, 3.95 -0.26, 4.19 0.03 C4.43 0.32, 3.82 0.35, 3.98 1.1 C4.15 1.85, 5.25 3.82, 5.15 4.55 C5.05 5.27, 3.96 5.37, 3.4 5.47 C2.83 5.56, 2.3 5.22, 1.75 5.09 C1.2 4.97, 0.45 5.17, 0.11 4.71 C-0.23 4.25, -0.39 3.09, -0.3 2.32 C-0.21 1.55, 0.1 0.36, 0.66 0.07 C1.21 -0.22, 2.76 0.62, 3.04 0.56 C3.33 0.51, 2.42 -0.14, 2.36 -0.27 M2.95 1.34 C3.79 1.03, 5.1 -0.14, 5.48 -0.07 C5.86 0.01, 5.39 1.23, 5.23 1.8 C5.08 2.36, 4.93 2.8, 4.57 3.33 C4.2 3.86, 3.33 4.88, 3.02 5 C2.72 5.11, 3.22 4.29, 2.74 4.01 C2.26 3.73, 0.59 3.84, 0.15 3.3 C-0.3 2.76, -0.14 1.18, 0.07 0.78 C0.29 0.38, 1 0.94, 1.44 0.88 C1.88 0.82, 2.7 0.65, 2.7 0.42 C2.69 0.2, 1.42 -0.51, 1.4 -0.47" stroke="#000000" stroke-width="1" fill="none"></path></g><g transform="translate(282.7070761676878 193.5) rotate(0 6.5 13)"><text x="6.5" y="18" font-family="Virgil, Segoe UI Emoji" font-size="20px" fill="#000000" text-anchor="middle" style="white-space: pre;" direction="ltr">C</text></g><g transform="translate(382.7070761676878 197) rotate(0 8 13)"><text x="8" y="18" font-family="Virgil, Segoe UI Emoji" font-size="20px" fill="#000000" text-anchor="middle" style="white-space: pre;" direction="ltr">D</text></g><g transform="translate(163.20707616768777 196) rotate(0 7.5 13)"><text x="7.5" y="18" font-family="Virgil, Segoe UI Emoji" font-size="20px" fill="#000000" text-anchor="middle" style="white-space: pre;" direction="ltr">B</text></g><g stroke-linecap="round"><g transform="translate(124.70707616768777 233) rotate(0 0.3228195630200048 19.773258609659933)"><path d="M-0.62 -0.34 C-0.47 6.41, 0.8 32.79, 1.26 39.72 M1.26 -1.56 C1.24 5.44, 0.33 34.27, 0.44 41.1" stroke="#000000" stroke-width="1" fill="none"></path></g></g><g stroke-linecap="round"><g transform="translate(94.11283025607463 256.2530233489349) rotate(0 14.965606012996318 0.828900130931288)"><path d="M0.43 0.46 C5.54 0.6, 25.67 0.55, 30.73 0.56 M-0.8 -0.34 C4.15 0, 24.7 1.65, 29.85 2" stroke="#000000" stroke-width="1" fill="none"></path></g><g transform="translate(94.11283025607463 256.2530233489349) rotate(0 14.965606012996318 0.828900130931288)"><path d="M15.71 6.32 C19.45 5.06, 23.98 3.08, 28.8 2.27 M15.69 6.35 C19.46 4.01, 25.32 2.66, 29.88 2.75" stroke="#000000" stroke-width="1" fill="none"></path></g><g transform="translate(94.11283025607463 256.2530233489349) rotate(0 14.965606012996318 0.828900130931288)"><path d="M16.49 -4.12 C19.97 -2.15, 24.25 -0.89, 28.8 2.27 M16.47 -4.09 C19.99 -3.02, 25.6 -0.96, 29.88 2.75" stroke="#000000" stroke-width="1" fill="none"></path></g></g><g stroke-linecap="round"><g transform="translate(51.87210198640821 258.3612954553216) rotate(0 -20.853538083843887 -0.936845228262257)"><path d="M0.17 0.36 C-6.65 -0.2, -34.8 -1.91, -41.87 -2.23 M-1.21 -0.49 C-7.55 -0.42, -33.07 -1.17, -39.53 -1.16" stroke="#000000" stroke-width="1" fill="none"></path></g><g transform="translate(51.87210198640821 258.3612954553216) rotate(0 -20.853538083843887 -0.936845228262257)"><path d="M-19.47 -9.08 C-25.75 -8.24, -29 -4.84, -37.59 0.23 M-20.78 -8.74 C-28.2 -5.82, -35.07 -3.23, -38.95 -0.24" stroke="#000000" stroke-width="1" fill="none"></path></g><g transform="translate(51.87210198640821 258.3612954553216) rotate(0 -20.853538083843887 -0.936845228262257)"><path d="M-19.69 5 C-26.06 2.74, -29.26 3.03, -37.59 0.23 M-21 5.35 C-28.42 2.7, -35.21 -0.28, -38.95 -0.24" stroke="#000000" stroke-width="1" fill="none"></path></g></g><g transform="translate(63.707076167687774 246) rotate(0 11.5 13)"><text x="0" y="18" font-family="Virgil, Segoe UI Emoji" font-size="20px" fill="#000000" text-anchor="start" style="white-space: pre;" direction="ltr">75</text></g><g stroke-linecap="round"><g transform="translate(269.8891980171204 409.26518184432757) rotate(0 88.3691321315244 -0.8535731284040367)"><path d="M-0.82 0.2 C28.74 -0.27, 147.82 -1.57, 177.56 -1.91 M0.95 -0.73 C30.32 -1.15, 147.17 -0.7, 176.47 -0.71" stroke="#000000" stroke-width="1" fill="none"></path></g><g transform="translate(269.8891980171204 409.26518184432757) rotate(0 88.3691321315244 -0.8535731284040367)"><path d="M148.6 9.06 C156 6.13, 165.02 1.28, 177.45 -1.12 M147.79 9.73 C159.4 6.2, 167.77 2.15, 177.28 -0.93" stroke="#000000" stroke-width="1" fill="none"></path></g><g transform="translate(269.8891980171204 409.26518184432757) rotate(0 88.3691321315244 -0.8535731284040367)"><path d="M148.64 -11.46 C156.19 -7.91, 165.2 -6.3, 177.45 -1.12 M147.83 -10.79 C159.46 -6.86, 167.83 -3.46, 177.28 -0.93" stroke="#000000" stroke-width="1" fill="none"></path></g></g><g stroke-linecap="round"><g transform="translate(185.4813591588288 411.47240608569234) rotate(0 -83.02648952016605 -1.0946982936188192)"><path d="M0.89 0.01 C-26.69 -0.33, -138.62 -2.05, -166.57 -2.2 M-0.11 -1.03 C-27.65 -1.21, -139.11 -0.72, -166.94 -1.03" stroke="#000000" stroke-width="1" fill="none"></path></g><g transform="translate(185.4813591588288 411.47240608569234) rotate(0 -83.02648952016605 -1.0946982936188192)"><path d="M-138.71 -9.38 C-145.82 -7.41, -149.52 -5.24, -167.87 -1.31 M-138.18 -10.72 C-145.38 -9.79, -150.8 -7.99, -167.57 -1.9" stroke="#000000" stroke-width="1" fill="none"></path></g><g transform="translate(185.4813591588288 411.47240608569234) rotate(0 -83.02648952016605 -1.0946982936188192)"><path d="M-138.76 11.14 C-145.83 8.81, -149.51 6.67, -167.87 -1.31 M-138.22 9.8 C-145.23 6.62, -150.65 4.31, -167.57 -1.9" stroke="#000000" stroke-width="1" fill="none"></path></g></g><g transform="translate(203.70707616768777 401) rotate(0 20.5 13)"><text x="0" y="18" font-family="Virgil, Segoe UI Emoji" font-size="20px" fill="#000000" text-anchor="start" style="white-space: pre;" direction="ltr">300</text></g><g transform="translate(487.7070761676878 47) rotate(0 67 52)"><text x="0" y="18" font-family="Virgil, Segoe UI Emoji" font-size="20px" fill="#000000" text-anchor="start" style="white-space: pre;" direction="ltr">A - (-225, 0)</text><text x="0" y="44" font-family="Virgil, Segoe UI Emoji" font-size="20px" fill="#000000" text-anchor="start" style="white-space: pre;" direction="ltr">B - (-75, 0)</text><text x="0" y="70" font-family="Virgil, Segoe UI Emoji" font-size="20px" fill="#000000" text-anchor="start" style="white-space: pre;" direction="ltr">C - (75, 0)</text><text x="0" y="96" font-family="Virgil, Segoe UI Emoji" font-size="20px" fill="#000000" text-anchor="start" style="white-space: pre;" direction="ltr">D - (225, 0)</text></g></svg>