<svg version="1.1" xmlns="http://www.w3.org/2000/svg" viewBox="0 0 614 610.5" width="1228" height="1221">
  <!-- svg-source:excalidraw -->
  
  <defs>
    <style>
      @font-face {
        font-family: "Virgil";
        src: url("https://excalidraw.com/Virgil.woff2");
      }
      @font-face {
        font-family: "Cascadia";
        src: url("https://excalidraw.com/Cascadia.woff2");
      }
    </style>
  </defs>
  <g stroke-linecap="round" transform="translate(10 89.5) rotate(0 216 184.5)"><path d="M-0.18 1 C98.22 0.42, 194.57 -0.08, 431.39 -0.15 M-0.26 0.06 C92.92 -1.51, 185.48 -1.75, 432.19 0.4 M431.03 0.77 C431.28 106.46, 431.06 212.35, 430.88 368.23 M431.45 -0.16 C430.39 119.26, 430.7 239.17, 431.87 369.47 M432.21 369.47 C330.6 368.76, 227.67 370.21, 0.94 368.88 M432.26 368.72 C311.89 368.83, 192.81 368.37, 0.24 369.05 M-0.79 369.49 C-1.76 243.36, -0.99 116.21, 0.2 -0.93 M0.02 369.27 C-2.1 252.19, -1.46 134.49, 0.1 0.1" stroke="#495057" stroke-width="1" fill="none"></path></g><g stroke-linecap="round"><g transform="translate(224.8198262218384 90.41751647004867) rotate(0 -0.997192635694546 184.74135171179663)"><path d="M-0.21 1.17 C-0.25 62.4, -0.44 306.26, -0.7 367.16 M-1.78 0.74 C-1.84 62.19, -0.94 307.59, -1.07 368.74" stroke="#aaa" stroke-width="1" fill="none"></path></g></g><g stroke-linecap="round"><g transform="translate(10 266.5) rotate(0 218.20325164096437 -0.4202525433152857)"><path d="M1.17 1.12 C73.88 0.83, 363.69 -1.32, 436.08 -1.96 M0.33 0.66 C72.9 0.59, 362.82 0.01, 435.18 -0.4" stroke="#aaa" stroke-width="1" fill="none"></path></g></g><g stroke-linecap="round" transform="translate(13 198.5) rotate(0 72.5 68)"><path d="M73.66 -0.84 C84.3 -1.45, 97.83 3.77, 107.43 8.74 C117.03 13.72, 125.06 20.64, 131.29 28.99 C137.51 37.34, 143.08 48.7, 144.79 58.85 C146.49 69.01, 145.06 80.16, 141.53 89.91 C137.99 99.66, 131.47 110.32, 123.57 117.38 C115.67 124.44, 104.63 129.45, 94.14 132.27 C83.65 135.09, 71.31 135.79, 60.64 134.29 C49.97 132.79, 38.97 129.16, 30.12 123.26 C21.27 117.36, 12.7 108.29, 7.54 98.89 C2.38 89.48, -0.81 77.11, -0.84 66.83 C-0.87 56.56, 2.36 46.05, 7.36 37.23 C12.35 28.41, 20.3 20.02, 29.12 13.91 C37.93 7.8, 51.11 2.92, 60.24 0.59 C69.37 -1.75, 78.37 -0.55, 83.9 -0.09 C89.44 0.37, 93.74 1.96, 93.45 3.35 M50.16 4.1 C59.88 -0.07, 73.83 -1.66, 84.59 0 C95.35 1.66, 105.77 8, 114.71 14.08 C123.65 20.16, 133.22 27.38, 138.21 36.49 C143.2 45.6, 144.86 58.31, 144.65 68.72 C144.45 79.14, 141.95 90.21, 137 99 C132.06 107.79, 123.45 115.31, 114.98 121.46 C106.52 127.61, 96.85 133.87, 86.21 135.9 C75.58 137.94, 61.83 136.73, 51.17 133.66 C40.51 130.6, 29.91 124.9, 22.23 117.5 C14.54 110.09, 8.8 98.93, 5.05 89.22 C1.3 79.52, -1.58 69.11, -0.27 59.25 C1.03 49.39, 6.33 38.6, 12.87 30.07 C19.42 21.54, 32.79 12.7, 39 8.07 C45.2 3.44, 48.17 2.67, 50.1 2.28 C52.03 1.89, 50.45 4.48, 50.58 5.75" stroke="#000000" stroke-width="1" fill="none"></path></g><g stroke-linecap="round" transform="translate(158.5 201) rotate(0 72 70.5)"><path d="M56.18 2.49 C66.22 -0.69, 80.53 -0.81, 91.13 1.81 C101.73 4.43, 111.75 11.06, 119.8 18.21 C127.85 25.35, 135.42 34.9, 139.42 44.69 C143.43 54.47, 144.73 66.49, 143.83 76.94 C142.94 87.4, 139.83 98.47, 134.05 107.42 C128.26 116.36, 118.57 124.96, 109.12 130.62 C99.66 136.28, 87.88 140.52, 77.31 141.37 C66.73 142.22, 55.51 139.91, 45.68 135.73 C35.85 131.54, 25.68 124.27, 18.31 116.26 C10.94 108.26, 4.17 97.93, 1.43 87.7 C-1.31 77.48, -0.73 65.29, 1.84 54.91 C4.42 44.53, 10.18 33.44, 16.87 25.41 C23.55 17.39, 34.24 10.76, 41.95 6.76 C49.67 2.75, 58.41 2.3, 63.14 1.38 C67.88 0.45, 69.99 0.3, 70.39 1.2 M73.32 1.1 C83.42 0.08, 94.46 2.9, 104.16 7.78 C113.87 12.67, 125.12 21.9, 131.57 30.4 C138.02 38.9, 141.14 48.64, 142.88 58.77 C144.63 68.9, 145.12 81.19, 142.04 91.19 C138.96 101.2, 132.34 110.91, 124.41 118.8 C116.48 126.69, 104.66 134.93, 94.48 138.53 C84.3 142.14, 73.72 142.04, 63.31 140.42 C52.9 138.8, 40.98 134.63, 32.03 128.84 C23.08 123.04, 15.08 115.09, 9.59 105.65 C4.11 96.21, -0.47 82.95, -0.88 72.18 C-1.29 61.42, 2.33 50.37, 7.13 41.06 C11.92 31.74, 19.58 22.83, 27.9 16.29 C36.23 9.74, 49.8 4.44, 57.07 1.77 C64.33 -0.9, 68.74 0.54, 71.51 0.27 C74.27 0, 73.49 -1.09, 73.67 0.15" stroke="#000000" stroke-width="1" fill="none"></path></g><g stroke-linecap="round" transform="translate(301 192) rotate(0 69 72.5)"><path d="M49.89 3.94 C58.96 0.06, 70.23 -0.63, 80.39 1.2 C90.54 3.04, 102.36 8.45, 110.82 14.98 C119.28 21.5, 126.56 30.54, 131.15 40.34 C135.74 50.14, 138.51 63, 138.36 73.79 C138.21 84.58, 135.05 95.64, 130.25 105.08 C125.45 114.51, 117.85 123.82, 109.56 130.41 C101.28 137, 90.85 142.68, 80.56 144.6 C70.27 146.51, 57.95 145.45, 47.82 141.9 C37.69 138.35, 27.24 130.94, 19.77 123.27 C12.3 115.61, 6.31 105.94, 3 95.92 C-0.32 85.9, -1.55 74.02, -0.12 63.14 C1.31 52.26, 5.43 39.89, 11.6 30.65 C17.77 21.41, 29.77 12.62, 36.87 7.71 C43.97 2.8, 50.74 1.96, 54.21 1.2 C57.68 0.44, 57.68 1.87, 57.68 3.17 M74.71 -0.62 C84.56 -0.9, 95.17 5.81, 104.15 11.47 C113.12 17.14, 123.02 24.16, 128.55 33.35 C134.08 42.55, 136.59 55.65, 137.32 66.66 C138.05 77.67, 136.75 89.64, 132.92 99.41 C129.1 109.18, 121.78 117.95, 114.37 125.28 C106.97 132.6, 98.39 140.19, 88.52 143.35 C78.65 146.5, 65.54 146.44, 55.16 144.2 C44.78 141.97, 34.21 136.98, 26.26 129.93 C18.3 122.88, 11.96 111.82, 7.43 101.91 C2.9 92, -1.09 81.05, -0.92 70.46 C-0.74 59.86, 3.17 48, 8.49 38.35 C13.81 28.7, 22.34 19.02, 30.98 12.55 C39.62 6.07, 53.16 1.37, 60.31 -0.51 C67.46 -2.4, 71.89 0.86, 73.88 1.22 C75.87 1.58, 72.26 0.83, 72.25 1.66" stroke="#000000" stroke-width="1" fill="none"></path></g><g stroke-linecap="round" transform="translate(223 262.5) rotate(0 3 2)"><path d="M3.59 -0.5 C4.36 -0.63, 4.39 0.51, 4.87 0.91 C5.35 1.3, 6.32 1.48, 6.47 1.87 C6.63 2.25, 6.05 2.93, 5.8 3.24 C5.56 3.54, 5.71 3.59, 5.01 3.72 C4.3 3.84, 2.47 3.98, 1.59 3.98 C0.71 3.99, -0.09 4.14, -0.26 3.75 C-0.44 3.35, 0.28 2.28, 0.53 1.61 C0.78 0.94, 0.99 0.1, 1.24 -0.28 C1.5 -0.65, 1.71 -0.54, 2.08 -0.62 C2.44 -0.71, 3.12 -0.77, 3.44 -0.78 M4.03 -1.05 C4.47 -0.72, 4.15 1.04, 4.3 1.45 C4.45 1.86, 4.63 1.16, 4.91 1.43 C5.19 1.7, 5.94 2.5, 5.97 3.07 C6 3.65, 5.81 4.73, 5.07 4.88 C4.34 5.02, 2.07 3.97, 1.55 3.92 C1.04 3.87, 2.24 4.97, 1.96 4.58 C1.67 4.19, -0.2 2.29, -0.17 1.56 C-0.14 0.84, 1.55 0.6, 2.14 0.21 C2.74 -0.19, 3.49 -1.03, 3.39 -0.82 C3.29 -0.61, 1.53 1.29, 1.56 1.47" stroke="#000000" stroke-width="1" fill="none"></path></g><g stroke-linecap="round" transform="translate(83 265.5) rotate(0 1 2)"><path d="M0.08 0.3 C0.19 0.07, 1.45 0.53, 1.8 0.64 C2.15 0.75, 2.09 0.58, 2.18 0.97 C2.27 1.36, 2.46 2.66, 2.36 2.97 C2.26 3.28, 1.8 2.79, 1.59 2.83 C1.39 2.87, 1.23 2.99, 1.14 3.21 C1.05 3.43, 1.26 4.21, 1.04 4.14 C0.83 4.08, 0.14 3.49, -0.16 2.84 C-0.46 2.18, -0.78 0.64, -0.74 0.23 C-0.71 -0.18, -0.06 0.22, 0.05 0.35 C0.17 0.49, -0.01 1.1, -0.05 1.05 M0.15 -0.27 C0.76 -0.6, 2.62 -0.59, 2.93 -0.17 C3.24 0.26, 2.17 1.59, 2.03 2.29 C1.88 2.99, 2.01 3.9, 2.04 4.05 C2.07 4.2, 2.5 3.03, 2.23 3.2 C1.96 3.36, 0.56 5.16, 0.43 5.03 C0.29 4.9, 1.53 2.83, 1.41 2.43 C1.3 2.02, -0.05 2.82, -0.27 2.58 C-0.48 2.34, -0.01 1.6, 0.1 1 C0.21 0.4, -0.03 -1.02, 0.39 -1.02 C0.81 -1.02, 2.48 0.65, 2.62 0.98" stroke="#000000" stroke-width="1" fill="none"></path></g><g transform="translate(76.5 274) rotate(0 6.5 13)"><text x="6.5" y="18" font-family="Virgil, Segoe UI Emoji" font-size="20px" fill="#000000" text-anchor="middle" style="white-space: pre;" direction="ltr">A</text></g><g stroke-linecap="round" transform="translate(372 261.5) rotate(0 3 2.5)"><path d="M4.72 0.77 C5.44 0.94, 5.77 0.96, 6.04 1.48 C6.3 1.99, 6.51 3.44, 6.28 3.85 C6.06 4.26, 5.25 3.85, 4.69 3.91 C4.12 3.97, 3.41 4.06, 2.89 4.21 C2.37 4.37, 2.08 5.02, 1.57 4.84 C1.06 4.66, 0.15 3.9, -0.17 3.13 C-0.49 2.36, -0.63 0.68, -0.35 0.22 C-0.07 -0.24, 0.83 0.17, 1.51 0.35 C2.2 0.54, 3.34 1.33, 3.76 1.34 C4.18 1.34, 3.84 0.66, 4.03 0.39 M5.5 -0.68 C6.24 -0.39, 5.67 0.96, 5.79 1.72 C5.9 2.49, 6.18 3.58, 6.17 3.92 C6.16 4.27, 6.33 3.41, 5.73 3.81 C5.14 4.21, 3.19 6.29, 2.6 6.32 C2.01 6.36, 2.67 4.42, 2.18 4.03 C1.69 3.64, 0 4.36, -0.34 3.98 C-0.67 3.6, -0.14 2.6, 0.17 1.77 C0.47 0.94, 0.56 -0.9, 1.49 -1 C2.43 -1.1, 5.29 0.83, 5.77 1.16 C6.25 1.49, 4.61 1.01, 4.38 1" stroke="#000000" stroke-width="1" fill="none"></path></g><g transform="translate(371 273) rotate(0 6.5 13)"><text x="6.5" y="18" font-family="Virgil, Segoe UI Emoji" font-size="20px" fill="#000000" text-anchor="middle" style="white-space: pre;" direction="ltr">C</text></g><g transform="translate(230.5 274.5) rotate(0 7.5 13)"><text x="7.5" y="18" font-family="Virgil, Segoe UI Emoji" font-size="20px" fill="#000000" text-anchor="middle" style="white-space: pre;" direction="ltr">B</text></g><g transform="translate(473 99) rotate(0 65.5 65)"><text x="0" y="18" font-family="Virgil, Segoe UI Emoji" font-size="20px" fill="#000000" text-anchor="start" style="white-space: pre;" direction="ltr">A = (-100, 0)</text><text x="0" y="44" font-family="Virgil, Segoe UI Emoji" font-size="20px" fill="#000000" text-anchor="start" style="white-space: pre;" direction="ltr">B = (0, 0)</text><text x="0" y="70" font-family="Virgil, Segoe UI Emoji" font-size="20px" fill="#000000" text-anchor="start" style="white-space: pre;" direction="ltr">C = (100, 0)</text><text x="0" y="96" font-family="Virgil, Segoe UI Emoji" font-size="20px" fill="#000000" text-anchor="start" style="white-space: pre;" direction="ltr"></text><text x="0" y="122" font-family="Virgil, Segoe UI Emoji" font-size="20px" fill="#000000" text-anchor="start" style="white-space: pre;" direction="ltr">r = 50</text></g><g stroke-linecap="round"><g transform="translate(84.57562502045221 93.49536223094924) rotate(0 -1.1643359897658456 185.03743801396342)"><path d="M0.14 0.64 C-0.43 62.31, -1.94 307.97, -2.47 369.44" stroke="#000000" stroke-width="1.5" fill="none" stroke-dasharray="1.5 7"></path></g></g><g stroke-linecap="round"><g transform="translate(372.57562502045175 91.49536223094924) rotate(0 -1.0428247755394295 184.90525994058694)"><path d="M0.64 0.68 C0.28 62.18, -2.16 307.59, -2.72 369.13" stroke="#000000" stroke-width="1.5" fill="none" stroke-dasharray="1.5 7"></path></g></g><g transform="translate(66 59) rotate(0 20.5 13)"><text x="20.5" y="18" font-family="Virgil, Segoe UI Emoji" font-size="20px" fill="#000000" text-anchor="middle" style="white-space: pre;" direction="ltr">-100</text></g><g transform="translate(215.5 59) rotate(0 7 13)"><text x="7" y="18" font-family="Virgil, Segoe UI Emoji" font-size="20px" fill="#000000" text-anchor="middle" style="white-space: pre;" direction="ltr">0</text></g><g transform="translate(355.5 60) rotate(0 16.5 13)"><text x="16.5" y="18" font-family="Virgil, Segoe UI Emoji" font-size="20px" fill="#000000" text-anchor="middle" style="white-space: pre;" direction="ltr">100</text></g><g stroke-linecap="round"><g transform="translate(147.9580934145033 507.19810639721436) rotate(0 73.03825686146456 2.0445734861820597)"><path d="M-0.94 0.75 C23.68 1.17, 122.39 2.4, 147.02 2.58 M0.77 0.1 C25.35 0.69, 122.15 3.58, 146.39 3.99" stroke="#495057" stroke-width="1" fill="none"></path></g><g transform="translate(147.9580934145033 507.19810639721436) rotate(0 73.03825686146456 2.0445734861820597)"><path d="M0.19 -13.48 C-1.07 -10.14, -2.09 -8.4, -1.87 1.12 M-0.94 -13.92 C-1.3 -10.28, -1.22 -7.88, -0.37 0.27" stroke="#495057" stroke-width="1" fill="none"></path></g><g transform="translate(147.9580934145033 507.19810639721436) rotate(0 73.03825686146456 2.0445734861820597)"><path d="M-0.2 16.52 C-1.38 12.64, -2.31 7.17, -1.87 1.12 M-1.33 16.08 C-1.89 13.19, -1.73 9.06, -0.37 0.27" stroke="#495057" stroke-width="1" fill="none"></path></g><g transform="translate(147.9580934145033 507.19810639721436) rotate(0 73.03825686146456 2.0445734861820597)"><path d="M146.96 19.76 C145.82 15.89, 144.93 10.41, 145.46 4.36 M145.84 19.32 C145.31 16.43, 145.51 12.3, 146.96 3.52" stroke="#495057" stroke-width="1" fill="none"></path></g><g transform="translate(147.9580934145033 507.19810639721436) rotate(0 73.03825686146456 2.0445734861820597)"><path d="M147.69 -10.23 C146.39 -6.9, 145.33 -5.16, 145.46 4.36 M146.57 -10.67 C146.17 -7.04, 146.21 -4.64, 146.96 3.52" stroke="#495057" stroke-width="1" fill="none"></path></g></g><g transform="translate(198.55301167464722 479.9960293820486) rotate(0 15.5 12.5)"><text x="15.5" y="17" font-family="Virgil, Segoe UI Emoji" font-size="18.783004871480124px" fill="#000000" text-anchor="middle" style="white-space: pre;" direction="ltr">100</text></g><g stroke-linecap="round"><g transform="translate(15.655491176125906 505.4888172186984) rotate(359.234347507877 64.84103647037068 0.5443587927410363)"><path d="M0.62 -0.23 C22.48 -0.11, 108.85 1.15, 130.2 1.48 M-0.52 -1.4 C21.3 -1.22, 107.54 1.81, 129.46 2.48" stroke="#495057" stroke-width="1" fill="none"></path></g><g transform="translate(15.655491176125906 505.4888172186984) rotate(359.234347507877 64.84103647037068 0.5443587927410363)"><path d="M0.52 -14.73 C-0.4 -13.27, -0.12 -8.21, -0.62 1.21 M0.15 -14.52 C0.2 -12.22, 1.26 -9.36, 0.63 -0.13" stroke="#495057" stroke-width="1" fill="none"></path></g><g transform="translate(15.655491176125906 505.4888172186984) rotate(359.234347507877 64.84103647037068 0.5443587927410363)"><path d="M0.14 15.27 C-0.88 10.08, -0.51 8.49, -0.62 1.21 M-0.23 15.48 C-0.02 11.44, 1.12 7.95, 0.63 -0.13" stroke="#495057" stroke-width="1" fill="none"></path></g><g transform="translate(15.655491176125906 505.4888172186984) rotate(359.234347507877 64.84103647037068 0.5443587927410363)"><path d="M128.68 17.98 C127.72 12.79, 128.16 11.2, 128.23 3.92 M128.31 18.18 C128.58 14.15, 129.78 10.66, 129.47 2.58" stroke="#495057" stroke-width="1" fill="none"></path></g><g transform="translate(15.655491176125906 505.4888172186984) rotate(359.234347507877 64.84103647037068 0.5443587927410363)"><path d="M129.67 -12.01 C128.67 -10.54, 128.89 -5.49, 128.23 3.92 M129.3 -11.8 C129.28 -9.5, 130.27 -6.64, 129.47 2.58" stroke="#495057" stroke-width="1" fill="none"></path></g></g><g transform="translate(60.67207544560938 481.43634407585046) rotate(359.234347507877 13.5 11)"><text x="13.5" y="15" font-family="Virgil, Segoe UI Emoji" font-size="16.65307988235885px" fill="#000000" text-anchor="middle" style="white-space: pre;" direction="ltr">100</text></g><g stroke-linecap="round"><g transform="translate(296.8013789342622 508.19810639721436) rotate(0 73.2991003638781 1.097104127802993)"><path d="M0.4 -1.01 C24.52 -0.63, 120.92 1.59, 145.31 2.06 M-0.85 1.07 C23.57 1.61, 122.96 2.95, 147.45 3.2" stroke="#495057" stroke-width="1" fill="none"></path></g><g transform="translate(296.8013789342622 508.19810639721436) rotate(0 73.2991003638781 1.097104127802993)"><path d="M-0.54 -17.37 C-0.36 -10.36, -0.77 -4.02, -0.93 -1.39 M0.19 -16.17 C1.05 -11.32, 0.38 -5.59, 0.55 -0.66" stroke="#495057" stroke-width="1" fill="none"></path></g><g transform="translate(296.8013789342622 508.19810639721436) rotate(0 73.2991003638781 1.097104127802993)"><path d="M-1.18 12.62 C-0.71 9.08, -0.9 4.88, -0.93 -1.39 M-0.45 13.83 C0.89 8.35, 0.45 3.77, 0.55 -0.66" stroke="#495057" stroke-width="1" fill="none"></path></g><g transform="translate(296.8013789342622 508.19810639721436) rotate(0 73.2991003638781 1.097104127802993)"><path d="M146 16.84 C146.42 13.3, 146.18 9.1, 146.12 2.82 M146.73 18.04 C148.02 12.57, 147.53 7.98, 147.6 3.55" stroke="#495057" stroke-width="1" fill="none"></path></g><g transform="translate(296.8013789342622 508.19810639721436) rotate(0 73.2991003638781 1.097104127802993)"><path d="M146.37 -13.16 C146.6 -6.15, 146.24 0.19, 146.12 2.82 M147.1 -11.95 C148 -7.11, 147.39 -1.37, 147.6 3.55" stroke="#495057" stroke-width="1" fill="none"></path></g></g><g transform="translate(347.396297194407 480.9960293820486) rotate(0 15.5 12.5)"><text x="15.5" y="17" font-family="Virgil, Segoe UI Emoji" font-size="18.783004871480124px" fill="#000000" text-anchor="middle" style="white-space: pre;" direction="ltr">100</text></g><g stroke-linecap="round"><g transform="translate(16 553.5) rotate(0 212.60260058082633 0.6420263439509881)"><path d="M-1.09 -0.75 C69.89 -0.41, 354.92 0.73, 426.3 1.01 M0.54 1.48 C71.35 2.02, 354.43 1.99, 425.5 2.03" stroke="#495057" stroke-width="1" fill="none"></path></g><g transform="translate(16 553.5) rotate(0 212.60260058082633 0.6420263439509881)"><path d="M-1.96 -15.38 C-2.41 -9.31, -2.53 -6.13, -0.43 -2.06 M-0.46 -16.22 C-1.15 -9.73, -1.03 -3.57, -0.54 -1.14" stroke="#495057" stroke-width="1" fill="none"></path></g><g transform="translate(16 553.5) rotate(0 212.60260058082633 0.6420263439509881)"><path d="M-2.09 14.62 C-2.24 10.69, -2.31 3.87, -0.43 -2.06 M-0.59 13.78 C-1.01 8.44, -0.85 2.77, -0.54 -1.14" stroke="#495057" stroke-width="1" fill="none"></path></g><g transform="translate(16 553.5) rotate(0 212.60260058082633 0.6420263439509881)"><path d="M424.57 17.4 C424.39 13.47, 424.3 6.65, 426.16 0.72 M426.07 16.55 C425.62 11.22, 425.76 5.55, 426.05 1.64" stroke="#495057" stroke-width="1" fill="none"></path></g><g transform="translate(16 553.5) rotate(0 212.60260058082633 0.6420263439509881)"><path d="M424.57 -12.6 C424.15 -6.53, 424.05 -3.35, 426.16 0.72 M426.08 -13.45 C425.41 -6.96, 425.55 -0.8, 426.05 1.64" stroke="#495057" stroke-width="1" fill="none"></path></g></g><g transform="translate(215 583.5) rotate(0 0 0)" stroke="none" fill="#495057"><path d="M NaN NaN Q NaN NaN NaN NaN NaN NaN NaN NaN NaN NaN NaN NaN NaN NaN NaN NaN NaN NaN NaN NaN NaN NaN NaN NaN NaN NaN NaN NaN NaN NaN NaN NaN NaN NaN NaN NaN NaN NaN NaN NaN NaN NaN NaN NaN NaN NaN NaN NaN Z"></path></g><g transform="translate(211 574.5) rotate(0 20.5 13)"><text x="0" y="18" font-family="Virgil, Segoe UI Emoji" font-size="20px" fill="#495057" text-anchor="start" style="white-space: pre;" direction="ltr">300</text></g><g stroke-linecap="round"><g transform="translate(13 38) rotate(0 37.79203400513143 0.4176135877043521)"><path d="M-0.99 1.15 C11.54 1.05, 61.59 0.05, 74.42 -0.32 M0.69 0.71 C13.65 0.76, 64.1 1.23, 76.57 1.06" stroke="#000000" stroke-width="1" fill="none"></path></g><g transform="translate(13 38) rotate(0 37.79203400513143 0.4176135877043521)"><path d="M0.18 -15.17 C-1.54 -9.62, -2.41 -5.3, -2.05 0.83 M-1.16 -13.69 C-0.91 -7.66, -1.54 -2.59, -0.32 1.84" stroke="#000000" stroke-width="1" fill="none"></path></g><g transform="translate(13 38) rotate(0 37.79203400513143 0.4176135877043521)"><path d="M0.72 14.82 C-1.2 13.24, -2.2 10.43, -2.05 0.83 M-0.62 16.3 C-0.38 11.06, -1.22 4.86, -0.32 1.84" stroke="#000000" stroke-width="1" fill="none"></path></g><g transform="translate(13 38) rotate(0 37.79203400513143 0.4176135877043521)"><path d="M78.02 14.73 C76.16 13.15, 75.22 10.34, 75.51 0.74 M76.68 16.21 C77.02 10.97, 76.28 4.77, 77.24 1.74" stroke="#000000" stroke-width="1" fill="none"></path></g><g transform="translate(13 38) rotate(0 37.79203400513143 0.4176135877043521)"><path d="M78.01 -15.27 C76.22 -9.71, 75.29 -5.39, 75.51 0.74 M76.67 -13.79 C76.82 -7.76, 76.08 -2.69, 77.24 1.74" stroke="#000000" stroke-width="1" fill="none"></path></g></g><g transform="translate(38 10) rotate(0 13 13)"><text x="13" y="18" font-family="Virgil, Segoe UI Emoji" font-size="20px" fill="#000000" text-anchor="middle" style="white-space: pre;" direction="ltr">50</text></g></svg>