<svg version="1.1" xmlns="http://www.w3.org/2000/svg" viewBox="0 0 459.29604166739887 393" width="918.5920833347977" height="786">
  <!-- svg-source:excalidraw -->
  
  <defs>
    <style>
      @font-face {
        font-family: "Virgil";
        src: url("https://excalidraw.com/Virgil.woff2");
      }
      @font-face {
        font-family: "Cascadia";
        src: url("https://excalidraw.com/Cascadia.woff2");
      }
    </style>
  </defs>
  <g stroke-linecap="round" transform="translate(10 10) rotate(0 219.5 186.5)"><path d="M-0.65 -0.46 C118.85 2.88, 236.84 2.46, 439.94 -0.56 M-0.11 -0.34 C136.16 0.75, 273.42 0.75, 439.02 0.32 M440.22 0.02 C438.28 84.56, 438.61 169.68, 439.62 374.09 M438.57 0.36 C437.03 139.38, 437.28 277.36, 439.39 373.45 M438.47 372.55 C321.3 373.68, 204.53 373.27, 0.18 372.51 M439.18 372.84 C291.68 372.59, 144.06 372.2, 0.17 373.22 M-0.8 372.32 C2.96 290.07, 2.21 208.1, 0.38 -0.13 M0.18 372.61 C0.56 266.39, 1.15 158.9, -0.41 -0.28" stroke="#000000" stroke-width="1" fill="none"></path></g><g stroke-linecap="round"><g transform="translate(236.90991311091943 12.458758235024561) rotate(0 -0.8963759486284744 183.68360270833602)"><path d="M-1.1 0.84 C-1.25 61.77, -1.59 304.88, -1.52 366.11 M0.52 0.23 C0.29 61.24, -2.09 306.1, -2.31 367.14" stroke="#aaa" stroke-width="1" fill="none"></path></g></g><g stroke-linecap="round"><g transform="translate(12 190) rotate(0 217.9849734680215 -1.0798050659010414)"><path d="M1.18 0.61 C73.87 0.32, 363.22 -0.51, 435.62 -1.11 M0.35 -0.12 C72.88 -0.79, 362.09 -2.43, 434.48 -2.77" stroke="#aaa" stroke-width="1" fill="none"></path></g></g><g stroke-linecap="round" transform="translate(10 53) rotate(0 56.5 45)"><path d="M70.92 0.66 C80.2 2.09, 90.54 8.74, 97.51 14.51 C104.47 20.28, 110.86 27.68, 112.73 35.28 C114.59 42.88, 112.11 52.5, 108.69 60.09 C105.27 67.68, 99.87 75.82, 92.21 80.83 C84.56 85.84, 72.64 89.45, 62.78 90.18 C52.92 90.91, 42.1 88.56, 33.06 85.23 C24.03 81.89, 14.23 76.74, 8.56 70.18 C2.9 63.62, -0.62 53.86, -0.92 45.89 C-1.22 37.91, 1.71 28.91, 6.79 22.33 C11.86 15.76, 20.72 10.19, 29.52 6.45 C38.31 2.72, 52.41 0.71, 59.55 -0.08 C66.68 -0.87, 69.94 1.15, 72.33 1.71 C74.73 2.26, 74.19 2.39, 73.9 3.26 M80.43 4.07 C89.22 7, 98.3 14.38, 103.94 20.97 C109.58 27.56, 114.06 35.98, 114.28 43.58 C114.5 51.18, 110.31 59.74, 105.27 66.57 C100.23 73.4, 92.89 80.43, 84.02 84.57 C75.16 88.7, 62.04 91.86, 52.09 91.38 C42.13 90.9, 32.15 86.31, 24.28 81.69 C16.42 77.08, 8.95 71.05, 4.88 63.68 C0.81 56.31, -1.34 45.63, -0.14 37.46 C1.07 29.29, 5.78 20.67, 12.09 14.66 C18.39 8.64, 28.03 3.41, 37.71 1.39 C47.39 -0.63, 62.94 2.24, 70.15 2.54 C77.37 2.83, 79.44 2.52, 81.01 3.15 C82.57 3.78, 79.81 5.53, 79.54 6.33" stroke="#000000" stroke-width="1" fill="none"></path></g><g stroke-linecap="round" transform="translate(126.5 51) rotate(0 52.5 47.5)"><path d="M48.42 0.62 C57.18 -0.67, 67.66 1.24, 75.66 4.82 C83.65 8.41, 91.49 15.04, 96.37 22.13 C101.25 29.22, 104.75 38.9, 104.93 47.36 C105.11 55.82, 102.51 65.65, 97.44 72.9 C92.38 80.16, 82.98 87.15, 74.52 90.88 C66.06 94.61, 55.69 96.2, 46.7 95.3 C37.71 94.41, 27.97 90.65, 20.59 85.52 C13.2 80.38, 5.56 72.45, 2.39 64.5 C-0.77 56.55, -0.25 45.97, 1.62 37.82 C3.49 29.68, 7.3 21.58, 13.63 15.62 C19.97 9.65, 32.12 4.44, 39.62 2.04 C47.13 -0.35, 53.62 0.88, 58.65 1.25 C63.68 1.62, 69.98 3.76, 69.79 4.25 M30 4.07 C37.56 0.2, 49.18 -0.79, 58.6 0.11 C68.02 1.02, 79.09 4.35, 86.51 9.51 C93.93 14.67, 100.27 22.68, 103.11 31.1 C105.95 39.51, 105.72 51.72, 103.55 60 C101.38 68.28, 96.85 75.12, 90.07 80.79 C83.3 86.46, 72.29 92.24, 62.91 94.03 C53.54 95.83, 42.38 94.1, 33.84 91.57 C25.29 89.03, 17.39 85.1, 11.64 78.82 C5.89 72.54, 0.64 62.46, -0.67 53.87 C-1.97 45.28, -0.08 34.91, 3.8 27.26 C7.68 19.62, 18.23 11.62, 22.59 8 C26.94 4.37, 28.43 5.87, 29.93 5.51 C31.42 5.15, 30.77 5.22, 31.56 5.83" stroke="#000000" stroke-width="1" fill="none"></path></g><g stroke-linecap="round" transform="translate(234.5 46.5) rotate(0 52.5 47.5)"><path d="M28.58 4.6 C36.21 0.23, 47.8 -0.43, 56.9 0.34 C66 1.11, 75.89 4.43, 83.17 9.22 C90.44 14.02, 97.06 21.51, 100.54 29.13 C104.03 36.75, 105.47 46.71, 104.08 54.96 C102.69 63.21, 98.41 72.19, 92.21 78.62 C86.02 85.05, 75.88 91.16, 66.91 93.53 C57.94 95.9, 47.41 95.29, 38.39 92.87 C29.37 90.45, 18.95 85.21, 12.77 78.98 C6.59 72.76, 2.76 63.63, 1.3 55.5 C-0.17 47.38, 0.82 37.96, 4 30.22 C7.18 22.48, 15.23 13.73, 20.38 9.08 C25.53 4.44, 31.19 3.65, 34.88 2.35 C38.58 1.05, 42.33 0.49, 42.56 1.28 M68.59 2.22 C77.18 3.87, 86.17 8.77, 92.14 14.99 C98.11 21.22, 102.93 30.99, 104.44 39.58 C105.94 48.16, 104.66 58.58, 101.17 66.48 C97.68 74.38, 91.2 82.17, 83.5 86.96 C75.79 91.75, 64.54 94.7, 54.94 95.2 C45.33 95.7, 33.65 93.8, 25.86 89.95 C18.08 86.11, 12.34 79.78, 8.23 72.15 C4.12 64.51, 0.83 52.86, 1.19 44.17 C1.55 35.48, 5.17 26.58, 10.41 20.02 C15.65 13.46, 24.42 7.92, 32.65 4.79 C40.87 1.66, 53.74 1.69, 59.75 1.24 C65.76 0.79, 67.23 2.01, 68.73 2.09 C70.23 2.16, 69 0.97, 68.74 1.7" stroke="#000000" stroke-width="1" fill="none"></path></g><g stroke-linecap="round" transform="translate(340.5 50.5) rotate(0 52.5 47.5)"><path d="M31.87 3.04 C39.66 -0.73, 51.13 -1.86, 60.3 -0.33 C69.48 1.2, 79.86 6.69, 86.92 12.21 C93.98 17.72, 99.88 24.86, 102.66 32.76 C105.45 40.66, 105.97 51.56, 103.61 59.6 C101.25 67.65, 95.28 75.36, 88.51 81.04 C81.75 86.72, 72.03 91.79, 63.02 93.67 C54 95.55, 43.01 95.1, 34.43 92.32 C25.84 89.53, 17.24 83.6, 11.49 76.97 C5.74 70.33, 1.11 60.8, -0.08 52.5 C-1.27 44.19, 0.09 34.54, 4.37 27.14 C8.66 19.73, 19.74 12.49, 25.62 8.09 C31.5 3.7, 36.1 1.96, 39.65 0.76 C43.2 -0.45, 46.67 -0.13, 46.91 0.86 M49.25 1.04 C57.62 -0.11, 68.02 2.65, 76.13 6.37 C84.24 10.09, 93.15 16.23, 97.89 23.36 C102.62 30.49, 104.95 40.88, 104.54 49.14 C104.13 57.39, 100.57 66.02, 95.42 72.89 C90.27 79.76, 82.03 86.79, 73.62 90.33 C65.21 93.88, 54.1 95.09, 44.98 94.16 C35.86 93.23, 25.97 90.17, 18.89 84.78 C11.81 79.39, 5.46 70.05, 2.5 61.81 C-0.47 53.57, -1.23 43.12, 1.11 35.33 C3.44 27.54, 9.91 20.58, 16.52 15.07 C23.12 9.55, 35.39 4.74, 40.73 2.25 C46.06 -0.25, 47.12 0.45, 48.53 0.1 C49.93 -0.25, 49.11 -0.87, 49.15 0.13" stroke="#000000" stroke-width="1" fill="none"></path></g><g stroke-linecap="round" transform="translate(157 82) rotate(0 20.5 19)"><path d="M19.83 0.72 C24.05 0.31, 29 1.42, 32.36 3.71 C35.71 5.99, 38.71 10.39, 39.94 14.41 C41.16 18.43, 41.53 24.3, 39.71 27.8 C37.9 31.29, 33.11 33.7, 29.05 35.38 C24.99 37.06, 19.52 38.93, 15.34 37.9 C11.17 36.87, 6.64 32.8, 3.97 29.22 C1.31 25.64, -1.08 20.28, -0.66 16.39 C-0.24 12.5, 2.91 8.51, 6.5 5.89 C10.09 3.26, 18.1 1.52, 20.88 0.65 C23.66 -0.22, 23.16 0.48, 23.17 0.66 M23.26 -0.82 C27.77 -0.74, 33.03 2.82, 35.8 5.57 C38.58 8.32, 39.79 11.48, 39.93 15.66 C40.06 19.83, 39.07 26.79, 36.62 30.61 C34.18 34.42, 29.42 37.73, 25.26 38.56 C21.09 39.39, 15.46 37.42, 11.66 35.58 C7.86 33.74, 4.09 30.94, 2.46 27.53 C0.82 24.11, 0.72 19.01, 1.82 15.07 C2.92 11.13, 5.85 6.56, 9.07 3.9 C12.29 1.24, 19.11 -0.43, 21.13 -0.9 C23.15 -1.36, 21.28 0.57, 21.19 1.11" stroke="#000000" stroke-width="1" fill="none"></path></g><g stroke-linecap="round" transform="translate(273.5 82) rotate(0 15 13)"><path d="M10.15 -0.31 C12.8 -1.13, 17.46 0.4, 20.4 1.81 C23.33 3.21, 26.31 5.83, 27.77 8.12 C29.23 10.41, 29.78 12.96, 29.17 15.53 C28.56 18.1, 26.49 21.74, 24.1 23.54 C21.72 25.34, 18.03 26.51, 14.86 26.35 C11.7 26.18, 7.66 24.63, 5.12 22.54 C2.58 20.45, 0.14 16.52, -0.36 13.81 C-0.86 11.09, -0.19 8.51, 2.12 6.25 C4.43 4, 10.87 1.21, 13.48 0.3 C16.09 -0.61, 17.53 0.49, 17.77 0.8 M14.37 -1.27 C17.03 -1.61, 20.09 0.05, 22.54 1.76 C24.98 3.48, 28.17 6.29, 29.03 9.04 C29.9 11.79, 29.09 15.89, 27.74 18.24 C26.38 20.59, 23.82 22.12, 20.91 23.12 C18 24.13, 13.48 24.57, 10.26 24.28 C7.05 23.98, 3.36 23.21, 1.64 21.35 C-0.07 19.49, -0.52 15.81, -0.04 13.12 C0.43 10.44, 2.08 7.57, 4.49 5.26 C6.91 2.95, 12.86 0.01, 14.44 -0.74 C16.03 -1.5, 14.01 0.41, 13.99 0.73" stroke="#000000" stroke-width="1" fill="none"></path></g><g stroke-linecap="round" transform="translate(255 62) rotate(0 33.5 32)"><path d="M18.78 3.37 C24.85 0.32, 34.41 -0.53, 41.4 1.11 C48.38 2.76, 56.52 7.86, 60.69 13.24 C64.87 18.63, 66.7 26.7, 66.42 33.44 C66.15 40.17, 63.61 48.81, 59.02 53.67 C54.44 58.53, 45.97 61.58, 38.92 62.61 C31.88 63.65, 22.72 63.25, 16.74 59.89 C10.76 56.53, 5.56 48.78, 3.05 42.43 C0.54 36.07, -0.56 28.03, 1.68 21.76 C3.92 15.48, 13.63 8.06, 16.51 4.76 C19.38 1.45, 18.11 2.09, 18.93 1.92 C19.74 1.74, 20.96 3.09, 21.39 3.69 M41.58 0.78 C48.18 1.66, 55.63 7.56, 59.93 12.78 C64.24 18, 67.4 25.19, 67.42 32.09 C67.44 38.98, 64.97 48.74, 60.06 54.16 C55.15 59.57, 45.32 63.42, 37.96 64.55 C30.6 65.69, 21.99 64.52, 15.9 60.95 C9.8 57.39, 3.66 49.79, 1.4 43.16 C-0.86 36.53, 0.06 27.43, 2.33 21.16 C4.59 14.89, 9.34 9.1, 14.99 5.55 C20.64 2.01, 32.01 0.87, 36.23 -0.11 C40.45 -1.08, 39.64 -0.36, 40.3 -0.3 C40.96 -0.24, 40.19 -0.47, 40.18 0.26" stroke="#000000" stroke-width="1" fill="none"></path></g><g stroke-linecap="round" transform="translate(354 63) rotate(0 39.5 34.5)"><path d="M38.62 -0.08 C46.08 -0.57, 56.44 2.41, 62.94 6.69 C69.45 10.96, 75.54 18.72, 77.65 25.58 C79.77 32.45, 78.54 41.39, 75.63 47.86 C72.71 54.33, 66.95 60.85, 60.18 64.42 C53.41 67.99, 42.76 69.98, 35.01 69.28 C27.26 68.59, 19.55 64.87, 13.68 60.22 C7.81 55.57, 1.52 48.13, -0.21 41.4 C-1.94 34.68, -0.53 26.06, 3.29 19.86 C7.1 13.66, 15.58 7.39, 22.68 4.19 C29.79 0.99, 41.39 0.94, 45.91 0.66 C50.43 0.39, 49.99 2.01, 49.8 2.53 M29.73 0.96 C37.06 -0.94, 47.61 0.35, 54.99 3.06 C62.38 5.77, 70.04 11.1, 74.03 17.22 C78.02 23.33, 79.69 32.9, 78.94 39.74 C78.19 46.58, 75.19 53.66, 69.54 58.26 C63.89 62.87, 53.27 66.07, 45.02 67.37 C36.77 68.68, 27.06 68.87, 20.06 66.1 C13.05 63.32, 6.23 57.33, 2.99 50.75 C-0.26 44.16, -0.92 33.63, 0.6 26.57 C2.12 19.5, 7.17 12.76, 12.1 8.35 C17.04 3.94, 27.28 1.29, 30.21 0.11 C33.14 -1.07, 29.65 0.59, 29.68 1.26" stroke="#000000" stroke-width="1" fill="none"></path></g><g stroke-linecap="round" transform="translate(369 74) rotate(0 24.5 25)"><path d="M23.8 0.46 C28.64 0.19, 34.78 2.78, 39.04 6.19 C43.31 9.6, 48.36 15.6, 49.39 20.92 C50.42 26.24, 47.82 33.56, 45.2 38.11 C42.59 42.65, 38.52 46.47, 33.68 48.19 C28.83 49.9, 21.22 50.2, 16.12 48.39 C11.01 46.58, 5.67 41.86, 3.06 37.31 C0.45 32.76, -0.49 26.45, 0.45 21.08 C1.4 15.72, 3.92 8.45, 8.71 5.13 C13.51 1.81, 25.06 1.61, 29.24 1.16 C33.42 0.7, 33.74 2.07, 33.8 2.39 M14.29 0.35 C18.91 -1.82, 28.41 -0.67, 33.72 1.04 C39.03 2.75, 43.69 6.04, 46.15 10.61 C48.61 15.17, 49.23 22.74, 48.48 28.44 C47.73 34.14, 45.48 41.16, 41.64 44.8 C37.81 48.45, 30.89 50.27, 25.48 50.31 C20.07 50.34, 13.59 48.3, 9.2 45.01 C4.81 41.73, 0.43 36.1, -0.86 30.6 C-2.14 25.11, -1.07 16.61, 1.49 12.04 C4.06 7.46, 12.15 4.7, 14.54 3.14 C16.94 1.57, 15.6 2.65, 15.87 2.64" stroke="#000000" stroke-width="1" fill="none"></path></g><g stroke-linecap="round" transform="translate(381 87) rotate(0 13 12)"><path d="M12.13 0.25 C14.65 -0.17, 18.37 0.98, 20.46 2.49 C22.55 4.01, 24.12 7.02, 24.67 9.34 C25.22 11.67, 24.92 14, 23.78 16.42 C22.64 18.83, 20.15 22.58, 17.81 23.82 C15.46 25.06, 12.32 24.81, 9.71 23.87 C7.09 22.93, 3.81 20.2, 2.13 18.18 C0.45 16.16, -0.55 14.15, -0.39 11.74 C-0.24 9.33, 0.91 5.74, 3.07 3.72 C5.23 1.69, 10.68 0.26, 12.57 -0.42 C14.45 -1.11, 14.26 -0.71, 14.38 -0.4 M10.81 0.18 C13.61 -0.15, 17.88 1.38, 20.22 2.69 C22.55 4.01, 23.88 5.76, 24.82 8.07 C25.75 10.39, 27.04 14.31, 25.83 16.58 C24.61 18.85, 19.99 20.44, 17.51 21.69 C15.03 22.94, 13.45 24.67, 10.94 24.07 C8.44 23.47, 4.53 20.4, 2.47 18.09 C0.41 15.78, -1.36 12.69, -1.41 10.23 C-1.45 7.77, 0 4.86, 2.18 3.33 C4.35 1.79, 10.35 1.28, 11.64 1.01 C12.92 0.74, 10.13 1.61, 9.88 1.71" stroke="#000000" stroke-width="1" fill="none"></path></g><g stroke-linecap="round" transform="translate(127 275) rotate(270.6585431775636 55.5 16.5)"><path d="M80.19 1.08 C89.5 2.32, 99.08 6.6, 104.01 9.55 C108.95 12.51, 111.13 15.85, 109.79 18.79 C108.46 21.74, 103.05 25.02, 96.03 27.21 C89 29.4, 77.94 31.16, 67.64 31.95 C57.33 32.74, 44.11 33.18, 34.18 31.95 C24.24 30.71, 13.73 27.34, 8.04 24.54 C2.36 21.74, -0.62 18.18, 0.09 15.14 C0.8 12.1, 5.51 8.79, 12.29 6.3 C19.08 3.82, 30.57 1.05, 40.8 0.24 C51.02 -0.56, 66.63 1.32, 73.65 1.48 C80.66 1.64, 81.15 0.86, 82.91 1.18 C84.66 1.5, 84.57 3.02, 84.16 3.4 M32.71 0.74 C42.05 -0.28, 57.37 0.29, 67.76 1.3 C78.16 2.3, 88.16 4.51, 95.07 6.77 C101.99 9.03, 107.55 12.11, 109.25 14.84 C110.94 17.58, 110.1 20.52, 105.25 23.19 C100.41 25.87, 89.86 29.11, 80.17 30.91 C70.48 32.71, 57.67 34.23, 47.11 34 C36.56 33.77, 24.35 32.03, 16.85 29.52 C9.34 27.02, 4.18 22.08, 2.08 18.98 C-0.02 15.87, -0.27 13.75, 4.23 10.89 C8.74 8.03, 24.19 3.56, 29.1 1.82 C34.02 0.08, 32.8 0.7, 33.72 0.43 C34.65 0.17, 34.37 -0.16, 34.65 0.22" stroke="#000000" stroke-width="1" fill="none"></path></g><g stroke-linecap="round" transform="translate(12.5 279.5) rotate(0 55.5 16.5)"><path d="M36.72 0.8 C45.73 -0.41, 58.47 -0.78, 68.82 0.16 C79.18 1.09, 92 3.8, 98.86 6.4 C105.71 9, 109.1 12.58, 109.96 15.77 C110.81 18.95, 109.42 22.97, 104 25.52 C98.59 28.07, 87.38 29.79, 77.46 31.05 C67.53 32.31, 54.77 33.52, 44.45 33.08 C34.14 32.64, 22.73 30.94, 15.55 28.43 C8.36 25.92, 2.83 21.41, 1.34 18.03 C-0.15 14.66, 1.76 10.99, 6.62 8.19 C11.49 5.38, 23.96 2.54, 30.54 1.18 C37.12 -0.18, 41.84 0.11, 46.09 0.01 C50.33 -0.1, 55.8 0.27, 56.01 0.53 M53.21 1.02 C63.09 0.64, 76.58 0.45, 85.34 2.02 C94.1 3.58, 101.77 7.23, 105.76 10.41 C109.75 13.58, 111.48 17.87, 109.28 21.06 C107.08 24.25, 100.75 27.45, 92.56 29.55 C84.37 31.65, 70.92 33.3, 60.16 33.67 C49.4 34.04, 37.37 33.47, 28 31.77 C18.64 30.06, 8.42 26.66, 3.98 23.46 C-0.46 20.26, -0.9 15.43, 1.37 12.55 C3.63 9.66, 10.23 8.48, 17.56 6.18 C24.88 3.87, 39.15 -0.09, 45.31 -1.27 C51.47 -2.46, 53.29 -1.2, 54.5 -0.91 C55.72 -0.62, 52.46 0.23, 52.59 0.44" stroke="#000000" stroke-width="1" fill="none"></path></g><g stroke-linecap="round" transform="translate(122.5 281.5) rotate(0 55.5 16.5)"><path d="M69.47 -0.36 C79.52 0.22, 90.71 4.23, 97.68 6.67 C104.65 9.12, 110.27 11.13, 111.29 14.3 C112.32 17.47, 109.27 22.91, 103.84 25.68 C98.42 28.44, 88.7 29.77, 78.76 30.9 C68.83 32.02, 54.74 32.89, 44.23 32.43 C33.72 31.98, 22.86 30.3, 15.68 28.16 C8.5 26.03, 2.89 22.74, 1.15 19.64 C-0.6 16.55, 0.59 12.4, 5.21 9.58 C9.82 6.76, 19.37 4.21, 28.84 2.74 C38.32 1.28, 54.66 0.93, 62.05 0.77 C69.44 0.62, 70.71 1.54, 73.18 1.83 C75.65 2.12, 77.18 2.43, 76.88 2.52 M67.5 -0.5 C77.53 -0.27, 88.02 1.25, 95.15 3.69 C102.29 6.13, 108.61 10.59, 110.32 14.14 C112.03 17.69, 110.17 22.22, 105.39 24.96 C100.62 27.7, 91.1 29.26, 81.66 30.6 C72.22 31.95, 59.25 33.55, 48.74 33.02 C38.23 32.49, 26.51 29.53, 18.59 27.41 C10.66 25.29, 3.67 23.08, 1.18 20.29 C-1.3 17.51, -0.85 13.95, 3.67 10.71 C8.18 7.48, 19.22 2.56, 28.27 0.89 C37.33 -0.77, 51.79 1.02, 58 0.71 C64.22 0.4, 64.18 -1.16, 65.57 -0.95 C66.96 -0.74, 66.62 1.31, 66.37 1.96" stroke="#000000" stroke-width="1" fill="none"></path></g><g stroke-linecap="round" transform="translate(235.5 278.5) rotate(0 54 16)"><path d="M29.11 1.11 C37.64 -0.25, 51.49 0.12, 61.69 0.64 C71.9 1.17, 82.84 2.18, 90.33 4.27 C97.81 6.37, 104.51 10.09, 106.62 13.2 C108.74 16.31, 107.3 20.02, 103.01 22.94 C98.73 25.86, 90.08 29.38, 80.92 30.71 C71.75 32.04, 58.68 31.32, 48.03 30.92 C37.39 30.52, 24.9 30.41, 17.04 28.33 C9.19 26.24, 3.01 21.64, 0.89 18.44 C-1.24 15.23, -0.11 11.94, 4.29 9.09 C8.7 6.24, 22.53 2.59, 27.31 1.33 C32.1 0.07, 31.45 1.56, 33 1.52 C34.56 1.48, 36.41 0.77, 36.65 1.09 M45.34 -0.29 C55.17 -1.2, 70.25 -0.89, 79.63 0.69 C89.01 2.28, 96.83 6.31, 101.62 9.21 C106.4 12.11, 110.02 15.03, 108.36 18.07 C106.69 21.11, 99.22 25.29, 91.62 27.45 C84.02 29.61, 73.07 30.76, 62.74 31.05 C52.4 31.34, 39.28 30.5, 29.61 29.19 C19.94 27.88, 9.54 25.55, 4.7 23.19 C-0.14 20.83, -1.1 17.87, 0.56 15.02 C2.22 12.18, 7.45 8.82, 14.66 6.12 C21.87 3.41, 38.45 -0.09, 43.8 -1.22 C49.16 -2.34, 46.19 -1.12, 46.79 -0.64 C47.38 -0.16, 47.11 1.25, 47.36 1.64" stroke="#000000" stroke-width="1" fill="none"></path></g><g stroke-linecap="round" transform="translate(347.5 280.5) rotate(0 50.5 14.5)"><path d="M61.3 0.03 C70.9 0.42, 82 3.12, 88.44 5.3 C94.87 7.48, 99.11 10.41, 99.9 13.11 C100.68 15.82, 98.55 19.01, 93.14 21.54 C87.73 24.07, 76.84 27.2, 67.43 28.28 C58.02 29.35, 46.34 28.85, 36.69 27.99 C27.04 27.13, 15.61 25.48, 9.54 23.11 C3.47 20.75, 0.09 16.83, 0.27 13.79 C0.45 10.76, 4.6 7.12, 10.63 4.88 C16.65 2.65, 26.5 0.87, 36.41 0.39 C46.32 -0.08, 63.17 1.51, 70.07 2.04 C76.96 2.57, 78.18 3.65, 77.77 3.56 M51.85 0.8 C61.61 0.55, 73.04 1.54, 81.02 3 C89 4.45, 97.06 6.67, 99.72 9.55 C102.38 12.42, 100.96 17.25, 96.97 20.25 C92.99 23.24, 84.17 25.88, 75.81 27.51 C67.45 29.14, 56.85 30.43, 46.82 30.03 C36.79 29.63, 23.16 27.08, 15.63 25.12 C8.11 23.16, 3.24 21.17, 1.66 18.26 C0.07 15.35, 1.84 10.51, 6.13 7.65 C10.41 4.8, 20.16 2.47, 27.35 1.13 C34.54 -0.21, 45.53 -0.04, 49.28 -0.4 C53.04 -0.76, 49.53 -1.29, 49.88 -1.04" stroke="#000000" stroke-width="1" fill="none"></path></g><g stroke-linecap="round" transform="translate(239.5 276.5) rotate(311.98721249581666 55.5 16.5)"><path d="M39.77 1.34 C49.44 0.48, 63.19 0.82, 73.34 1.71 C83.49 2.6, 94.42 4.35, 100.68 6.68 C106.94 9.01, 110.9 12.66, 110.89 15.69 C110.88 18.72, 106.53 22.08, 100.62 24.86 C94.7 27.64, 85.13 31.2, 75.43 32.37 C65.73 33.53, 52.91 32.68, 42.43 31.87 C31.96 31.05, 19.65 29.8, 12.58 27.48 C5.51 25.17, 0.77 21.19, 0.04 17.97 C-0.69 14.75, 2.9 10.86, 8.2 8.16 C13.5 5.47, 26.23 3.07, 31.85 1.82 C37.46 0.57, 39.83 0.95, 41.92 0.68 C44.01 0.41, 44.01 0.01, 44.37 0.18 M45.84 -0.03 C55.22 -0.51, 66.98 1.17, 76.65 2.37 C86.32 3.56, 98.26 4.77, 103.84 7.15 C109.42 9.53, 110.86 13.11, 110.14 16.65 C109.43 20.19, 106.49 25.63, 99.54 28.41 C92.59 31.18, 78.84 32.77, 68.46 33.3 C58.07 33.83, 46.9 33.07, 37.25 31.61 C27.61 30.14, 16.78 26.97, 10.59 24.53 C4.39 22.09, -0.14 19.81, 0.09 16.97 C0.32 14.13, 5.83 10.02, 11.96 7.5 C18.08 4.98, 31.22 3.24, 36.84 1.86 C42.47 0.47, 44.14 -0.87, 45.69 -0.83 C47.24 -0.79, 45.93 1.87, 46.15 2.1" stroke="#000000" stroke-width="1" fill="none"></path></g><g stroke-linecap="round" transform="translate(238.5 276.5) rotate(220.15599962491927 55.5 16.5)"><path d="M76.33 0.16 C86.19 1.13, 95.83 5.02, 101.63 7.8 C107.43 10.58, 111.56 13.59, 111.12 16.85 C110.67 20.11, 105.39 24.96, 98.95 27.38 C92.5 29.8, 82.52 30.58, 72.45 31.38 C62.37 32.18, 48.63 32.85, 38.5 32.18 C28.37 31.51, 18.16 29.91, 11.68 27.36 C5.21 24.8, 0.06 20.02, -0.34 16.85 C-0.73 13.67, 3.41 10.78, 9.33 8.3 C15.25 5.82, 25.33 3.1, 35.17 1.95 C45.01 0.8, 61.16 1.62, 68.36 1.41 C75.56 1.19, 76.63 0.43, 78.38 0.66 C80.14 0.88, 79.54 2.49, 78.9 2.76 M65.58 -0.66 C75.79 0.05, 89.58 3.38, 96.84 6.03 C104.09 8.68, 107.88 12.39, 109.12 15.23 C110.35 18.06, 108.76 20.44, 104.27 23.04 C99.78 25.64, 91.35 28.94, 82.17 30.81 C72.98 32.67, 59.84 34.84, 49.14 34.23 C38.44 33.62, 26.06 29.6, 17.95 27.16 C9.85 24.72, 2.84 22.47, 0.51 19.61 C-1.82 16.76, -0.23 12.98, 3.98 10.03 C8.19 7.07, 16.4 3.69, 25.76 1.87 C35.11 0.06, 53.54 -0.83, 60.13 -0.85 C66.71 -0.88, 64.09 1.33, 65.25 1.73 C66.42 2.13, 66.98 1.69, 67.12 1.54" stroke="#000000" stroke-width="1" fill="none"></path></g><g stroke-linecap="round" transform="translate(344.5 278.5) rotate(273.01278750418334 55.5 16.5)"><path d="M77.4 1.05 C86.79 1.96, 97.63 4.99, 103.22 7.67 C108.8 10.35, 111.84 13.83, 110.91 17.13 C109.98 20.43, 104.63 25.06, 97.64 27.47 C90.64 29.87, 79.06 30.73, 68.93 31.56 C58.8 32.38, 46.68 33.33, 36.88 32.43 C27.08 31.52, 16.4 28.9, 10.14 26.14 C3.87 23.37, -0.88 19.01, -0.7 15.82 C-0.52 12.63, 4.84 9.57, 11.21 6.99 C17.59 4.41, 27.39 1.4, 37.55 0.34 C47.71 -0.72, 64.44 0.35, 72.17 0.64 C79.89 0.93, 81.01 1.47, 83.9 2.07 C86.79 2.68, 89.93 4.05, 89.49 4.26 M55.41 0.27 C65.25 -0.04, 76.94 0.99, 85.7 2.82 C94.46 4.65, 104.13 8.45, 107.96 11.24 C111.79 14.03, 111.48 16.68, 108.67 19.55 C105.86 22.41, 99.09 25.96, 91.08 28.42 C83.07 30.89, 71.01 33.98, 60.59 34.32 C50.16 34.66, 37.76 32.49, 28.51 30.44 C19.26 28.4, 9.64 24.79, 5.09 22.05 C0.55 19.31, -0.69 17.09, 1.25 14 C3.2 10.91, 8.82 5.91, 16.77 3.52 C24.72 1.13, 42.77 0.39, 48.96 -0.32 C55.14 -1.03, 52.83 -1.03, 53.88 -0.73 C54.93 -0.43, 55.04 1.29, 55.25 1.48" stroke="#000000" stroke-width="1" fill="none"></path></g><g stroke-linecap="round" transform="translate(346.5 276.5) rotate(326.76828893202065 55.5 16.5)"><path d="M56.74 -0.02 C66.87 -0.11, 80.86 1.91, 89.42 3.71 C97.98 5.51, 104.97 7.88, 108.12 10.77 C111.27 13.67, 111.46 17.76, 108.31 21.06 C105.16 24.37, 97.61 28.65, 89.22 30.61 C80.82 32.57, 68.66 33.01, 57.94 32.82 C47.23 32.63, 33.95 31.1, 24.93 29.45 C15.92 27.79, 7.79 25.85, 3.86 22.9 C-0.06 19.96, -1.38 14.99, 1.38 11.78 C4.13 8.57, 12.3 5.67, 20.39 3.64 C28.49 1.61, 42.19 0.01, 49.95 -0.41 C57.71 -0.84, 62.75 0.93, 66.95 1.09 C71.16 1.25, 75.51 0.38, 75.18 0.54 M68.75 1.34 C78.44 2.23, 90.31 4.42, 97.43 6.91 C104.54 9.4, 110.48 13.21, 111.44 16.27 C112.4 19.33, 108.94 22.9, 103.19 25.28 C97.44 27.66, 86.71 29.1, 76.95 30.55 C67.19 31.99, 54.76 34.26, 44.64 33.96 C34.51 33.66, 23.48 31.44, 16.21 28.74 C8.93 26.05, 2.6 20.88, 0.98 17.78 C-0.64 14.69, 1.6 12.78, 6.5 10.19 C11.39 7.59, 20.8 3.89, 30.34 2.22 C39.89 0.56, 56.95 0.44, 63.77 0.21 C70.59 -0.02, 70.42 0.66, 71.24 0.84 C72.07 1.02, 69.22 1.16, 68.73 1.3" stroke="#000000" stroke-width="1" fill="none"></path></g><g stroke-linecap="round" transform="translate(348.5 282.5) rotate(38.65980825409007 55.5 16.5)"><path d="M47.8 0.46 C57.89 -0.15, 72.44 0.62, 81.85 1.93 C91.25 3.25, 99.57 5.68, 104.22 8.35 C108.86 11.03, 111.31 14.6, 109.72 17.99 C108.13 21.38, 101.99 26.18, 94.69 28.69 C87.38 31.2, 76.22 32.58, 65.86 33.06 C55.5 33.54, 42.06 32.9, 32.5 31.57 C22.95 30.23, 13.93 27.9, 8.55 25.04 C3.16 22.18, -0.49 17.64, 0.21 14.41 C0.91 11.19, 5.85 8.01, 12.76 5.69 C19.66 3.37, 34.69 1.5, 41.63 0.5 C48.58 -0.51, 50.94 -0.4, 54.43 -0.34 C57.93 -0.28, 62.38 0.66, 62.59 0.84 M61.27 1.34 C71.32 1.16, 82.59 1.21, 90.59 2.81 C98.58 4.42, 106.33 7.55, 109.23 10.95 C112.14 14.35, 111.88 20.23, 108.02 23.2 C104.15 26.17, 95.17 26.94, 86.04 28.76 C76.91 30.58, 64.01 33.7, 53.23 34.11 C42.45 34.53, 29.82 33.23, 21.38 31.25 C12.94 29.28, 5.85 25.3, 2.59 22.28 C-0.66 19.26, -1.58 16.23, 1.83 13.13 C5.24 10.03, 14.35 6.1, 23.03 3.67 C31.71 1.25, 47.59 -0.94, 53.91 -1.42 C60.23 -1.9, 59.68 0.69, 60.93 0.8 C62.19 0.9, 61.82 -0.93, 61.43 -0.81" stroke="#000000" stroke-width="1" fill="none"></path></g></svg>