<svg version="1.1" xmlns="http://www.w3.org/2000/svg" viewBox="0 0 653.5 610.5" width="1307" height="1221">
  <!-- svg-source:excalidraw -->
  
  <defs>
    <style>
      @font-face {
        font-family: "Virgil";
        src: url("https://excalidraw.com/Virgil.woff2");
      }
      @font-face {
        font-family: "Cascadia";
        src: url("https://excalidraw.com/Cascadia.woff2");
      }
    </style>
  </defs>
  <g stroke-linecap="round" transform="translate(27.5 89.5) rotate(0 216 184.5)"><path d="M-0.02 0.32 C169.33 -1.57, 340.44 -0.35, 431.9 -0.27 M-0.12 0.04 C100.28 0.32, 201.22 0.39, 431.76 -0.4 M432.85 -0.82 C430.88 90.67, 431.05 181.93, 430.92 368.82 M431.63 0.34 C430.02 108.39, 429.99 217.19, 431.41 369.27 M431.52 368.6 C286.52 372, 139.6 370.63, -0.82 369.44 M432.48 369.29 C318.54 367.48, 204.28 367.58, -0.16 369.14 M1.04 368.11 C-2.4 244.42, -1.21 118.92, -0.05 0.82 M0.39 369.41 C-1.18 229.75, -0.47 89.7, -0.11 0.26" stroke="#495057" stroke-width="1" fill="none"></path></g><g stroke-linecap="round"><g transform="translate(242.3198262218384 90.41751647004867) rotate(0 -1.8053523035533772 183.37169360115195)"><path d="M-0.02 0.38 C-0.36 61.33, -2.23 304.96, -2.36 366.16 M-1.49 -0.47 C-2.01 60.57, -3.66 306.22, -3.59 367.22" stroke="#aaa" stroke-width="1" fill="none"></path></g></g><g stroke-linecap="round"><g transform="translate(27.5 266.5) rotate(0 218.21094908675184 -0.3966334044001769)"><path d="M0.38 -0.54 C72.82 -0.7, 362.39 -0.73, 435.08 -0.99 M-0.89 1.79 C71.89 1.32, 364.49 -2.15, 437.31 -2.59" stroke="#aaa" stroke-width="1" fill="none"></path></g></g><g stroke-linecap="round" transform="translate(30.5 198.5) rotate(0 72.5 68)"><path d="M101.76 5.22 C111.66 8.28, 122.12 17.07, 129.02 25.17 C135.92 33.26, 140.92 43.64, 143.15 53.78 C145.39 63.92, 145.02 75.97, 142.42 86.01 C139.82 96.05, 134.89 106.61, 127.56 114.03 C120.24 121.46, 108.88 127.06, 98.45 130.55 C88.02 134.04, 75.65 135.71, 64.98 134.97 C54.3 134.22, 43.66 131.38, 34.4 126.06 C25.15 120.74, 15.27 111.9, 9.45 103.05 C3.63 94.2, 0.21 83.4, -0.53 72.94 C-1.28 62.49, 0.58 49.85, 4.98 40.32 C9.39 30.79, 17.49 22.28, 25.88 15.75 C34.27 9.23, 44.75 3.38, 55.34 1.18 C65.92 -1.02, 81.2 1.69, 89.41 2.57 C97.62 3.44, 101.79 5.37, 104.59 6.43 C107.39 7.49, 106.92 7.74, 106.2 8.91 M85.27 0.61 C95.98 1.41, 108.6 9.2, 117.16 15.45 C125.72 21.69, 132.22 28.92, 136.66 38.08 C141.09 47.24, 143.94 59.76, 143.78 70.38 C143.63 81, 140.87 92.64, 135.74 101.8 C130.61 110.95, 121.76 119.47, 113 125.31 C104.23 131.14, 94.04 135.57, 83.15 136.82 C72.25 138.07, 58.23 136.47, 47.62 132.79 C37.01 129.1, 26.82 122.09, 19.48 114.7 C12.15 107.32, 6.41 98.33, 3.59 88.47 C0.78 78.6, 0.55 65.92, 2.57 55.54 C4.59 45.16, 9.44 34.28, 15.72 26.17 C22 18.06, 30.44 11.48, 40.25 6.89 C50.06 2.3, 66.99 -0.6, 74.6 -1.38 C82.21 -2.16, 83.87 1.43, 85.91 2.18 C87.96 2.94, 87.32 2.06, 86.87 3.17" stroke="#000000" stroke-width="1" fill="none"></path></g><g stroke-linecap="round" transform="translate(176 201) rotate(0 72 70.5)"><path d="M86.45 1.79 C96.72 2.88, 108.66 8.81, 117.19 15.38 C125.72 21.95, 133.07 31.37, 137.64 41.2 C142.21 51.02, 144.92 63.79, 144.6 74.31 C144.28 84.82, 141.21 95.29, 135.72 104.28 C130.24 113.28, 120.88 122.14, 111.69 128.29 C102.51 134.45, 91.09 139.87, 80.63 141.22 C70.17 142.57, 58.92 140.13, 48.92 136.39 C38.91 132.65, 28.13 126.42, 20.61 118.78 C13.09 111.14, 7.21 100.53, 3.79 90.52 C0.37 80.52, -1.57 69.17, 0.11 58.74 C1.79 48.31, 7.42 36.53, 13.86 27.93 C20.29 19.32, 28.99 11.74, 38.71 7.12 C48.43 2.5, 62.99 0.77, 72.16 0.19 C81.34 -0.4, 89.08 2.56, 93.76 3.59 C98.44 4.63, 100.45 5.22, 100.24 6.38 M39.45 7.73 C48.14 2.23, 62.99 -1.11, 73.76 -1.31 C84.54 -1.5, 94.6 1.6, 104.11 6.55 C113.61 11.49, 124.04 19.75, 130.77 28.36 C137.5 36.96, 142.6 47.52, 144.5 58.18 C146.39 68.84, 145.35 82.27, 142.14 92.31 C138.92 102.35, 132.85 111.08, 125.2 118.41 C117.55 125.73, 106.77 132.52, 96.25 136.26 C85.73 139.99, 72.81 141.81, 62.1 140.81 C51.4 139.81, 41.01 136.07, 32.04 130.27 C23.07 124.46, 13.77 115.48, 8.26 105.96 C2.75 96.44, -0.7 83.7, -1.02 73.14 C-1.35 62.58, 1.91 52.2, 6.33 42.6 C10.75 32.99, 19.71 21.18, 25.49 15.5 C31.27 9.82, 38.39 9.88, 41.02 8.5 C43.66 7.12, 40.79 6.19, 41.31 7.22" stroke="#000000" stroke-width="1" fill="none"></path></g><g stroke-linecap="round" transform="translate(318.5 192) rotate(0 69 72.5)"><path d="M65.98 0.09 C75.79 -1.35, 87.59 1.84, 96.99 6.41 C106.4 10.98, 115.69 18.91, 122.42 27.5 C129.15 36.09, 135.23 47.54, 137.37 57.96 C139.52 68.38, 138.16 79.73, 135.29 90.03 C132.43 100.33, 126.86 111.35, 120.2 119.77 C113.55 128.19, 105.02 136.31, 95.36 140.53 C85.69 144.76, 72.8 146.12, 62.21 145.13 C51.62 144.13, 40.68 140.57, 31.83 134.59 C22.98 128.61, 14.42 118.66, 9.13 109.24 C3.83 99.81, 0.87 88.86, 0.06 78.04 C-0.75 67.22, 0.41 54.3, 4.29 44.32 C8.17 34.34, 15.3 25.27, 23.35 18.15 C31.39 11.04, 43.56 4.63, 52.55 1.63 C61.54 -1.37, 71.56 -0.36, 77.29 0.16 C83.03 0.68, 87.07 3.62, 86.98 4.72 M101 9.36 C110.14 13.12, 117.75 20.56, 123.58 29.28 C129.4 38, 134.17 50.56, 135.94 61.69 C137.71 72.82, 137.27 85.55, 134.17 96.06 C131.08 106.58, 124.44 117.01, 117.38 124.77 C110.33 132.54, 101.74 139.32, 91.85 142.66 C81.96 146, 68.58 146.68, 58.03 144.8 C47.48 142.92, 36.81 137.63, 28.57 131.37 C20.32 125.11, 13.08 116.91, 8.57 107.24 C4.06 97.57, 1.6 84.55, 1.51 73.37 C1.41 62.2, 3.8 49.91, 8 40.18 C12.2 30.45, 18.47 21.68, 26.69 14.97 C34.91 8.25, 47.11 1.76, 57.32 -0.1 C67.53 -1.95, 80.55 2.34, 87.96 3.81 C95.37 5.27, 100 7.62, 101.77 8.7 C103.55 9.78, 99.15 9.39, 98.6 10.28" stroke="#000000" stroke-width="1" fill="none"></path></g><g stroke-linecap="round" transform="translate(240.5 262.5) rotate(0 3 2)"><path d="M2.61 -0.21 C3.34 -0.35, 4.03 -0.29, 4.68 0.13 C5.33 0.55, 6.2 1.97, 6.52 2.33 C6.83 2.69, 7.05 2.14, 6.57 2.29 C6.08 2.44, 4.44 2.84, 3.62 3.25 C2.8 3.67, 2.03 4.88, 1.64 4.77 C1.25 4.65, 1.51 3.15, 1.31 2.56 C1.1 1.97, 0.41 1.7, 0.41 1.23 C0.42 0.77, 1.04 0, 1.34 -0.23 C1.63 -0.46, 1.83 -0.04, 2.18 -0.15 C2.53 -0.25, 3.38 -0.81, 3.44 -0.85 M4.03 -0.44 C4.35 -0.12, 3.63 1.32, 4.05 1.53 C4.47 1.74, 6.13 0.63, 6.54 0.83 C6.95 1.03, 7.17 2.14, 6.51 2.73 C5.86 3.33, 3.3 4.46, 2.63 4.39 C1.97 4.32, 3.08 2.83, 2.54 2.31 C2 1.79, -0.34 1.58, -0.61 1.29 C-0.87 1, 0.3 0.9, 0.94 0.58 C1.58 0.27, 2.53 -0.65, 3.25 -0.6 C3.96 -0.54, 4.89 0.98, 5.22 0.91 C5.56 0.85, 5.41 -0.75, 5.25 -0.99" stroke="#000000" stroke-width="1" fill="none"></path></g><g stroke-linecap="round" transform="translate(100.5 265.5) rotate(0 1 2)"><path d="M0.44 0.18 C0.56 0.13, 0.78 0.51, 1.17 0.78 C1.56 1.06, 2.75 1.68, 2.81 1.81 C2.86 1.95, 1.79 1.43, 1.51 1.6 C1.23 1.77, 1.07 2.32, 1.11 2.83 C1.16 3.34, 2.04 4.5, 1.8 4.68 C1.56 4.87, 0.1 4.23, -0.31 3.93 C-0.72 3.63, -0.6 3.51, -0.67 2.88 C-0.74 2.24, -0.96 0.59, -0.75 0.11 C-0.53 -0.37, 0.51 0.1, 0.63 0 C0.74 -0.1, 0.03 -0.63, -0.04 -0.49 M0.57 -1.42 C1.01 -1.35, 2.35 0.37, 2.36 1.15 C2.37 1.94, 0.82 3.03, 0.62 3.26 C0.41 3.5, 0.94 2.25, 1.11 2.58 C1.29 2.91, 1.96 5.15, 1.65 5.24 C1.34 5.32, -0.28 3.4, -0.74 3.11 C-1.19 2.82, -1.14 3.5, -1.1 3.47 C-1.06 3.45, -0.63 3.23, -0.51 2.94 C-0.38 2.65, -0.75 2, -0.34 1.75 C0.06 1.51, 1.87 1.65, 1.93 1.45 C1.98 1.26, 0.26 0.88, -0.01 0.59" stroke="#000000" stroke-width="1" fill="none"></path></g><g transform="translate(94 274) rotate(0 6.5 13)"><text x="6.5" y="18" font-family="Virgil, Segoe UI Emoji" font-size="20px" fill="#000000" text-anchor="middle" style="white-space: pre;" direction="ltr">A</text></g><g stroke-linecap="round" transform="translate(389.5 261.5) rotate(0 3 2.5)"><path d="M2.83 0.66 C3.64 0.75, 5.43 1.28, 5.87 1.38 C6.31 1.49, 5.62 1.03, 5.48 1.31 C5.35 1.58, 5.18 2.34, 5.07 3.04 C4.96 3.75, 5.46 5.17, 4.83 5.54 C4.2 5.91, 2.15 5.47, 1.3 5.26 C0.45 5.05, 0.07 4.97, -0.29 4.29 C-0.64 3.61, -1.04 1.81, -0.84 1.18 C-0.63 0.55, 0.39 0.81, 0.93 0.52 C1.48 0.24, 2.09 -0.56, 2.45 -0.53 C2.81 -0.5, 2.94 0.63, 3.11 0.68 M3.86 0.57 C4.33 1.05, 3.47 1.95, 3.7 2.13 C3.94 2.31, 4.92 1.15, 5.28 1.66 C5.64 2.17, 6.34 4.77, 5.88 5.2 C5.42 5.62, 3.4 4.17, 2.52 4.21 C1.64 4.24, 1.05 5.28, 0.59 5.42 C0.13 5.57, -0.03 5.42, -0.24 5.07 C-0.45 4.71, -1.07 3.82, -0.68 3.29 C-0.3 2.77, 1.61 2.38, 2.07 1.92 C2.54 1.47, 2.05 0.94, 2.1 0.55 C2.16 0.16, 2.14 -0.47, 2.39 -0.43" stroke="#000000" stroke-width="1" fill="none"></path></g><g transform="translate(388.5 273) rotate(0 6.5 13)"><text x="6.5" y="18" font-family="Virgil, Segoe UI Emoji" font-size="20px" fill="#000000" text-anchor="middle" style="white-space: pre;" direction="ltr">C</text></g><g transform="translate(248 274.5) rotate(0 7.5 13)"><text x="7.5" y="18" font-family="Virgil, Segoe UI Emoji" font-size="20px" fill="#000000" text-anchor="middle" style="white-space: pre;" direction="ltr">B</text></g><g transform="translate(492.5 100) rotate(0 75.5 169)"><text x="0" y="18" font-family="Virgil, Segoe UI Emoji" font-size="20px" fill="#000000" text-anchor="start" style="white-space: pre;" direction="ltr">n = 3</text><text x="0" y="44" font-family="Virgil, Segoe UI Emoji" font-size="20px" fill="#000000" text-anchor="start" style="white-space: pre;" direction="ltr">width = 300</text><text x="0" y="70" font-family="Virgil, Segoe UI Emoji" font-size="20px" fill="#000000" text-anchor="start" style="white-space: pre;" direction="ltr">d = width/ n</text><text x="0" y="96" font-family="Virgil, Segoe UI Emoji" font-size="20px" fill="#000000" text-anchor="start" style="white-space: pre;" direction="ltr">r = d/2</text><text x="0" y="122" font-family="Virgil, Segoe UI Emoji" font-size="20px" fill="#000000" text-anchor="start" style="white-space: pre;" direction="ltr"></text><text x="0" y="148" font-family="Virgil, Segoe UI Emoji" font-size="20px" fill="#000000" text-anchor="start" style="white-space: pre;" direction="ltr">left = -width/2</text><text x="0" y="174" font-family="Virgil, Segoe UI Emoji" font-size="20px" fill="#000000" text-anchor="start" style="white-space: pre;" direction="ltr">x1 = left + r</text><text x="0" y="200" font-family="Virgil, Segoe UI Emoji" font-size="20px" fill="#000000" text-anchor="start" style="white-space: pre;" direction="ltr">x2 = x1 + d</text><text x="0" y="226" font-family="Virgil, Segoe UI Emoji" font-size="20px" fill="#000000" text-anchor="start" style="white-space: pre;" direction="ltr">x3 = x2 + d</text><text x="0" y="252" font-family="Virgil, Segoe UI Emoji" font-size="20px" fill="#000000" text-anchor="start" style="white-space: pre;" direction="ltr"></text><text x="0" y="278" font-family="Virgil, Segoe UI Emoji" font-size="20px" fill="#000000" text-anchor="start" style="white-space: pre;" direction="ltr">A = (x1, 0)</text><text x="0" y="304" font-family="Virgil, Segoe UI Emoji" font-size="20px" fill="#000000" text-anchor="start" style="white-space: pre;" direction="ltr">B = (x2, 0)</text><text x="0" y="330" font-family="Virgil, Segoe UI Emoji" font-size="20px" fill="#000000" text-anchor="start" style="white-space: pre;" direction="ltr">C = (x3, 0)</text></g><g stroke-linecap="round"><g transform="translate(102.07562502045198 93.49536223094924) rotate(0 -1.6128404615446925 184.47808077614752)"><path d="M0.65 0.77 C-0.09 62.15, -3.25 306.79, -3.88 368.18" stroke="#000000" stroke-width="1.5" fill="none" stroke-dasharray="1.5 7"></path></g></g><g stroke-linecap="round"><g transform="translate(390.07562502045175 91.49536223094924) rotate(0 -0.919536752067529 185.34144094940274)"><path d="M1.19 0.64 C0.51 62.18, -2.33 308.71, -3.03 370.04" stroke="#000000" stroke-width="1.5" fill="none" stroke-dasharray="1.5 7"></path></g></g><g transform="translate(96.5 60) rotate(0 8.5 13)"><text x="8.5" y="18" font-family="Virgil, Segoe UI Emoji" font-size="20px" fill="#000000" text-anchor="middle" style="white-space: pre;" direction="ltr">x1</text></g><g transform="translate(234.5 60) rotate(0 12.5 13)"><text x="12.5" y="18" font-family="Virgil, Segoe UI Emoji" font-size="20px" fill="#000000" text-anchor="middle" style="white-space: pre;" direction="ltr">x2</text></g><g transform="translate(376 62) rotate(0 12.5 13)"><text x="12.5" y="18" font-family="Virgil, Segoe UI Emoji" font-size="20px" fill="#000000" text-anchor="middle" style="white-space: pre;" direction="ltr">x3</text></g><g stroke-linecap="round"><g transform="translate(244.0988506757285 39.202077015165855) rotate(0 73.55525117155116 2.0485106273974907)"><path d="M-0.37 1.05 C23.69 1.5, 120.77 3.31, 145.33 3.54 M1.64 0.56 C25.97 0.59, 123.34 1.3, 147.48 1.8" stroke="#495057" stroke-width="1" fill="none"></path></g><g transform="translate(244.0988506757285 39.202077015165855) rotate(0 73.55525117155116 2.0485106273974907)"><path d="M1.22 -15.28 C0.82 -7.52, -0.69 -1.51, 0.2 2.09 M-0.09 -14.09 C-0.32 -10.88, -0.89 -6.71, 0.02 0.4" stroke="#495057" stroke-width="1" fill="none"></path></g><g transform="translate(244.0988506757285 39.202077015165855) rotate(0 73.55525117155116 2.0485106273974907)"><path d="M0.68 14.71 C0.27 11.03, -1.04 5.58, 0.2 2.09 M-0.63 15.9 C-0.54 11.72, -0.98 8.5, 0.02 0.4" stroke="#495057" stroke-width="1" fill="none"></path></g><g transform="translate(244.0988506757285 39.202077015165855) rotate(0 73.55525117155116 2.0485106273974907)"><path d="M148.6 15.46 C148.16 11.77, 146.83 6.32, 148.04 2.83 M147.29 16.64 C147.36 12.46, 146.9 9.24, 147.86 1.15" stroke="#495057" stroke-width="1" fill="none"></path></g><g transform="translate(244.0988506757285 39.202077015165855) rotate(0 73.55525117155116 2.0485106273974907)"><path d="M148.99 -14.54 C148.62 -6.77, 147.13 -0.76, 148.04 2.83 M147.68 -13.35 C147.47 -10.14, 146.91 -5.97, 147.86 1.15" stroke="#495057" stroke-width="1" fill="none"></path></g></g><g transform="translate(305.0284425962159 12) rotate(0 5.1653263396569855 12.208953166462095)"><text x="5.165326339657034" y="16.41790633292416" font-family="Virgil, Segoe UI Emoji" font-size="18.783004871480124px" fill="#000000" text-anchor="middle" style="white-space: pre;" direction="ltr">d</text></g><g stroke-linecap="round"><g transform="translate(111.79624843735132 37.492787836649995) rotate(359.234347507877 64.61819376753306 1.405135293238061)"><path d="M0.23 0.1 C22.04 0.59, 108.86 1.73, 130.34 2.28 M-1.1 -0.9 C20.63 -0.16, 107.56 3.3, 129.67 3.71" stroke="#495057" stroke-width="1" fill="none"></path></g><g transform="translate(111.79624843735132 37.492787836649995) rotate(359.234347507877 64.61819376753306 1.405135293238061)"><path d="M0.6 -14.23 C0.07 -11.89, 1.42 -7.6, 0.47 -1.09 M0.02 -14.81 C0.22 -10.91, -0.14 -6.53, 0.23 -0.31" stroke="#495057" stroke-width="1" fill="none"></path></g><g transform="translate(111.79624843735132 37.492787836649995) rotate(359.234347507877 64.61819376753306 1.405135293238061)"><path d="M0.11 15.77 C-0.12 10.29, 1.36 6.75, 0.47 -1.09 M-0.47 15.18 C-0.22 10.08, -0.43 5.45, 0.23 -0.31" stroke="#495057" stroke-width="1" fill="none"></path></g><g transform="translate(111.79624843735132 37.492787836649995) rotate(359.234347507877 64.61819376753306 1.405135293238061)"><path d="M129.33 19.38 C129.16 13.9, 130.7 10.36, 129.9 2.52 M128.76 18.79 C129.07 13.69, 128.92 9.07, 129.67 3.3" stroke="#495057" stroke-width="1" fill="none"></path></g><g transform="translate(111.79624843735132 37.492787836649995) rotate(359.234347507877 64.61819376753306 1.405135293238061)"><path d="M130.25 -10.61 C129.67 -8.27, 130.97 -3.99, 129.9 2.52 M129.67 -11.19 C129.81 -7.29, 129.39 -2.92, 129.67 3.3" stroke="#495057" stroke-width="1" fill="none"></path></g></g><g transform="translate(165.73089060065058 13.440330363262092) rotate(359.234347507877 4.57959696764874 10.824501923533262)"><text x="4.579596967648683" y="14.649003847066524" font-family="Virgil, Segoe UI Emoji" font-size="16.65307988235885px" fill="#000000" text-anchor="middle" style="white-space: pre;" direction="ltr">d</text></g><g transform="translate(10 61) rotate(0 18.5 13)"><text x="18.5" y="18" font-family="Virgil, Segoe UI Emoji" font-size="20px" fill="#000000" text-anchor="middle" style="white-space: pre;" direction="ltr">left</text></g><g stroke-linecap="round"><g transform="translate(165.45809341450308 507.19810639721436) rotate(0 72.96590010999648 1.346444709669072)"><path d="M0 -0.64 C24.75 -0.32, 123.12 1.74, 147.38 2.15 M-1.45 1.63 C23.32 2.08, 122.04 3.18, 146.95 3.34" stroke="#495057" stroke-width="1" fill="none"></path></g><g transform="translate(165.45809341450308 507.19810639721436) rotate(0 72.96590010999648 1.346444709669072)"><path d="M-0.52 -14.41 C-0.57 -13.56, -1.06 -8.71, -1.29 -0.16 M-0.17 -15.26 C0.66 -12.4, 0.64 -9.1, -0.46 -0.22" stroke="#495057" stroke-width="1" fill="none"></path></g><g transform="translate(165.45809341450308 507.19810639721436) rotate(0 72.96590010999648 1.346444709669072)"><path d="M-1.08 15.59 C-1.07 10.23, -1.45 8.86, -1.29 -0.16 M-0.74 14.74 C-0.01 11.32, 0.08 8.35, -0.46 -0.22" stroke="#495057" stroke-width="1" fill="none"></path></g><g transform="translate(165.45809341450308 507.19810639721436) rotate(0 72.96590010999648 1.346444709669072)"><path d="M146.01 19.57 C145.99 14.21, 145.59 12.84, 145.66 3.82 M146.36 18.72 C147.05 15.3, 147.12 12.33, 146.49 3.75" stroke="#495057" stroke-width="1" fill="none"></path></g><g transform="translate(165.45809341450308 507.19810639721436) rotate(0 72.96590010999648 1.346444709669072)"><path d="M146.29 -10.43 C146.26 -9.58, 145.8 -4.74, 145.66 3.82 M146.63 -11.28 C147.5 -8.42, 147.5 -5.12, 146.49 3.75" stroke="#495057" stroke-width="1" fill="none"></path></g></g><g transform="translate(226.38768533499046 479.9960293820486) rotate(0 5.1653263396569855 12.208953166462038)"><text x="5.165326339657034" y="16.41790633292416" font-family="Virgil, Segoe UI Emoji" font-size="18.783004871480124px" fill="#000000" text-anchor="middle" style="white-space: pre;" direction="ltr">d</text></g><g stroke-linecap="round"><g transform="translate(33.155491176126134 505.4888172186984) rotate(359.234347507877 65.65309914808381 0.9145899349713318)"><path d="M0.99 -0.66 C22.48 -0.31, 107.41 1.13, 128.98 1.48 M0.05 1.61 C21.92 2.13, 109.62 2.39, 131.26 2.49" stroke="#495057" stroke-width="1" fill="none"></path></g><g transform="translate(33.155491176126134 505.4888172186984) rotate(359.234347507877 65.65309914808381 0.9145899349713318)"><path d="M0.41 -16.68 C-0.18 -10.44, -0.28 -6.17, -0.38 0.46 M1.56 -15.55 C1.41 -10.07, 0.51 -4.6, 1.08 -0.49" stroke="#495057" stroke-width="1" fill="none"></path></g><g transform="translate(33.155491176126134 505.4888172186984) rotate(359.234347507877 65.65309914808381 0.9145899349713318)"><path d="M-0.09 13.31 C-0.37 10.55, -0.32 5.81, -0.38 0.46 M1.06 14.44 C1.27 9.29, 0.55 4.12, 1.08 -0.49" stroke="#495057" stroke-width="1" fill="none"></path></g><g transform="translate(33.155491176126134 505.4888172186984) rotate(359.234347507877 65.65309914808381 0.9145899349713318)"><path d="M130.37 16.47 C130.04 13.7, 130.03 8.96, 129.9 3.61 M131.52 17.59 C131.67 12.44, 130.87 7.27, 131.35 2.66" stroke="#495057" stroke-width="1" fill="none"></path></g><g transform="translate(33.155491176126134 505.4888172186984) rotate(359.234347507877 65.65309914808381 0.9145899349713318)"><path d="M130.5 -13.53 C129.96 -7.29, 129.91 -3.02, 129.9 3.61 M131.64 -12.41 C131.56 -6.92, 130.73 -1.45, 131.35 2.66" stroke="#495057" stroke-width="1" fill="none"></path></g></g><g transform="translate(87.09013333942517 481.4363597453107) rotate(359.234347507877 4.579596967648627 10.824501923533262)"><text x="4.579596967648683" y="14.649003847066524" font-family="Virgil, Segoe UI Emoji" font-size="16.65307988235885px" fill="#000000" text-anchor="middle" style="white-space: pre;" direction="ltr">d</text></g><g stroke-linecap="round"><g transform="translate(313.3013789342624 509.19810639721436) rotate(0 73.09785749431649 1.4345760625089952)"><path d="M0.32 0.22 C24.87 0.92, 122.86 3.24, 147.17 3.58 M-0.97 -0.71 C23.49 -0.3, 122.25 1.2, 146.63 1.86" stroke="#495057" stroke-width="1" fill="none"></path></g><g transform="translate(313.3013789342624 509.19810639721436) rotate(0 73.09785749431649 1.4345760625089952)"><path d="M0.95 -13.81 C1.47 -10.69, -0.29 -6.08, -0.94 -0.63 M1.06 -15.25 C1.35 -10.75, 1.02 -7.65, -0.42 0.18" stroke="#495057" stroke-width="1" fill="none"></path></g><g transform="translate(313.3013789342624 509.19810639721436) rotate(0 73.09785749431649 1.4345760625089952)"><path d="M0.23 16.18 C1.1 10.59, -0.44 6.49, -0.94 -0.63 M0.34 14.74 C0.75 12.45, 0.58 8.76, -0.42 0.18" stroke="#495057" stroke-width="1" fill="none"></path></g><g transform="translate(313.3013789342624 509.19810639721436) rotate(0 73.09785749431649 1.4345760625089952)"><path d="M146.6 17.82 C147.45 12.23, 145.89 8.13, 145.37 1.01 M146.71 16.38 C147.1 14.1, 146.92 10.4, 145.89 1.82" stroke="#495057" stroke-width="1" fill="none"></path></g><g transform="translate(313.3013789342624 509.19810639721436) rotate(0 73.09785749431649 1.4345760625089952)"><path d="M147.21 -12.17 C147.73 -9.05, 145.99 -4.44, 145.37 1.01 M147.32 -13.61 C147.61 -9.11, 147.3 -6.01, 145.89 1.82" stroke="#495057" stroke-width="1" fill="none"></path></g></g><g transform="translate(374.23097085475024 481.9960293820486) rotate(0 5.1653263396569855 12.208953166462038)"><text x="5.165326339657034" y="16.41790633292416" font-family="Virgil, Segoe UI Emoji" font-size="18.783004871480124px" fill="#000000" text-anchor="middle" style="white-space: pre;" direction="ltr">d</text></g><g stroke-linecap="round"><g transform="translate(33.50000000000023 553.5) rotate(0 213.33513338528564 1.281963372714813)"><path d="M-0.37 -0.13 C70.8 0.15, 356.16 1.96, 427.04 2.18 M1.64 -1.24 C72.73 -0.79, 355.7 3.26, 426.64 3.81" stroke="#495057" stroke-width="1" fill="none"></path></g><g transform="translate(33.50000000000023 553.5) rotate(0 213.33513338528564 1.281963372714813)"><path d="M-0.45 -13.83 C-0.03 -11.93, -1.31 -4.6, -0.07 -0.39 M0.11 -15.41 C-0.18 -10.28, 0.14 -5.72, -0.19 0.43" stroke="#495057" stroke-width="1" fill="none"></path></g><g transform="translate(33.50000000000023 553.5) rotate(0 213.33513338528564 1.281963372714813)"><path d="M-0.61 16.17 C-0.27 8.98, -1.5 7.2, -0.07 -0.39 M-0.05 14.59 C-0.54 10.77, -0.17 6.38, -0.19 0.43" stroke="#495057" stroke-width="1" fill="none"></path></g><g transform="translate(33.50000000000023 553.5) rotate(0 213.33513338528564 1.281963372714813)"><path d="M426.3 20.1 C426.67 12.91, 425.47 11.14, 426.94 3.54 M426.86 18.52 C426.4 14.7, 426.81 10.31, 426.81 4.37" stroke="#495057" stroke-width="1" fill="none"></path></g><g transform="translate(33.50000000000023 553.5) rotate(0 213.33513338528564 1.281963372714813)"><path d="M426.65 -9.89 C427.04 -7.99, 425.74 -0.67, 426.94 3.54 M427.21 -11.48 C426.89 -6.35, 427.18 -1.79, 426.81 4.37" stroke="#495057" stroke-width="1" fill="none"></path></g></g><g transform="translate(232.50000000000023 583.5) rotate(0 0 0)" stroke="none" fill="#495057"><path d="M NaN NaN Q NaN NaN NaN NaN NaN NaN NaN NaN NaN NaN NaN NaN NaN NaN NaN NaN NaN NaN NaN NaN NaN NaN NaN NaN NaN NaN NaN NaN NaN NaN NaN NaN NaN NaN NaN NaN NaN NaN NaN NaN NaN NaN NaN NaN NaN NaN NaN NaN Z"></path></g><g transform="translate(228.50000000000023 574.5) rotate(0 20.5 13)"><text x="0" y="18" font-family="Virgil, Segoe UI Emoji" font-size="20px" fill="#495057" text-anchor="start" style="white-space: pre;" direction="ltr">300</text></g><g stroke-linecap="round"><g transform="translate(30.5 38) rotate(0 37.3357902458589 0.4738897230334942)"><path d="M0.11 -0.68 C12.76 -0.92, 63.46 -0.43, 75.96 -0.41 M-1.29 1.57 C11.23 2.03, 62.69 1.1, 75.27 0.92" stroke="#000000" stroke-width="1" fill="none"></path></g><g transform="translate(30.5 38) rotate(0 37.3357902458589 0.4738897230334942)"><path d="M-0.7 -15.08 C-0.23 -11.5, -0.4 -6.29, -0.18 -1.14 M-0.07 -16 C0.36 -12.17, 0.59 -8.57, -0.18 -0.02" stroke="#000000" stroke-width="1" fill="none"></path></g><g transform="translate(30.5 38) rotate(0 37.3357902458589 0.4738897230334942)"><path d="M-0.79 14.92 C-0.54 9.29, -0.68 5.29, -0.18 -1.14 M-0.16 14 C0.24 9.99, 0.48 5.75, -0.18 -0.02" stroke="#000000" stroke-width="1" fill="none"></path></g><g transform="translate(30.5 38) rotate(0 37.3357902458589 0.4738897230334942)"><path d="M74.64 16.52 C74.81 10.9, 74.58 6.9, 74.98 0.47 M75.27 15.6 C75.6 11.59, 75.77 7.36, 74.98 1.58" stroke="#000000" stroke-width="1" fill="none"></path></g><g transform="translate(30.5 38) rotate(0 37.3357902458589 0.4738897230334942)"><path d="M74.18 -13.47 C74.74 -9.89, 74.66 -4.68, 74.98 0.47 M74.81 -14.39 C75.32 -10.56, 75.61 -6.96, 74.98 1.58" stroke="#000000" stroke-width="1" fill="none"></path></g></g><g transform="translate(64 10) rotate(0 4.5 13)"><text x="4.5" y="18" font-family="Virgil, Segoe UI Emoji" font-size="20px" fill="#000000" text-anchor="middle" style="white-space: pre;" direction="ltr">r</text></g></svg>